SplineFontDB: 3.0
FontName: LiberationSansNarrow
FullName: Liberation Sans Narrow
FamilyName: Liberation Sans Narrow
Weight: Book
Copyright: Copyright 2010 Oracle and/or its affiliates
Version: 1.07.1
ItalicAngle: 0
UnderlinePosition: -142
UnderlineWidth: 150
Ascent: 1638
Descent: 410
LayerCount: 2
Layer: 0 1 "Back"  1
Layer: 1 1 "Fore"  0
NeedsXUIDChange: 1
FSType: 0
OS2Version: 1
OS2_WeightWidthSlopeOnly: 0
OS2_UseTypoMetrics: 1
CreationTime: 1123372800
ModificationTime: 1328004541
PfmFamily: 17
TTFWeight: 400
TTFWidth: 3
LineGap: 0
VLineGap: 0
Panose: 2 11 6 6 2 2 2 3 2 4
OS2TypoAscent: 1491
OS2TypoAOffset: 0
OS2TypoDescent: -431
OS2TypoDOffset: 0
OS2TypoLinegap: 269
OS2WinAscent: 1888
OS2WinAOffset: 0
OS2WinDescent: 431
OS2WinDOffset: 0
HheadAscent: 1916
HheadAOffset: 0
HheadDescent: -434
HheadDOffset: 0
OS2SubXSize: 1434
OS2SubYSize: 1331
OS2SubXOff: 0
OS2SubYOff: 147
OS2SupXSize: 1434
OS2SupYSize: 1331
OS2SupXOff: 0
OS2SupYOff: 523
OS2StrikeYSize: 102
OS2StrikeYPos: 530
OS2FamilyClass: 2053
OS2Vendor: 'OOoH'
OS2CodePages: 6000009f.dfd70000
OS2UnicodeRanges: a00002af.500078fb.00000000.00000000
Lookup: 1 0 0 "'locl' Localized Forms lookup 0"  {"'locl' Localized Forms lookup 0-1"  } ['locl' ('cyrl' <'SRB ' > 'cyrl' <'MKD ' > ) ]
Lookup: 258 0 0 "'kern' Horizontal Kerning lookup 0"  {"'kern' Horizontal Kerning lookup 0 subtable"  } ['kern' ('DFLT' <'dflt' > 'cyrl' <'dflt' > 'cyrl' <'SRB ' > 'cyrl' <'MKD ' > 'grek' <'dflt' > 'latn' <'dflt' > ) ]
MarkAttachClasses: 1
DEI: 91125
TtTable: prep
PUSHW_1
 511
SCANCTRL
PUSHB_1
 1
SCANTYPE
SVTCA[y-axis]
MPPEM
PUSHB_1
 8
LT
IF
PUSHB_2
 1
 1
INSTCTRL
EIF
PUSHB_2
 70
 6
CALL
IF
POP
PUSHB_1
 16
EIF
MPPEM
PUSHB_1
 20
GT
IF
POP
PUSHB_1
 128
EIF
SCVTCI
PUSHB_1
 6
CALL
NOT
IF
EIF
PUSHB_1
 20
CALL
EndTTInstrs
TtTable: fpgm
PUSHB_1
 0
FDEF
PUSHB_1
 0
SZP0
MPPEM
PUSHB_1
 42
LT
IF
PUSHB_1
 74
SROUND
EIF
PUSHB_1
 0
SWAP
MIAP[rnd]
RTG
PUSHB_1
 6
CALL
IF
RTDG
EIF
MPPEM
PUSHB_1
 42
LT
IF
RDTG
EIF
DUP
MDRP[rp0,rnd,grey]
PUSHB_1
 1
SZP0

StartChar: .notdef
Encoding: 65536 -1 0
Width: 467
Flags: W
LayerCount: 2
Fore
SplineSet
42 0 m 1,0,-1
 42 1365 l 1,1,-1
 382 1365 l 1,2,-1
 382 0 l 1,3,-1
 42 0 l 1,0,-1
85 68 m 1,4,-1
 340 68 l 1,5,-1
 340 1297 l 1,6,-1
 85 1297 l 1,7,-1
 85 68 l 1,4,-1
EndSplineSet
EndChar

StartChar: exclam
Encoding: 33 33 4
Width: 467
GlyphClass: 2
Flags: W
LayerCount: 2
Fore
SplineSet
295 397 m 1,0,-1
 173 397 l 1,1,-1
 153 1409 l 1,2,-1
 314 1409 l 1,3,-1
 295 397 l 1,0,-1
152 0 m 1,4,-1
 152 201 l 1,5,-1
 311 201 l 1,6,-1
 311 0 l 1,7,-1
 152 0 l 1,4,-1
EndSplineSet
EndChar

StartChar: quotedbl
Encoding: 34 34 5
Width: 596
GlyphClass: 2
Flags: W
LayerCount: 2
Fore
SplineSet
507 966 m 1,0,-1
 390 966 l 1,1,-1
 374 1409 l 1,2,-1
 525 1409 l 1,3,-1
 507 966 l 1,0,-1
204 966 m 1,4,-1
 89 966 l 1,5,-1
 71 1409 l 1,6,-1
 222 1409 l 1,7,-1
 204 966 l 1,4,-1
EndSplineSet
EndChar

StartChar: numbersign
Encoding: 35 35 6
Width: 934
GlyphClass: 2
Flags: W
LayerCount: 2
Fore
SplineSet
735 885 m 1,0,-1
 671 516 l 1,1,-1
 884 516 l 1,2,-1
 884 408 l 1,3,-1
 652 408 l 1,4,-1
 580 0 l 1,5,-1
 490 0 l 1,6,-1
 560 408 l 1,7,-1
 262 408 l 1,8,-1
 194 0 l 1,9,-1
 103 0 l 1,10,-1
 172 408 l 1,11,-1
 7 408 l 1,12,-1
 7 516 l 1,13,-1
 192 516 l 1,14,-1
 256 885 l 1,15,-1
 49 885 l 1,16,-1
 49 993 l 1,17,-1
 274 993 l 1,18,-1
 347 1401 l 1,19,-1
 437 1401 l 1,20,-1
 365 993 l 1,21,-1
 663 993 l 1,22,-1
 735 1401 l 1,23,-1
 825 1401 l 1,24,-1
 753 993 l 1,25,-1
 926 993 l 1,26,-1
 926 885 l 1,27,-1
 735 885 l 1,0,-1
349 885 m 1,28,-1
 283 516 l 1,29,-1
 580 516 l 1,30,-1
 644 885 l 1,31,-1
 349 885 l 1,28,-1
EndSplineSet
EndChar

StartChar: dollar
Encoding: 36 36 7
Width: 934
GlyphClass: 2
Flags: W
LayerCount: 2
Fore
SplineSet
425 20 m 1,0,1
 247 29 247 29 146.5 121.5 c 128,-1,2
 46 214 46 214 18 379 c 1,3,-1
 157 416 l 1,4,5
 166 363 166 363 185 319.5 c 128,-1,6
 204 276 204 276 236 244 c 128,-1,7
 268 212 268 212 314.5 192.5 c 128,-1,8
 361 173 361 173 425 168 c 1,9,-1
 425 664 l 1,10,-1
 408 669 l 2,11,12
 345 687 345 687 284.5 712 c 128,-1,13
 224 737 224 737 176.5 778.5 c 128,-1,14
 129 820 129 820 100 884 c 128,-1,15
 71 948 71 948 71 1046 c 0,16,17
 71 1130 71 1130 97 1192 c 128,-1,18
 123 1254 123 1254 170 1295.5 c 128,-1,19
 217 1337 217 1337 282 1359 c 128,-1,20
 347 1381 347 1381 425 1385 c 1,21,-1
 425 1516 l 1,22,-1
 526 1516 l 1,23,-1
 526 1385 l 1,24,25
 608 1380 608 1380 667.5 1357.5 c 128,-1,26
 727 1335 727 1335 769 1295 c 128,-1,27
 811 1255 811 1255 838 1197.5 c 128,-1,28
 865 1140 865 1140 882 1065 c 1,29,-1
 739 1032 l 1,30,31
 723 1126 723 1126 672.5 1178.5 c 128,-1,32
 622 1231 622 1231 526 1242 c 1,33,-1
 526 797 l 1,34,35
 526 797 526 797 621 768 c 0,36,37
 668 753 668 753 710.5 732.5 c 128,-1,38
 753 712 753 712 789 684 c 128,-1,39
 825 656 825 656 851 616.5 c 128,-1,40
 877 577 877 577 892 522.5 c 128,-1,41
 907 468 907 468 907 396 c 0,42,43
 907 319 907 319 884 253.5 c 128,-1,44
 861 188 861 188 814.5 138 c 128,-1,45
 768 88 768 88 696 57 c 128,-1,46
 624 26 624 26 526 20 c 1,47,-1
 526 -142 l 1,48,-1
 425 -142 l 1,49,-1
 425 20 l 1,0,1
766 394 m 0,50,51
 766 457 766 457 746.5 497 c 128,-1,52
 727 537 727 537 694 562.5 c 128,-1,53
 661 588 661 588 617.5 604 c 128,-1,54
 574 620 574 620 526 635 c 1,55,-1
 526 167 l 1,56,57
 579 171 579 171 623.5 186.5 c 128,-1,58
 668 202 668 202 699.5 230 c 128,-1,59
 731 258 731 258 748.5 298.5 c 128,-1,60
 766 339 766 339 766 394 c 0,50,51
212 1048 m 0,61,62
 212 994 212 994 228 957 c 128,-1,63
 244 920 244 920 273 895 c 128,-1,64
 302 870 302 870 341 853.5 c 128,-1,65
 380 837 380 837 425 823 c 1,66,-1
 425 1244 l 1,67,68
 366 1240 366 1240 325 1223.5 c 128,-1,69
 284 1207 284 1207 259 1181 c 128,-1,70
 234 1155 234 1155 223 1121 c 128,-1,71
 212 1087 212 1087 212 1048 c 0,61,62
EndSplineSet
EndChar

StartChar: percent
Encoding: 37 37 8
Width: 1493
GlyphClass: 2
Flags: W
LayerCount: 2
Fore
SplineSet
1433 434 m 0,0,1
 1433 309 1433 309 1412 223.5 c 128,-1,2
 1391 138 1391 138 1355.5 85.5 c 128,-1,3
 1320 33 1320 33 1272.5 10.5 c 128,-1,4
 1225 -12 1225 -12 1171 -12 c 256,5,6
 1117 -12 1117 -12 1069.5 10.5 c 128,-1,7
 1022 33 1022 33 987.5 85 c 128,-1,8
 953 137 953 137 933 222.5 c 128,-1,9
 913 308 913 308 913 434 c 0,10,11
 913 567 913 567 932.5 654 c 128,-1,12
 952 741 952 741 987 792.5 c 128,-1,13
 1022 844 1022 844 1070 864.5 c 128,-1,14
 1118 885 1118 885 1174 885 c 0,15,16
 1228 885 1228 885 1275 864.5 c 128,-1,17
 1322 844 1322 844 1357 792.5 c 128,-1,18
 1392 741 1392 741 1412.5 654 c 128,-1,19
 1433 567 1433 567 1433 434 c 0,0,1
432 0 m 1,20,-1
 305 0 l 1,21,-1
 1061 1409 l 1,22,-1
 1190 1409 l 1,23,-1
 432 0 l 1,20,-1
323 1421 m 0,24,25
 375 1421 375 1421 422 1400.5 c 128,-1,26
 469 1380 469 1380 504 1329 c 128,-1,27
 539 1278 539 1278 559.5 1192 c 128,-1,28
 580 1106 580 1106 580 975 c 0,29,30
 580 849 580 849 559.5 763 c 128,-1,31
 539 677 539 677 504 623.5 c 128,-1,32
 469 570 469 570 421.5 547 c 128,-1,33
 374 524 374 524 320 524 c 0,34,35
 265 524 265 524 217.5 547 c 128,-1,36
 170 570 170 570 135 623 c 128,-1,37
 100 676 100 676 80 762 c 128,-1,38
 60 848 60 848 60 975 c 0,39,40
 60 1106 60 1106 80 1192 c 128,-1,41
 100 1278 100 1278 135.5 1329 c 128,-1,42
 171 1380 171 1380 219 1400.5 c 128,-1,43
 267 1421 267 1421 323 1421 c 0,24,25
1312 434 m 0,44,45
 1312 533 1312 533 1303 598.5 c 128,-1,46
 1294 664 1294 664 1276.5 703 c 128,-1,47
 1259 742 1259 742 1233 758 c 128,-1,48
 1207 774 1207 774 1174 774 c 0,49,50
 1140 774 1140 774 1113.5 757.5 c 128,-1,51
 1087 741 1087 741 1069 702 c 128,-1,52
 1051 663 1051 663 1042 597.5 c 128,-1,53
 1033 532 1033 532 1033 434 c 0,54,55
 1033 339 1033 339 1042.5 275 c 128,-1,56
 1052 211 1052 211 1069.5 171.5 c 128,-1,57
 1087 132 1087 132 1113 115 c 128,-1,58
 1139 98 1139 98 1172 98 c 0,59,60
 1204 98 1204 98 1230 115 c 128,-1,61
 1256 132 1256 132 1274 171.5 c 128,-1,62
 1292 211 1292 211 1302 275 c 128,-1,63
 1312 339 1312 339 1312 434 c 0,44,45
459 975 m 0,64,65
 459 1073 459 1073 450 1138 c 128,-1,66
 441 1203 441 1203 424 1242 c 128,-1,67
 407 1281 407 1281 381.5 1297 c 128,-1,68
 356 1313 356 1313 323 1313 c 0,69,70
 288 1313 288 1313 261 1296.5 c 128,-1,71
 234 1280 234 1280 216 1241 c 128,-1,72
 198 1202 198 1202 189 1137 c 128,-1,73
 180 1072 180 1072 180 975 c 0,74,75
 180 880 180 880 189.5 815 c 128,-1,76
 199 750 199 750 216.5 710.5 c 128,-1,77
 234 671 234 671 260.5 654 c 128,-1,78
 287 637 287 637 321 637 c 0,79,80
 352 637 352 637 377.5 654 c 128,-1,81
 403 671 403 671 421 710.5 c 128,-1,82
 439 750 439 750 449 815 c 128,-1,83
 459 880 459 880 459 975 c 0,64,65
EndSplineSet
EndChar

StartChar: ampersand
Encoding: 38 38 9
Width: 1120
GlyphClass: 2
Flags: W
LayerCount: 2
Fore
SplineSet
978 -12 m 0,0,1
 899 -12 899 -12 840 21 c 128,-1,2
 781 54 781 54 734 115 c 1,3,4
 709 89 709 89 678 65 c 128,-1,5
 647 41 647 41 609 22 c 128,-1,6
 571 3 571 3 526 -8.5 c 128,-1,7
 481 -20 481 -20 429 -20 c 0,8,9
 333 -20 333 -20 263 10 c 128,-1,10
 193 40 193 40 147.5 92.5 c 128,-1,11
 102 145 102 145 80.5 216.5 c 128,-1,12
 59 288 59 288 59 371 c 0,13,14
 59 450 59 450 80 514.5 c 128,-1,15
 101 579 101 579 138 631.5 c 128,-1,16
 175 684 175 684 227 725.5 c 128,-1,17
 279 767 279 767 340 800 c 1,18,19
 325 834 325 834 313.5 872.5 c 128,-1,20
 302 911 302 911 293 950 c 128,-1,21
 284 989 284 989 279 1028 c 128,-1,22
 274 1067 274 1067 274 1102 c 0,23,24
 274 1168 274 1168 290.5 1225.5 c 128,-1,25
 307 1283 307 1283 341.5 1325.5 c 128,-1,26
 376 1368 376 1368 430.5 1392.5 c 128,-1,27
 485 1417 485 1417 562 1417 c 0,28,29
 622 1417 622 1417 672 1398 c 128,-1,30
 722 1379 722 1379 759 1343 c 128,-1,31
 796 1307 796 1307 816.5 1254 c 128,-1,32
 837 1201 837 1201 837 1133 c 0,33,34
 837 1058 837 1058 810 999.5 c 128,-1,35
 783 941 783 941 737 895 c 128,-1,36
 691 849 691 849 630.5 811.5 c 128,-1,37
 570 774 570 774 502 741 c 1,38,39
 553 627 553 627 612.5 526.5 c 128,-1,40
 672 426 672 426 742 329 c 1,41,42
 792 419 792 419 825 518.5 c 128,-1,43
 858 618 858 618 882 739 c 1,44,-1
 1001 696 l 1,45,46
 972 557 972 557 928.5 443.5 c 128,-1,47
 885 330 885 330 827 227 c 1,48,49
 870 173 870 173 914 151 c 128,-1,50
 958 129 958 129 998 129 c 0,51,52
 1024 129 1024 129 1048 132.5 c 128,-1,53
 1072 136 1072 136 1094 145 c 1,54,-1
 1094 10 l 1,55,56
 1071 -1 1071 -1 1040 -6.5 c 128,-1,57
 1009 -12 1009 -12 978 -12 c 0,0,1
712 1133 m 0,58,59
 712 1170 712 1170 701 1200 c 128,-1,60
 690 1230 690 1230 670.5 1251.5 c 128,-1,61
 651 1273 651 1273 622.5 1284.5 c 128,-1,62
 594 1296 594 1296 560 1296 c 0,63,64
 481 1296 481 1296 440 1244.5 c 128,-1,65
 399 1193 399 1193 399 1102 c 0,66,67
 399 1043 399 1043 414.5 978.5 c 128,-1,68
 430 914 430 914 453 858 c 1,69,70
 506 884 506 884 553.5 911.5 c 128,-1,71
 601 939 601 939 636.5 971.5 c 128,-1,72
 672 1004 672 1004 692 1043.5 c 128,-1,73
 712 1083 712 1083 712 1133 c 0,58,59
652 217 m 1,74,75
 579 322 579 322 511.5 437 c 128,-1,76
 444 552 444 552 390 674 c 1,77,78
 297 626 297 626 247 552 c 128,-1,79
 197 478 197 478 197 373 c 0,80,81
 197 318 197 318 211 270.5 c 128,-1,82
 225 223 225 223 255 187.5 c 128,-1,83
 285 152 285 152 329.5 131.5 c 128,-1,84
 374 111 374 111 434 111 c 0,85,86
 470 111 470 111 502.5 120.5 c 128,-1,87
 535 130 535 130 562.5 145 c 128,-1,88
 590 160 590 160 613 179 c 128,-1,89
 636 198 636 198 652 217 c 1,74,75
EndSplineSet
EndChar

StartChar: quotesingle
Encoding: 39 39 10
Width: 322
GlyphClass: 2
Flags: W
LayerCount: 2
Fore
SplineSet
219 966 m 1,0,-1
 103 966 l 1,1,-1
 86 1409 l 1,2,-1
 237 1409 l 1,3,-1
 219 966 l 1,0,-1
EndSplineSet
EndChar

StartChar: parenleft
Encoding: 40 40 11
Width: 559
GlyphClass: 2
Flags: W
LayerCount: 2
Fore
SplineSet
104 532 m 2,0,1
 104 671 104 671 121.5 798 c 128,-1,2
 139 925 139 925 175.5 1042 c 128,-1,3
 212 1159 212 1159 269.5 1269 c 128,-1,4
 327 1379 327 1379 407 1484 c 1,5,-1
 549 1484 l 1,6,7
 472 1379 472 1379 416 1268.5 c 128,-1,8
 360 1158 360 1158 324 1040.5 c 128,-1,9
 288 923 288 923 270 796 c 128,-1,10
 252 669 252 669 252 530 c 256,11,12
 252 391 252 391 270 264 c 128,-1,13
 288 137 288 137 324 19 c 128,-1,14
 360 -99 360 -99 416 -209 c 128,-1,15
 472 -319 472 -319 549 -424 c 1,16,-1
 407 -424 l 1,17,18
 327 -319 327 -319 269.5 -209 c 128,-1,19
 212 -99 212 -99 175.5 18 c 128,-1,20
 139 135 139 135 121.5 261.5 c 128,-1,21
 104 388 104 388 104 528 c 2,22,-1
 104 532 l 2,0,1
EndSplineSet
EndChar

StartChar: parenright
Encoding: 41 41 12
Width: 559
GlyphClass: 2
Flags: W
LayerCount: 2
Fore
SplineSet
455 528 m 2,0,1
 455 388 455 388 437.5 261.5 c 128,-1,2
 420 135 420 135 383.5 18 c 128,-1,3
 347 -99 347 -99 289.5 -209 c 128,-1,4
 232 -319 232 -319 152 -424 c 1,5,-1
 10 -424 l 1,6,7
 87 -319 87 -319 143 -209 c 128,-1,8
 199 -99 199 -99 235 19 c 128,-1,9
 271 137 271 137 289 264 c 128,-1,10
 307 391 307 391 307 530 c 256,11,12
 307 669 307 669 289 796 c 128,-1,13
 271 923 271 923 235 1040.5 c 128,-1,14
 199 1158 199 1158 143 1268.5 c 128,-1,15
 87 1379 87 1379 10 1484 c 1,16,-1
 152 1484 l 1,17,18
 232 1379 232 1379 289.5 1269 c 128,-1,19
 347 1159 347 1159 383.5 1042 c 128,-1,20
 420 925 420 925 437.5 798 c 128,-1,21
 455 671 455 671 455 532 c 2,22,-1
 455 528 l 2,0,1
EndSplineSet
EndChar

StartChar: asterisk
Encoding: 42 42 13
Width: 653
GlyphClass: 2
Flags: W
LayerCount: 2
Fore
SplineSet
374 1114 m 1,0,-1
 590 1217 l 1,1,-1
 627 1085 l 1,2,-1
 396 1012 l 1,3,-1
 547 762 l 1,4,-1
 450 690 l 1,5,-1
 327 948 l 1,6,-1
 199 692 l 1,7,-1
 102 764 l 1,8,-1
 256 1012 l 1,9,-1
 27 1085 l 1,10,-1
 64 1219 l 1,11,-1
 283 1112 l 1,12,-1
 273 1409 l 1,13,-1
 384 1409 l 1,14,-1
 374 1114 l 1,0,-1
EndSplineSet
EndChar

StartChar: plus
Encoding: 43 43 14
Width: 981
GlyphClass: 2
Flags: W
LayerCount: 2
Fore
SplineSet
550 608 m 1,0,-1
 550 180 l 1,1,-1
 430 180 l 1,2,-1
 430 608 l 1,3,-1
 82 608 l 1,4,-1
 82 754 l 1,5,-1
 430 754 l 1,6,-1
 430 1182 l 1,7,-1
 550 1182 l 1,8,-1
 550 754 l 1,9,-1
 898 754 l 1,10,-1
 898 608 l 1,11,-1
 550 608 l 1,0,-1
EndSplineSet
EndChar

StartChar: comma
Encoding: 44 44 15
Width: 467
GlyphClass: 2
Flags: W
LayerCount: 2
Fore
SplineSet
316 219 m 1,0,-1
 316 51 l 2,1,2
 316 -2 316 -2 312.5 -45.5 c 128,-1,3
 309 -89 309 -89 300.5 -126.5 c 128,-1,4
 292 -164 292 -164 280 -197 c 128,-1,5
 268 -230 268 -230 252 -262 c 1,6,-1
 151 -262 l 1,7,8
 188 -197 188 -197 208 -131 c 128,-1,9
 228 -65 228 -65 228 0 c 1,10,-1
 156 0 l 1,11,-1
 156 219 l 1,12,-1
 316 219 l 1,0,-1
EndSplineSet
EndChar

StartChar: hyphen
Encoding: 45 45 16
AltUni2: 0000ad.ffffffff.0 0000ad.ffffffff.0 0000ad.ffffffff.0 0000ad.ffffffff.0
Width: 559
GlyphClass: 2
Flags: W
LayerCount: 2
Fore
SplineSet
75 464 m 1,0,-1
 75 624 l 1,1,-1
 484 624 l 1,2,-1
 484 464 l 1,3,-1
 75 464 l 1,0,-1
EndSplineSet
EndChar

StartChar: period
Encoding: 46 46 17
Width: 467
GlyphClass: 2
Flags: W
LayerCount: 2
Fore
SplineSet
153 0 m 1,0,-1
 153 219 l 1,1,-1
 314 219 l 1,2,-1
 314 0 l 1,3,-1
 153 0 l 1,0,-1
EndSplineSet
EndChar

StartChar: slash
Encoding: 47 47 18
Width: 467
GlyphClass: 2
Flags: W
LayerCount: 2
Fore
SplineSet
0 -20 m 1,0,-1
 337 1484 l 1,1,-1
 467 1484 l 1,2,-1
 133 -20 l 1,3,-1
 0 -20 l 1,0,-1
EndSplineSet
EndChar

StartChar: zero
Encoding: 48 48 19
Width: 934
GlyphClass: 2
Flags: W
LayerCount: 2
Fore
SplineSet
868 705 m 0,0,1
 868 502 868 502 836.5 363.5 c 128,-1,2
 805 225 805 225 750.5 139.5 c 128,-1,3
 696 54 696 54 622.5 17 c 128,-1,4
 549 -20 549 -20 465 -20 c 128,-1,5
 381 -20 381 -20 308 17 c 128,-1,6
 235 54 235 54 181 139 c 128,-1,7
 127 224 127 224 96.5 362.5 c 128,-1,8
 66 501 66 501 66 705 c 0,9,10
 66 918 66 918 96.5 1057.5 c 128,-1,11
 127 1197 127 1197 181 1280 c 128,-1,12
 235 1363 235 1363 309 1396.5 c 128,-1,13
 383 1430 383 1430 470 1430 c 0,14,15
 553 1430 553 1430 625.5 1396.5 c 128,-1,16
 698 1363 698 1363 752 1280 c 128,-1,17
 806 1197 806 1197 837 1057.5 c 128,-1,18
 868 918 868 918 868 705 c 0,0,1
718 705 m 0,19,20
 718 873 718 873 702 984.5 c 128,-1,21
 686 1096 686 1096 654 1162.5 c 128,-1,22
 622 1229 622 1229 575.5 1256.5 c 128,-1,23
 529 1284 529 1284 470 1284 c 0,24,25
 408 1284 408 1284 360 1256 c 128,-1,26
 312 1228 312 1228 280 1161.5 c 128,-1,27
 248 1095 248 1095 231.5 983.5 c 128,-1,28
 215 872 215 872 215 705 c 0,29,30
 215 543 215 543 231.5 432 c 128,-1,31
 248 321 248 321 280.5 253.5 c 128,-1,32
 313 186 313 186 360 156.5 c 128,-1,33
 407 127 407 127 467 127 c 0,34,35
 525 127 525 127 571.5 156.5 c 128,-1,36
 618 186 618 186 650.5 253.5 c 128,-1,37
 683 321 683 321 700.5 432 c 128,-1,38
 718 543 718 543 718 705 c 0,19,20
EndSplineSet
EndChar

StartChar: one
Encoding: 49 49 20
Width: 934
GlyphClass: 2
Flags: W
LayerCount: 2
Fore
SplineSet
128 0 m 1,0,-1
 128 153 l 1,1,-1
 422 153 l 1,2,-1
 422 1237 l 1,3,-1
 162 1010 l 1,4,-1
 162 1180 l 1,5,-1
 435 1409 l 1,6,-1
 571 1409 l 1,7,-1
 571 153 l 1,8,-1
 852 153 l 1,9,-1
 852 0 l 1,10,-1
 128 0 l 1,0,-1
EndSplineSet
EndChar

StartChar: two
Encoding: 50 50 21
Width: 934
GlyphClass: 2
Flags: W
LayerCount: 2
Fore
SplineSet
84 0 m 1,0,-1
 84 127 l 1,1,2
 126 244 126 244 186.5 333.5 c 128,-1,3
 247 423 247 423 313.5 495.5 c 128,-1,4
 380 568 380 568 445 630 c 128,-1,5
 510 692 510 692 562.5 754 c 128,-1,6
 615 816 615 816 647.5 884 c 128,-1,7
 680 952 680 952 680 1038 c 0,8,9
 680 1098 680 1098 665 1143.5 c 128,-1,10
 650 1189 650 1189 622.5 1220 c 128,-1,11
 595 1251 595 1251 556 1266.5 c 128,-1,12
 517 1282 517 1282 469 1282 c 0,13,14
 425 1282 425 1282 386 1267 c 128,-1,15
 347 1252 347 1252 316.5 1222 c 128,-1,16
 286 1192 286 1192 267 1147.5 c 128,-1,17
 248 1103 248 1103 242 1044 c 1,18,-1
 91 1061 l 1,19,20
 98 1137 98 1137 125.5 1204 c 128,-1,21
 153 1271 153 1271 200.5 1321.5 c 128,-1,22
 248 1372 248 1372 314.5 1401 c 128,-1,23
 381 1430 381 1430 469 1430 c 0,24,25
 555 1430 555 1430 622.5 1405 c 128,-1,26
 690 1380 690 1380 736 1331 c 128,-1,27
 782 1282 782 1282 807 1210 c 128,-1,28
 832 1138 832 1138 832 1044 c 0,29,30
 832 973 832 973 811 909 c 128,-1,31
 790 845 790 845 755 787 c 128,-1,32
 720 729 720 729 674 675 c 128,-1,33
 628 621 628 621 578 570 c 2,34,-1
 477 468 l 2,35,36
 426 417 426 417 381.5 366 c 128,-1,37
 337 315 337 315 302 262.5 c 128,-1,38
 267 210 267 210 247 153 c 1,39,-1
 850 153 l 1,40,-1
 850 0 l 1,41,-1
 84 0 l 1,0,-1
EndSplineSet
EndChar

StartChar: three
Encoding: 51 51 22
Width: 934
GlyphClass: 2
Flags: W
LayerCount: 2
Fore
SplineSet
860 389 m 0,0,1
 860 292 860 292 834.5 216 c 128,-1,2
 809 140 809 140 759 87.5 c 128,-1,3
 709 35 709 35 636 7.5 c 128,-1,4
 563 -20 563 -20 468 -20 c 0,5,6
 361 -20 361 -20 287.5 12.5 c 128,-1,7
 214 45 214 45 166.5 98.5 c 128,-1,8
 119 152 119 152 95 220.5 c 128,-1,9
 71 289 71 289 64 362 c 1,10,-1
 216 379 l 1,11,12
 223 323 223 323 240.5 277 c 128,-1,13
 258 231 258 231 288.5 198 c 128,-1,14
 319 165 319 165 363.5 147 c 128,-1,15
 408 129 408 129 468 129 c 0,16,17
 580 129 580 129 643.5 196 c 128,-1,18
 707 263 707 263 707 395 c 0,19,20
 707 473 707 473 678.5 520.5 c 128,-1,21
 650 568 650 568 608 594.5 c 128,-1,22
 566 621 566 621 516.5 630 c 128,-1,23
 467 639 467 639 425 639 c 2,24,-1
 341 639 l 1,25,-1
 341 795 l 1,26,-1
 421 795 l 2,27,28
 463 795 463 795 508.5 805.5 c 128,-1,29
 554 816 554 816 591 843.5 c 128,-1,30
 628 871 628 871 652.5 918 c 128,-1,31
 677 965 677 965 677 1038 c 0,32,33
 677 1151 677 1151 622 1216.5 c 128,-1,34
 567 1282 567 1282 460 1282 c 0,35,36
 362 1282 362 1282 302 1221 c 128,-1,37
 242 1160 242 1160 232 1049 c 1,38,-1
 84 1063 l 1,39,40
 93 1156 93 1156 125.5 1225 c 128,-1,41
 158 1294 158 1294 208.5 1339.5 c 128,-1,42
 259 1385 259 1385 324 1407.5 c 128,-1,43
 389 1430 389 1430 462 1430 c 0,44,45
 559 1430 559 1430 628.5 1400.5 c 128,-1,46
 698 1371 698 1371 742 1320.5 c 128,-1,47
 786 1270 786 1270 807 1202 c 128,-1,48
 828 1134 828 1134 828 1057 c 0,49,50
 828 995 828 995 814 941 c 128,-1,51
 800 887 800 887 770.5 844 c 128,-1,52
 741 801 741 801 695.5 770 c 128,-1,53
 650 739 650 739 586 723 c 1,54,-1
 586 719 l 1,55,56
 656 710 656 710 707.5 680.5 c 128,-1,57
 759 651 759 651 793 607 c 128,-1,58
 827 563 827 563 843.5 507 c 128,-1,59
 860 451 860 451 860 389 c 0,0,1
EndSplineSet
EndChar

StartChar: four
Encoding: 52 52 23
Width: 934
GlyphClass: 2
Flags: W
LayerCount: 2
Fore
SplineSet
722 319 m 1,0,-1
 722 0 l 1,1,-1
 583 0 l 1,2,-1
 583 319 l 1,3,-1
 39 319 l 1,4,-1
 39 459 l 1,5,-1
 567 1409 l 1,6,-1
 722 1409 l 1,7,-1
 722 461 l 1,8,-1
 885 461 l 1,9,-1
 885 319 l 1,10,-1
 722 319 l 1,0,-1
583 1206 m 1,11,12
 581 1201 581 1201 574 1186 c 2,13,-1
 560 1154 l 1,14,-1
 544 1118 l 2,15,16
 535 1099 535 1099 528 1087 c 2,17,-1
 232 555 l 2,18,19
 228 547 228 547 220 534 c 2,20,-1
 204 508 l 1,21,-1
 188 481 l 2,22,23
 180 468 180 468 175 461 c 1,24,-1
 583 461 l 1,25,-1
 583 1206 l 1,11,12
EndSplineSet
EndChar

StartChar: five
Encoding: 53 53 24
Width: 934
GlyphClass: 2
Flags: W
LayerCount: 2
Fore
SplineSet
863 459 m 0,0,1
 863 353 863 353 837 265 c 128,-1,2
 811 177 811 177 759.5 113.5 c 128,-1,3
 708 50 708 50 631 15 c 128,-1,4
 554 -20 554 -20 453 -20 c 0,5,6
 362 -20 362 -20 294.5 6 c 128,-1,7
 227 32 227 32 180.5 77.5 c 128,-1,8
 134 123 134 123 106.5 184 c 128,-1,9
 79 245 79 245 67 315 c 1,10,-1
 216 336 l 1,11,12
 225 296 225 296 241.5 258.5 c 128,-1,13
 258 221 258 221 286.5 191.5 c 128,-1,14
 315 162 315 162 356.5 144.5 c 128,-1,15
 398 127 398 127 457 127 c 0,16,17
 514 127 514 127 561 148.5 c 128,-1,18
 608 170 608 170 641 212 c 128,-1,19
 674 254 674 254 692 315 c 128,-1,20
 710 376 710 376 710 455 c 0,21,22
 710 520 710 520 693 574.5 c 128,-1,23
 676 629 676 629 644 668.5 c 128,-1,24
 612 708 612 708 565.5 730 c 128,-1,25
 519 752 519 752 460 752 c 0,26,27
 423 752 423 752 392 744 c 128,-1,28
 361 736 361 736 334.5 722 c 128,-1,29
 308 708 308 708 286 689.5 c 128,-1,30
 264 671 264 671 245 651 c 1,31,-1
 101 651 l 1,32,-1
 139 1409 l 1,33,-1
 796 1409 l 1,34,-1
 796 1256 l 1,35,-1
 274 1256 l 1,36,-1
 252 809 l 1,37,38
 291 846 291 846 350 872.5 c 128,-1,39
 409 899 409 899 490 899 c 0,40,41
 576 899 576 899 645 867 c 128,-1,42
 714 835 714 835 762.5 776.5 c 128,-1,43
 811 718 811 718 837 637 c 128,-1,44
 863 556 863 556 863 459 c 0,0,1
EndSplineSet
EndChar

StartChar: six
Encoding: 54 54 25
Width: 934
GlyphClass: 2
Flags: W
LayerCount: 2
Fore
SplineSet
860 461 m 0,0,1
 860 355 860 355 836 266.5 c 128,-1,2
 812 178 812 178 765 114.5 c 128,-1,3
 718 51 718 51 648 15.5 c 128,-1,4
 578 -20 578 -20 487 -20 c 0,5,6
 386 -20 386 -20 310.5 27 c 128,-1,7
 235 74 235 74 185 162.5 c 128,-1,8
 135 251 135 251 110 379.5 c 128,-1,9
 85 508 85 508 85 672 c 0,10,11
 85 860 85 860 113.5 1002 c 128,-1,12
 142 1144 142 1144 195 1239 c 128,-1,13
 248 1334 248 1334 325 1382 c 128,-1,14
 402 1430 402 1430 499 1430 c 0,15,16
 558 1430 558 1430 609.5 1415 c 128,-1,17
 661 1400 661 1400 703 1366.5 c 128,-1,18
 745 1333 745 1333 777 1278 c 128,-1,19
 809 1223 809 1223 828 1143 c 1,20,-1
 687 1112 l 1,21,22
 664 1203 664 1203 613.5 1243.5 c 128,-1,23
 563 1284 563 1284 497 1284 c 0,24,25
 436 1284 436 1284 387 1249 c 128,-1,26
 338 1214 338 1214 303.5 1144.5 c 128,-1,27
 269 1075 269 1075 250.5 970 c 128,-1,28
 232 865 232 865 232 725 c 1,29,30
 272 816 272 816 345 863.5 c 128,-1,31
 418 911 418 911 513 911 c 0,32,33
 592 911 592 911 655.5 880 c 128,-1,34
 719 849 719 849 764.5 790.5 c 128,-1,35
 810 732 810 732 835 648.5 c 128,-1,36
 860 565 860 565 860 461 c 0,0,1
710 453 m 0,37,38
 710 526 710 526 695.5 585 c 128,-1,39
 681 644 681 644 651.5 685.5 c 128,-1,40
 622 727 622 727 578.5 749.5 c 128,-1,41
 535 772 535 772 477 772 c 0,42,43
 437 772 437 772 396 757.5 c 128,-1,44
 355 743 355 743 322 710.5 c 128,-1,45
 289 678 289 678 268 625 c 128,-1,46
 247 572 247 572 247 496 c 0,47,48
 247 418 247 418 263.5 350.5 c 128,-1,49
 280 283 280 283 310.5 233 c 128,-1,50
 341 183 341 183 384.5 154 c 128,-1,51
 428 125 428 125 482 125 c 0,52,53
 535 125 535 125 577.5 147.5 c 128,-1,54
 620 170 620 170 649.5 212.5 c 128,-1,55
 679 255 679 255 694.5 316 c 128,-1,56
 710 377 710 377 710 453 c 0,37,38
EndSplineSet
EndChar

StartChar: seven
Encoding: 55 55 26
Width: 934
GlyphClass: 2
Flags: W
LayerCount: 2
Fore
SplineSet
850 1263 m 1,0,1
 763 1101 763 1101 690 951.5 c 128,-1,2
 617 802 617 802 564.5 650.5 c 128,-1,3
 512 499 512 499 482.5 339.5 c 128,-1,4
 453 180 453 180 453 0 c 1,5,-1
 299 0 l 1,6,7
 299 169 299 169 332 331.5 c 128,-1,8
 365 494 365 494 420.5 650.5 c 128,-1,9
 476 807 476 807 550 958 c 128,-1,10
 624 1109 624 1109 707 1256 c 1,11,-1
 86 1256 l 1,12,-1
 86 1409 l 1,13,-1
 850 1409 l 1,14,-1
 850 1263 l 1,0,1
EndSplineSet
EndChar

StartChar: eight
Encoding: 56 56 27
Width: 934
GlyphClass: 2
Flags: W
LayerCount: 2
Fore
SplineSet
861 393 m 0,0,1
 861 303 861 303 837.5 227.5 c 128,-1,2
 814 152 814 152 766 97 c 128,-1,3
 718 42 718 42 643.5 11 c 128,-1,4
 569 -20 569 -20 467 -20 c 256,5,6
 365 -20 365 -20 291 11 c 128,-1,7
 217 42 217 42 168.5 96.5 c 128,-1,8
 120 151 120 151 96.5 226.5 c 128,-1,9
 73 302 73 302 73 391 c 0,10,11
 73 468 73 468 92.5 528 c 128,-1,12
 112 588 112 588 144 631.5 c 128,-1,13
 176 675 176 675 217.5 701.5 c 128,-1,14
 259 728 259 728 303 737 c 1,15,-1
 303 741 l 1,16,17
 255 755 255 755 217 786 c 128,-1,18
 179 817 179 817 153 860.5 c 128,-1,19
 127 904 127 904 113.5 957 c 128,-1,20
 100 1010 100 1010 100 1069 c 0,21,22
 100 1143 100 1143 123.5 1208.5 c 128,-1,23
 147 1274 147 1274 193 1323.5 c 128,-1,24
 239 1373 239 1373 307 1401.5 c 128,-1,25
 375 1430 375 1430 464 1430 c 0,26,27
 558 1430 558 1430 627.5 1401 c 128,-1,28
 697 1372 697 1372 742.5 1322.5 c 128,-1,29
 788 1273 788 1273 810 1207 c 128,-1,30
 832 1141 832 1141 832 1067 c 0,31,32
 832 1009 832 1009 818.5 956 c 128,-1,33
 805 903 805 903 779.5 859.5 c 128,-1,34
 754 816 754 816 715.5 785.5 c 128,-1,35
 677 755 677 755 627 743 c 1,36,-1
 627 739 l 1,37,38
 677 729 677 729 720 702.5 c 128,-1,39
 763 676 763 676 794 632.5 c 128,-1,40
 825 589 825 589 843 529 c 128,-1,41
 861 469 861 469 861 393 c 0,0,1
679 1057 m 0,42,43
 679 1110 679 1110 668 1154 c 128,-1,44
 657 1198 657 1198 631.5 1229.5 c 128,-1,45
 606 1261 606 1261 565 1278.5 c 128,-1,46
 524 1296 524 1296 464 1296 c 0,47,48
 406 1296 406 1296 366 1278.5 c 128,-1,49
 326 1261 326 1261 300 1229.5 c 128,-1,50
 274 1198 274 1198 262.5 1154 c 128,-1,51
 251 1110 251 1110 251 1057 c 0,52,53
 251 1015 251 1015 260 971 c 128,-1,54
 269 927 269 927 293 891 c 128,-1,55
 317 855 317 855 358.5 832 c 128,-1,56
 400 809 400 809 466 809 c 0,57,58
 536 809 536 809 578 832 c 128,-1,59
 620 855 620 855 642.5 891 c 128,-1,60
 665 927 665 927 672 971 c 128,-1,61
 679 1015 679 1015 679 1057 c 0,42,43
708 410 m 0,62,63
 708 461 708 461 696.5 508.5 c 128,-1,64
 685 556 685 556 657 592.5 c 128,-1,65
 629 629 629 629 582 651.5 c 128,-1,66
 535 674 535 674 464 674 c 0,67,68
 399 674 399 674 353.5 651.5 c 128,-1,69
 308 629 308 629 280 592 c 128,-1,70
 252 555 252 555 239 506.5 c 128,-1,71
 226 458 226 458 226 406 c 0,72,73
 226 341 226 341 239 287.5 c 128,-1,74
 252 234 252 234 280.5 195.5 c 128,-1,75
 309 157 309 157 356 136 c 128,-1,76
 403 115 403 115 469 115 c 0,77,78
 536 115 536 115 582 136 c 128,-1,79
 628 157 628 157 656 195.5 c 128,-1,80
 684 234 684 234 696 288.5 c 128,-1,81
 708 343 708 343 708 410 c 0,62,63
EndSplineSet
EndChar

StartChar: nine
Encoding: 57 57 28
Width: 934
GlyphClass: 2
Flags: W
LayerCount: 2
Fore
SplineSet
854 733 m 0,0,1
 854 545 854 545 825 403.5 c 128,-1,2
 796 262 796 262 742 168 c 128,-1,3
 688 74 688 74 610.5 27 c 128,-1,4
 533 -20 533 -20 436 -20 c 0,5,6
 370 -20 370 -20 316.5 -3.5 c 128,-1,7
 263 13 263 13 221.5 48 c 128,-1,8
 180 83 180 83 150 139 c 256,9,10
 120 195 120 195 102 274 c 1,11,-1
 244 301 l 1,12,13
 267 210 267 210 315.5 167.5 c 128,-1,14
 364 125 364 125 439 125 c 0,15,16
 499 125 499 125 548.5 159.5 c 128,-1,17
 598 194 598 194 632.5 263 c 128,-1,18
 667 332 667 332 687 436 c 0,19,20
 706 540 706 540 708 680 c 1,21,22
 691 633 691 633 661 596 c 128,-1,23
 631 559 631 559 593 533.5 c 128,-1,24
 555 508 555 508 511 494.5 c 128,-1,25
 467 481 467 481 421 481 c 0,26,27
 342 481 342 481 279 515.5 c 128,-1,28
 216 550 216 550 171.5 612 c 128,-1,29
 127 674 127 674 103 761.5 c 128,-1,30
 79 849 79 849 79 956 c 0,31,32
 79 1065 79 1065 104.5 1153 c 128,-1,33
 130 1241 130 1241 179.5 1302.5 c 128,-1,34
 229 1364 229 1364 300.5 1397 c 128,-1,35
 372 1430 372 1430 463 1430 c 0,36,37
 656 1430 656 1430 755 1256 c 128,-1,38
 854 1082 854 1082 854 733 c 0,0,1
694 907 m 0,39,40
 694 985 694 985 678.5 1054 c 128,-1,41
 663 1123 663 1123 633.5 1174 c 128,-1,42
 604 1225 604 1225 560 1254.5 c 128,-1,43
 516 1284 516 1284 458 1284 c 0,44,45
 405 1284 405 1284 362.5 1261 c 128,-1,46
 320 1238 320 1238 290.5 1195.5 c 128,-1,47
 261 1153 261 1153 245 1092 c 128,-1,48
 229 1031 229 1031 229 956 c 0,49,50
 229 885 229 885 243 824 c 128,-1,51
 257 763 257 763 286 718.5 c 128,-1,52
 315 674 315 674 357.5 648.5 c 128,-1,53
 400 623 400 623 457 623 c 0,54,55
 498 623 498 623 540 640 c 128,-1,56
 582 657 582 657 616 692 c 128,-1,57
 650 727 650 727 672 780.5 c 128,-1,58
 694 834 694 834 694 907 c 0,39,40
EndSplineSet
EndChar

StartChar: colon
Encoding: 58 58 29
Width: 467
GlyphClass: 2
Flags: W
LayerCount: 2
Fore
SplineSet
153 875 m 1,0,-1
 153 1082 l 1,1,-1
 314 1082 l 1,2,-1
 314 875 l 1,3,-1
 153 875 l 1,0,-1
153 0 m 1,4,-1
 153 207 l 1,5,-1
 314 207 l 1,6,-1
 314 0 l 1,7,-1
 153 0 l 1,4,-1
EndSplineSet
EndChar

StartChar: semicolon
Encoding: 59 59 30
AltUni2: 00037e.ffffffff.0 00037e.ffffffff.0 00037e.ffffffff.0 00037e.ffffffff.0
Width: 467
GlyphClass: 2
Flags: W
LayerCount: 2
Fore
SplineSet
316 207 m 1,0,-1
 316 51 l 2,1,2
 316 -2 316 -2 312.5 -45.5 c 128,-1,3
 309 -89 309 -89 300.5 -126.5 c 128,-1,4
 292 -164 292 -164 280 -197 c 128,-1,5
 268 -230 268 -230 252 -262 c 1,6,-1
 151 -262 l 1,7,8
 188 -197 188 -197 208 -131 c 128,-1,9
 228 -65 228 -65 228 0 c 1,10,-1
 156 0 l 1,11,-1
 156 207 l 1,12,-1
 316 207 l 1,0,-1
156 875 m 1,13,-1
 156 1082 l 1,14,-1
 316 1082 l 1,15,-1
 316 875 l 1,16,-1
 156 875 l 1,13,-1
EndSplineSet
EndChar

StartChar: less
Encoding: 60 60 31
Width: 981
GlyphClass: 2
Flags: W
LayerCount: 2
Fore
SplineSet
83 571 m 1,0,-1
 83 776 l 1,1,-1
 899 1194 l 1,2,-1
 899 1040 l 1,3,-1
 195 674 l 1,4,-1
 899 307 l 1,5,-1
 899 154 l 1,6,-1
 83 571 l 1,0,-1
EndSplineSet
EndChar

StartChar: equal
Encoding: 61 61 32
Width: 981
GlyphClass: 2
Flags: W
LayerCount: 2
Fore
SplineSet
82 856 m 1,0,-1
 82 1004 l 1,1,-1
 898 1004 l 1,2,-1
 898 856 l 1,3,-1
 82 856 l 1,0,-1
82 344 m 1,4,-1
 82 492 l 1,5,-1
 898 492 l 1,6,-1
 898 344 l 1,7,-1
 82 344 l 1,4,-1
EndSplineSet
EndChar

StartChar: greater
Encoding: 62 62 33
Width: 981
GlyphClass: 2
Flags: W
LayerCount: 2
Fore
SplineSet
83 154 m 1,0,-1
 83 307 l 1,1,-1
 787 674 l 1,2,-1
 83 1040 l 1,3,-1
 83 1194 l 1,4,-1
 899 776 l 1,5,-1
 899 571 l 1,6,-1
 83 154 l 1,0,-1
EndSplineSet
EndChar

StartChar: question
Encoding: 63 63 34
Width: 934
GlyphClass: 2
Flags: W
LayerCount: 2
Fore
SplineSet
872 1032 m 0,0,1
 872 961 872 961 856.5 907 c 128,-1,2
 841 853 841 853 815.5 810.5 c 128,-1,3
 790 768 790 768 758 734.5 c 128,-1,4
 726 701 726 701 692 671 c 2,5,-1
 626 612 l 2,6,7
 594 583 594 583 568 549 c 128,-1,8
 542 515 542 515 526 473.5 c 128,-1,9
 510 432 510 432 509 377 c 1,10,-1
 366 377 l 1,11,12
 368 446 368 446 383.5 498 c 128,-1,13
 399 550 399 550 424.5 590 c 128,-1,14
 450 630 450 630 482 661.5 c 128,-1,15
 514 693 514 693 547 722 c 2,16,-1
 612 778 l 1,17,18
 643 807 643 807 667.5 842 c 128,-1,19
 692 877 692 877 707 921 c 128,-1,20
 722 965 722 965 722 1024 c 256,21,22
 722 1083 722 1083 705 1129 c 128,-1,23
 688 1175 688 1175 656.5 1206.5 c 128,-1,24
 625 1238 625 1238 580 1254 c 128,-1,25
 535 1270 535 1270 481 1270 c 0,26,27
 366 1270 366 1270 298.5 1200 c 128,-1,28
 231 1130 231 1130 220 1008 c 1,29,-1
 69 1020 l 1,30,31
 78 1104 78 1104 105.5 1178.5 c 128,-1,32
 133 1253 133 1253 182.5 1309 c 128,-1,33
 232 1365 232 1365 305.5 1397.5 c 128,-1,34
 379 1430 379 1430 479 1430 c 0,35,36
 572 1430 572 1430 645 1402 c 128,-1,37
 718 1374 718 1374 768.5 1322.5 c 128,-1,38
 819 1271 819 1271 845.5 1197 c 128,-1,39
 872 1123 872 1123 872 1032 c 0,0,1
359 0 m 1,40,-1
 359 201 l 1,41,-1
 519 201 l 1,42,-1
 519 0 l 1,43,-1
 359 0 l 1,40,-1
EndSplineSet
EndChar

StartChar: at
Encoding: 64 64 35
Width: 1704
GlyphClass: 2
Flags: W
LayerCount: 2
Fore
SplineSet
1559 755 m 0,0,1
 1559 611 1559 611 1531.5 491.5 c 128,-1,2
 1504 372 1504 372 1455.5 286 c 128,-1,3
 1407 200 1407 200 1339.5 152 c 128,-1,4
 1272 104 1272 104 1193 104 c 0,5,6
 1147 104 1147 104 1114.5 117.5 c 128,-1,7
 1082 131 1082 131 1061.5 154.5 c 128,-1,8
 1041 178 1041 178 1032 210 c 128,-1,9
 1023 242 1023 242 1023 280 c 0,10,11
 1023 295 1023 295 1024 316.5 c 128,-1,12
 1025 338 1025 338 1025 350 c 1,13,-1
 1020 350 l 1,14,15
 1000 305 1000 305 972 260.5 c 128,-1,16
 944 216 944 216 906 181.5 c 128,-1,17
 868 147 868 147 820 125.5 c 128,-1,18
 772 104 772 104 714 104 c 0,19,20
 645 104 645 104 594 133 c 128,-1,21
 543 162 543 162 509.5 213.5 c 128,-1,22
 476 265 476 265 459.5 335.5 c 128,-1,23
 443 406 443 406 443 489 c 0,24,25
 443 609 443 609 472.5 719.5 c 128,-1,26
 502 830 502 830 556 914.5 c 128,-1,27
 610 999 610 999 685.5 1050 c 128,-1,28
 761 1101 761 1101 855 1101 c 0,29,30
 904 1101 904 1101 943.5 1087.5 c 128,-1,31
 983 1074 983 1074 1013 1050 c 128,-1,32
 1043 1026 1043 1026 1065 992.5 c 128,-1,33
 1087 959 1087 959 1102 919 c 1,34,-1
 1106 919 l 1,35,-1
 1138 1079 l 1,36,-1
 1266 1079 l 1,37,-1
 1171 573 l 2,38,39
 1155 489 1155 489 1148 429 c 128,-1,40
 1141 369 1141 369 1141 320 c 0,41,42
 1141 272 1141 272 1158.5 249 c 128,-1,43
 1176 226 1176 226 1207 226 c 0,44,45
 1258 226 1258 226 1302 266.5 c 128,-1,46
 1346 307 1346 307 1378.5 378 c 128,-1,47
 1411 449 1411 449 1429 545 c 128,-1,48
 1447 641 1447 641 1447 753 c 0,49,50
 1447 882 1447 882 1413 993 c 128,-1,51
 1379 1104 1379 1104 1313 1185 c 128,-1,52
 1247 1266 1247 1266 1149.5 1312 c 128,-1,53
 1052 1358 1052 1358 925 1358 c 0,54,55
 815 1358 815 1358 722 1326 c 128,-1,56
 629 1294 629 1294 553.5 1236 c 128,-1,57
 478 1178 478 1178 421 1097.5 c 128,-1,58
 364 1017 364 1017 325.5 921 c 128,-1,59
 287 825 287 825 267.5 715.5 c 128,-1,60
 248 606 248 606 248 491 c 0,61,62
 248 350 248 350 283 231 c 128,-1,63
 318 112 318 112 385.5 26.5 c 128,-1,64
 453 -59 453 -59 552.5 -107 c 128,-1,65
 652 -155 652 -155 782 -155 c 0,66,67
 868 -155 868 -155 942.5 -138.5 c 128,-1,68
 1017 -122 1017 -122 1079.5 -98 c 128,-1,69
 1142 -74 1142 -74 1191 -45.5 c 128,-1,70
 1240 -17 1240 -17 1276 7 c 1,71,-1
 1321 -105 l 1,72,73
 1280 -135 1280 -135 1225 -166.5 c 128,-1,74
 1170 -198 1170 -198 1102 -224 c 128,-1,75
 1034 -250 1034 -250 953.5 -266.5 c 128,-1,76
 873 -283 873 -283 782 -283 c 0,77,78
 626 -283 626 -283 505 -225.5 c 128,-1,79
 384 -168 384 -168 301 -65 c 128,-1,80
 218 38 218 38 175 180 c 128,-1,81
 132 322 132 322 132 491 c 0,82,83
 132 630 132 630 158 758 c 128,-1,84
 184 886 184 886 232 996 c 128,-1,85
 280 1106 280 1106 350 1196 c 128,-1,86
 420 1286 420 1286 508 1350 c 128,-1,87
 596 1414 596 1414 700.5 1449 c 128,-1,88
 805 1484 805 1484 923 1484 c 0,89,90
 1088 1484 1088 1484 1207.5 1425 c 128,-1,91
 1327 1366 1327 1366 1405.5 1266 c 128,-1,92
 1484 1166 1484 1166 1521.5 1034 c 128,-1,93
 1559 902 1559 902 1559 755 c 0,0,1
1062 747 m 0,94,95
 1062 797 1062 797 1048 839 c 128,-1,96
 1034 881 1034 881 1008.5 911 c 128,-1,97
 983 941 983 941 946.5 957.5 c 128,-1,98
 910 974 910 974 864 974 c 0,99,100
 794 974 794 974 740.5 931.5 c 128,-1,101
 687 889 687 889 651.5 820 c 128,-1,102
 616 751 616 751 597.5 664.5 c 128,-1,103
 579 578 579 578 579 491 c 0,104,105
 579 371 579 371 618 303 c 128,-1,106
 657 235 657 235 738 235 c 0,107,108
 795 235 795 235 844 266 c 128,-1,109
 893 297 893 297 932 348 c 128,-1,110
 971 399 971 399 1000 465 c 128,-1,111
 1029 531 1029 531 1043 602 c 0,112,113
 1050 638 1050 638 1056 678 c 128,-1,114
 1062 718 1062 718 1062 747 c 0,94,95
EndSplineSet
EndChar

StartChar: A
Encoding: 65 65 36
Width: 1120
GlyphClass: 2
Flags: W
LayerCount: 2
Fore
SplineSet
957 0 m 1,0,-1
 825 412 l 1,1,-1
 298 412 l 1,2,-1
 166 0 l 1,3,-1
 3 0 l 1,4,-1
 475 1409 l 1,5,-1
 653 1409 l 1,6,-1
 1117 0 l 1,7,-1
 957 0 l 1,0,-1
630 1026 m 2,8,9
 617 1066 617 1066 605 1107 c 2,10,-1
 584 1182 l 1,11,-1
 568 1238 l 2,12,13
 562 1260 562 1260 562 1265 c 1,14,15
 560 1260 560 1260 554.5 1237 c 128,-1,16
 549 1214 549 1214 540 1180 c 2,17,-1
 518 1105 l 1,18,-1
 494 1024 l 1,19,-1
 346 561 l 1,20,-1
 778 561 l 1,21,-1
 630 1026 l 2,8,9
EndSplineSet
EndChar

StartChar: B
Encoding: 66 66 37
Width: 1120
GlyphClass: 2
Flags: W
LayerCount: 2
Fore
SplineSet
1031 397 m 0,0,1
 1031 290 1031 290 997 214.5 c 128,-1,2
 963 139 963 139 904.5 91.5 c 128,-1,3
 846 44 846 44 769 22 c 128,-1,4
 692 0 692 0 607 0 c 2,5,-1
 138 0 l 1,6,-1
 138 1409 l 1,7,-1
 558 1409 l 2,8,9
 654 1409 654 1409 729 1389.5 c 128,-1,10
 804 1370 804 1370 856.5 1328 c 128,-1,11
 909 1286 909 1286 936.5 1221.5 c 128,-1,12
 964 1157 964 1157 964 1067 c 0,13,14
 964 1008 964 1008 950.5 956 c 128,-1,15
 937 904 937 904 909.5 861.5 c 128,-1,16
 882 819 882 819 840.5 788.5 c 128,-1,17
 799 758 799 758 744 743 c 1,18,19
 814 733 814 733 868 704 c 128,-1,20
 922 675 922 675 958 630 c 128,-1,21
 994 585 994 585 1012.5 525.5 c 128,-1,22
 1031 466 1031 466 1031 397 c 0,0,1
807 1044 m 0,23,24
 807 1158 807 1158 743 1207 c 128,-1,25
 679 1256 679 1256 558 1256 c 2,26,-1
 294 1256 l 1,27,-1
 294 810 l 1,28,-1
 558 810 l 2,29,30
 627 810 627 810 674.5 826.5 c 128,-1,31
 722 843 722 843 751.5 873.5 c 128,-1,32
 781 904 781 904 794 947 c 128,-1,33
 807 990 807 990 807 1044 c 0,23,24
873 412 m 0,34,35
 873 479 873 479 853 526 c 128,-1,36
 833 573 833 573 795.5 603 c 128,-1,37
 758 633 758 633 705 647 c 128,-1,38
 652 661 652 661 586 661 c 2,39,-1
 294 661 l 1,40,-1
 294 153 l 1,41,-1
 599 153 l 2,42,43
 659 153 659 153 709 165 c 128,-1,44
 759 177 759 177 795.5 207 c 128,-1,45
 832 237 832 237 852.5 287 c 128,-1,46
 873 337 873 337 873 412 c 0,34,35
EndSplineSet
EndChar

StartChar: C
Encoding: 67 67 38
Width: 1212
GlyphClass: 2
Flags: W
LayerCount: 2
Fore
SplineSet
649 1274 m 0,0,1
 551 1274 551 1274 475 1234 c 128,-1,2
 399 1194 399 1194 348 1120 c 128,-1,3
 297 1046 297 1046 270.5 942 c 128,-1,4
 244 838 244 838 244 711 c 256,5,6
 244 584 244 584 272.5 478.5 c 128,-1,7
 301 373 301 373 353.5 297 c 128,-1,8
 406 221 406 221 483 179 c 128,-1,9
 560 137 560 137 656 137 c 0,10,11
 723 137 723 137 778 158.5 c 128,-1,12
 833 180 833 180 878 219 c 128,-1,13
 923 258 923 258 958 311.5 c 128,-1,14
 993 365 993 365 1020 430 c 1,15,-1
 1148 352 l 1,16,17
 1117 273 1117 273 1071 205 c 128,-1,18
 1025 137 1025 137 963 87 c 128,-1,19
 901 37 901 37 823 8.5 c 128,-1,20
 745 -20 745 -20 648 -20 c 0,21,22
 508 -20 508 -20 402.5 34.5 c 128,-1,23
 297 89 297 89 226.5 186.5 c 128,-1,24
 156 284 156 284 120.5 418 c 128,-1,25
 85 552 85 552 85 711 c 0,26,27
 85 876 85 876 122.5 1009 c 128,-1,28
 160 1142 160 1142 231.5 1235.5 c 128,-1,29
 303 1329 303 1329 408 1379.5 c 128,-1,30
 513 1430 513 1430 647 1430 c 0,31,32
 831 1430 831 1430 955 1342 c 128,-1,33
 1079 1254 1079 1254 1137 1081 c 1,34,-1
 989 1021 l 1,35,36
 973 1071 973 1071 945 1116.5 c 128,-1,37
 917 1162 917 1162 875 1197 c 128,-1,38
 833 1232 833 1232 777 1253 c 128,-1,39
 721 1274 721 1274 649 1274 c 0,0,1
EndSplineSet
EndChar

StartChar: D
Encoding: 68 68 39
Width: 1212
GlyphClass: 2
Flags: W
LayerCount: 2
Fore
SplineSet
1132 719 m 0,0,1
 1132 543 1132 543 1088.5 408.5 c 128,-1,2
 1045 274 1045 274 969.5 183.5 c 128,-1,3
 894 93 894 93 791 46.5 c 128,-1,4
 688 0 688 0 570 0 c 2,5,-1
 138 0 l 1,6,-1
 138 1409 l 1,7,-1
 520 1409 l 2,8,9
 654 1409 654 1409 766 1368.5 c 128,-1,10
 878 1328 878 1328 959.5 1243.5 c 128,-1,11
 1041 1159 1041 1159 1086.5 1029 c 128,-1,12
 1132 899 1132 899 1132 719 c 0,0,1
974 719 m 0,13,14
 974 862 974 862 940.5 963.5 c 128,-1,15
 907 1065 907 1065 846.5 1130 c 128,-1,16
 786 1195 786 1195 701.5 1225.5 c 128,-1,17
 617 1256 617 1256 516 1256 c 2,18,-1
 294 1256 l 1,19,-1
 294 153 l 1,20,-1
 552 153 l 2,21,22
 643 153 643 153 720 189 c 128,-1,23
 797 225 797 225 853.5 296 c 128,-1,24
 910 367 910 367 942 473 c 128,-1,25
 974 579 974 579 974 719 c 0,13,14
EndSplineSet
EndChar

StartChar: E
Encoding: 69 69 40
Width: 1120
GlyphClass: 2
Flags: W
LayerCount: 2
Fore
SplineSet
138 0 m 1,0,-1
 138 1409 l 1,1,-1
 1014 1409 l 1,2,-1
 1014 1253 l 1,3,-1
 294 1253 l 1,4,-1
 294 801 l 1,5,-1
 965 801 l 1,6,-1
 965 647 l 1,7,-1
 294 647 l 1,8,-1
 294 156 l 1,9,-1
 1048 156 l 1,10,-1
 1048 0 l 1,11,-1
 138 0 l 1,0,-1
EndSplineSet
EndChar

StartChar: F
Encoding: 70 70 41
Width: 1026
GlyphClass: 2
Flags: W
LayerCount: 2
Fore
SplineSet
294 1253 m 1,0,-1
 294 729 l 1,1,-1
 939 729 l 1,2,-1
 939 571 l 1,3,-1
 294 571 l 1,4,-1
 294 0 l 1,5,-1
 138 0 l 1,6,-1
 138 1409 l 1,7,-1
 959 1409 l 1,8,-1
 959 1253 l 1,9,-1
 294 1253 l 1,0,-1
EndSplineSet
EndChar

StartChar: G
Encoding: 71 71 42
Width: 1307
GlyphClass: 2
Flags: W
LayerCount: 2
Fore
SplineSet
85 711 m 0,0,1
 85 876 85 876 121.5 1009 c 128,-1,2
 158 1142 158 1142 230.5 1235.5 c 128,-1,3
 303 1329 303 1329 410.5 1379.5 c 128,-1,4
 518 1430 518 1430 660 1430 c 0,5,6
 767 1430 767 1430 847 1407 c 128,-1,7
 927 1384 927 1384 986 1341 c 128,-1,8
 1045 1298 1045 1298 1086 1236.5 c 128,-1,9
 1127 1175 1127 1175 1156 1098 c 1,10,-1
 1007 1044 l 1,11,12
 986 1096 986 1096 955.5 1138.5 c 128,-1,13
 925 1181 925 1181 882.5 1211 c 128,-1,14
 840 1241 840 1241 784 1257.5 c 128,-1,15
 728 1274 728 1274 656 1274 c 0,16,17
 551 1274 551 1274 473 1234 c 128,-1,18
 395 1194 395 1194 344.5 1120 c 128,-1,19
 294 1046 294 1046 269 942 c 128,-1,20
 244 838 244 838 244 711 c 256,21,22
 244 584 244 584 271 478.5 c 128,-1,23
 298 373 298 373 351 296.5 c 128,-1,24
 404 220 404 220 483.5 177.5 c 128,-1,25
 563 135 563 135 667 135 c 0,26,27
 735 135 735 135 792.5 149 c 128,-1,28
 850 163 850 163 896.5 185.5 c 128,-1,29
 943 208 943 208 978 235.5 c 128,-1,30
 1013 263 1013 263 1037 291 c 1,31,-1
 1037 545 l 1,32,-1
 692 545 l 1,33,-1
 692 705 l 1,34,-1
 1181 705 l 1,35,-1
 1181 219 l 1,36,37
 1142 171 1142 171 1090.5 127.5 c 128,-1,38
 1039 84 1039 84 974 51 c 128,-1,39
 909 18 909 18 832 -1 c 128,-1,40
 755 -20 755 -20 667 -20 c 0,41,42
 521 -20 521 -20 412 34.5 c 128,-1,43
 303 89 303 89 230.5 186.5 c 128,-1,44
 158 284 158 284 121.5 418 c 128,-1,45
 85 552 85 552 85 711 c 0,0,1
EndSplineSet
EndChar

StartChar: H
Encoding: 72 72 43
Width: 1212
GlyphClass: 2
Flags: W
LayerCount: 2
Fore
SplineSet
919 0 m 1,0,-1
 919 653 l 1,1,-1
 294 653 l 1,2,-1
 294 0 l 1,3,-1
 138 0 l 1,4,-1
 138 1409 l 1,5,-1
 294 1409 l 1,6,-1
 294 813 l 1,7,-1
 919 813 l 1,8,-1
 919 1409 l 1,9,-1
 1075 1409 l 1,10,-1
 1075 0 l 1,11,-1
 919 0 l 1,0,-1
EndSplineSet
EndChar

StartChar: I
Encoding: 73 73 44
Width: 467
GlyphClass: 2
Flags: W
LayerCount: 2
Fore
SplineSet
155 0 m 1,0,-1
 155 1409 l 1,1,-1
 312 1409 l 1,2,-1
 312 0 l 1,3,-1
 155 0 l 1,0,-1
EndSplineSet
EndChar

StartChar: J
Encoding: 74 74 45
Width: 840
GlyphClass: 2
Flags: W
LayerCount: 2
Fore
SplineSet
375 -20 m 0,0,1
 235 -20 235 -20 145 69 c 128,-1,2
 55 158 55 158 26 350 c 1,3,-1
 180 381 l 1,4,5
 188 316 188 316 207 269.5 c 128,-1,6
 226 223 226 223 252 193 c 128,-1,7
 278 163 278 163 310 149 c 128,-1,8
 342 135 342 135 376 135 c 0,9,10
 461 135 461 135 510 206.5 c 128,-1,11
 559 278 559 278 559 416 c 2,12,-1
 559 1253 l 1,13,-1
 337 1253 l 1,14,-1
 337 1409 l 1,15,-1
 715 1409 l 1,16,-1
 715 420 l 2,17,18
 715 319 715 319 692 238 c 128,-1,19
 669 157 669 157 625.5 99.5 c 128,-1,20
 582 42 582 42 518.5 11 c 128,-1,21
 455 -20 455 -20 375 -20 c 0,0,1
EndSplineSet
EndChar

StartChar: K
Encoding: 75 75 46
Width: 1120
GlyphClass: 2
Flags: W
LayerCount: 2
Fore
SplineSet
907 0 m 1,0,-1
 445 680 l 1,1,-1
 294 540 l 1,2,-1
 294 0 l 1,3,-1
 138 0 l 1,4,-1
 138 1409 l 1,5,-1
 294 1409 l 1,6,-1
 294 703 l 1,7,-1
 851 1409 l 1,8,-1
 1036 1409 l 1,9,-1
 544 797 l 1,10,-1
 1101 0 l 1,11,-1
 907 0 l 1,0,-1
EndSplineSet
EndChar

StartChar: L
Encoding: 76 76 47
Width: 934
GlyphClass: 2
Flags: W
LayerCount: 2
Fore
SplineSet
138 0 m 1,0,-1
 138 1409 l 1,1,-1
 294 1409 l 1,2,-1
 294 156 l 1,3,-1
 878 156 l 1,4,-1
 878 0 l 1,5,-1
 138 0 l 1,0,-1
EndSplineSet
EndChar

StartChar: M
Encoding: 77 77 48
Width: 1399
GlyphClass: 2
Flags: W
LayerCount: 2
Fore
SplineSet
1120 0 m 1,0,-1
 1120 940 l 2,1,2
 1120 991 1120 991 1121 1044 c 128,-1,3
 1122 1097 1122 1097 1123 1141 c 0,4,5
 1125 1192 1125 1192 1128 1240 c 1,6,7
 1117 1189 1117 1189 1104 1139 c 2,8,9
 1104 1139 1104 1139 1080 1048 c 0,10,11
 1068 999 1068 999 1055 960 c 2,12,-1
 757 0 l 1,13,-1
 647 0 l 1,14,-1
 344 960 l 2,15,16
 339 975 339 975 334 995 c 2,17,-1
 323 1038 l 1,18,-1
 310 1084 l 1,19,-1
 298 1130 l 2,20,21
 284 1183 284 1183 271 1240 c 1,22,23
 272 1184 272 1184 274 1129 c 0,24,25
 276 1082 276 1082 276.5 1030.5 c 128,-1,26
 277 979 277 979 277 940 c 2,27,-1
 277 0 l 1,28,-1
 138 0 l 1,29,-1
 138 1409 l 1,30,-1
 344 1409 l 1,31,-1
 651 432 l 2,32,33
 657 412 657 412 665 380.5 c 128,-1,34
 673 349 673 349 680.5 316 c 128,-1,35
 688 283 688 283 694 253.5 c 128,-1,36
 700 224 700 224 703 208 c 1,37,38
 705 224 705 224 711.5 254 c 128,-1,39
 718 284 718 284 727 317 c 2,40,-1
 744 381 l 2,41,42
 752 412 752 412 759 432 c 2,43,-1
 1060 1409 l 1,44,-1
 1261 1409 l 1,45,-1
 1261 0 l 1,46,-1
 1120 0 l 1,0,-1
EndSplineSet
EndChar

StartChar: N
Encoding: 78 78 49
Width: 1212
GlyphClass: 2
Flags: W
LayerCount: 2
Fore
SplineSet
887 0 m 1,0,-1
 269 1200 l 1,1,2
 269 1200 269 1200 273 1103 c 0,3,4
 275 1062 275 1062 276 1016.5 c 128,-1,5
 277 971 277 971 277 936 c 2,6,-1
 277 0 l 1,7,-1
 138 0 l 1,8,-1
 138 1409 l 1,9,-1
 320 1409 l 1,10,-1
 944 201 l 1,11,12
 942 250 942 250 939 299 c 0,13,14
 937 341 937 341 935.5 390.5 c 128,-1,15
 934 440 934 440 934 485 c 2,16,-1
 934 1409 l 1,17,-1
 1075 1409 l 1,18,-1
 1075 0 l 1,19,-1
 887 0 l 1,0,-1
EndSplineSet
EndChar

StartChar: O
Encoding: 79 79 50
Width: 1307
GlyphClass: 2
Flags: W
LayerCount: 2
Fore
SplineSet
1227 711 m 0,0,1
 1227 546 1227 546 1188 411 c 128,-1,2
 1149 276 1149 276 1075 180 c 128,-1,3
 1001 84 1001 84 894.5 32 c 128,-1,4
 788 -20 788 -20 652 -20 c 0,5,6
 509 -20 509 -20 402 34.5 c 128,-1,7
 295 89 295 89 223.5 186.5 c 128,-1,8
 152 284 152 284 116 418 c 128,-1,9
 80 552 80 552 80 711 c 0,10,11
 80 876 80 876 117.5 1009 c 128,-1,12
 155 1142 155 1142 228 1235.5 c 128,-1,13
 301 1329 301 1329 408 1379.5 c 128,-1,14
 515 1430 515 1430 654 1430 c 0,15,16
 792 1430 792 1430 899 1379 c 128,-1,17
 1006 1328 1006 1328 1078.5 1234 c 128,-1,18
 1151 1140 1151 1140 1189 1007 c 128,-1,19
 1227 874 1227 874 1227 711 c 0,0,1
1067 711 m 0,20,21
 1067 838 1067 838 1040 942 c 128,-1,22
 1013 1046 1013 1046 961 1120 c 128,-1,23
 909 1194 909 1194 832 1234 c 128,-1,24
 755 1274 755 1274 654 1274 c 0,25,26
 551 1274 551 1274 473 1234 c 128,-1,27
 395 1194 395 1194 342.5 1120 c 128,-1,28
 290 1046 290 1046 264.5 942 c 128,-1,29
 239 838 239 838 239 711 c 256,30,31
 239 584 239 584 265.5 478.5 c 128,-1,32
 292 373 292 373 344 296.5 c 128,-1,33
 396 220 396 220 473.5 177.5 c 128,-1,34
 551 135 551 135 652 135 c 0,35,36
 760 135 760 135 838.5 178 c 128,-1,37
 917 221 917 221 967.5 297.5 c 128,-1,38
 1018 374 1018 374 1042.5 480 c 128,-1,39
 1067 586 1067 586 1067 711 c 0,20,21
EndSplineSet
EndChar

StartChar: P
Encoding: 80 80 51
Width: 1120
GlyphClass: 2
Flags: W
LayerCount: 2
Fore
SplineSet
1031 985 m 0,0,1
 1031 893 1031 893 1006 813.5 c 128,-1,2
 981 734 981 734 931.5 675.5 c 128,-1,3
 882 617 882 617 807.5 583 c 128,-1,4
 733 549 733 549 634 549 c 2,5,-1
 294 549 l 1,6,-1
 294 0 l 1,7,-1
 138 0 l 1,8,-1
 138 1409 l 1,9,-1
 624 1409 l 2,10,11
 726 1409 726 1409 802.5 1378.5 c 128,-1,12
 879 1348 879 1348 930 1292.5 c 128,-1,13
 981 1237 981 1237 1006 1158.5 c 128,-1,14
 1031 1080 1031 1080 1031 985 c 0,0,1
874 983 m 0,15,16
 874 1117 874 1117 807 1186.5 c 128,-1,17
 740 1256 740 1256 605 1256 c 2,18,-1
 294 1256 l 1,19,-1
 294 700 l 1,20,-1
 612 700 l 2,21,22
 747 700 747 700 810.5 773 c 128,-1,23
 874 846 874 846 874 983 c 0,15,16
EndSplineSet
EndChar

StartChar: Q
Encoding: 81 81 52
Width: 1307
GlyphClass: 2
Flags: W
LayerCount: 2
Fore
SplineSet
1227 711 m 0,0,1
 1227 562 1227 562 1195 438.5 c 128,-1,2
 1163 315 1163 315 1103.5 222 c 128,-1,3
 1044 129 1044 129 957.5 70.5 c 128,-1,4
 871 12 871 12 761 -6 c 1,5,6
 778 -70 778 -70 800 -115 c 128,-1,7
 822 -160 822 -160 850 -188.5 c 128,-1,8
 878 -217 878 -217 912 -230.5 c 128,-1,9
 946 -244 946 -244 988 -244 c 0,10,11
 1011 -244 1011 -244 1037 -240 c 128,-1,12
 1063 -236 1063 -236 1082 -231 c 1,13,-1
 1082 -365 l 1,14,15
 1051 -374 1051 -374 1013.5 -380.5 c 128,-1,16
 976 -387 976 -387 936 -387 c 0,17,18
 865 -387 865 -387 813 -361.5 c 128,-1,19
 761 -336 761 -336 721 -288.5 c 128,-1,20
 681 -241 681 -241 652.5 -172 c 128,-1,21
 624 -103 624 -103 601 -16 c 1,22,23
 471 -8 471 -8 373.5 49.5 c 128,-1,24
 276 107 276 107 210.5 203.5 c 128,-1,25
 145 300 145 300 112.5 429.5 c 128,-1,26
 80 559 80 559 80 711 c 0,27,28
 80 876 80 876 117.5 1009 c 128,-1,29
 155 1142 155 1142 228 1235.5 c 128,-1,30
 301 1329 301 1329 408 1379.5 c 128,-1,31
 515 1430 515 1430 654 1430 c 0,32,33
 792 1430 792 1430 899 1379 c 128,-1,34
 1006 1328 1006 1328 1078.5 1234 c 128,-1,35
 1151 1140 1151 1140 1189 1007 c 128,-1,36
 1227 874 1227 874 1227 711 c 0,0,1
1067 711 m 0,37,38
 1067 838 1067 838 1040 942 c 128,-1,39
 1013 1046 1013 1046 961 1120 c 128,-1,40
 909 1194 909 1194 832 1234 c 128,-1,41
 755 1274 755 1274 654 1274 c 0,42,43
 551 1274 551 1274 473 1234 c 128,-1,44
 395 1194 395 1194 342.5 1120 c 128,-1,45
 290 1046 290 1046 264.5 942 c 128,-1,46
 239 838 239 838 239 711 c 256,47,48
 239 584 239 584 265.5 478.5 c 128,-1,49
 292 373 292 373 344 296.5 c 128,-1,50
 396 220 396 220 473.5 177.5 c 128,-1,51
 551 135 551 135 652 135 c 0,52,53
 760 135 760 135 838.5 178 c 128,-1,54
 917 221 917 221 967.5 297.5 c 128,-1,55
 1018 374 1018 374 1042.5 480 c 128,-1,56
 1067 586 1067 586 1067 711 c 0,37,38
EndSplineSet
EndChar

StartChar: R
Encoding: 82 82 53
Width: 1212
GlyphClass: 2
Flags: W
LayerCount: 2
Fore
SplineSet
954 0 m 1,0,-1
 654 585 l 1,1,-1
 294 585 l 1,2,-1
 294 0 l 1,3,-1
 138 0 l 1,4,-1
 138 1409 l 1,5,-1
 681 1409 l 2,6,7
 779 1409 779 1409 855 1381.5 c 128,-1,8
 931 1354 931 1354 982.5 1302 c 128,-1,9
 1034 1250 1034 1250 1061 1175 c 128,-1,10
 1088 1100 1088 1100 1088 1006 c 0,11,12
 1088 939 1088 939 1072 874 c 128,-1,13
 1056 809 1056 809 1021.5 755 c 128,-1,14
 987 701 987 701 934 662 c 128,-1,15
 881 623 881 623 806 607 c 1,16,-1
 1134 0 l 1,17,-1
 954 0 l 1,0,-1
931 1004 m 0,18,19
 931 1068 931 1068 913 1115 c 128,-1,20
 895 1162 895 1162 860.5 1193.5 c 128,-1,21
 826 1225 826 1225 777 1240.5 c 128,-1,22
 728 1256 728 1256 665 1256 c 2,23,-1
 294 1256 l 1,24,-1
 294 736 l 1,25,-1
 672 736 l 2,26,27
 739 736 739 736 788.5 756.5 c 128,-1,28
 838 777 838 777 869.5 813 c 128,-1,29
 901 849 901 849 916 898 c 128,-1,30
 931 947 931 947 931 1004 c 0,18,19
EndSplineSet
EndChar

StartChar: S
Encoding: 83 83 54
Width: 1120
GlyphClass: 2
Flags: W
LayerCount: 2
Fore
SplineSet
1043 389 m 0,0,1
 1043 300 1043 300 1014.5 225 c 128,-1,2
 986 150 986 150 927 95.5 c 128,-1,3
 868 41 868 41 778.5 10.5 c 128,-1,4
 689 -20 689 -20 566 -20 c 0,5,6
 350 -20 350 -20 229.5 72 c 128,-1,7
 109 164 109 164 76 338 c 1,8,-1
 228 375 l 1,9,10
 239 320 239 320 263 275 c 128,-1,11
 287 230 287 230 327.5 197.5 c 128,-1,12
 368 165 368 165 428 147 c 128,-1,13
 488 129 488 129 571 129 c 0,14,15
 641 129 641 129 699.5 143.5 c 128,-1,16
 758 158 758 158 799.5 188 c 128,-1,17
 841 218 841 218 864.5 265.5 c 128,-1,18
 888 313 888 313 888 379 c 0,19,20
 888 448 888 448 862 491 c 128,-1,21
 836 534 836 534 789.5 562 c 128,-1,22
 743 590 743 590 678 609 c 2,23,-1
 535 650 l 2,24,25
 487 663 487 663 438 678.5 c 128,-1,26
 389 694 389 694 344 715.5 c 128,-1,27
 299 737 299 737 260 766 c 128,-1,28
 221 795 221 795 192 835.5 c 128,-1,29
 163 876 163 876 146.5 929.5 c 128,-1,30
 130 983 130 983 130 1053 c 0,31,32
 130 1153 130 1153 163.5 1224.5 c 128,-1,33
 197 1296 197 1296 256 1342 c 128,-1,34
 315 1388 315 1388 395.5 1409 c 128,-1,35
 476 1430 476 1430 569 1430 c 0,36,37
 676 1430 676 1430 752.5 1409.5 c 128,-1,38
 829 1389 829 1389 881.5 1348 c 128,-1,39
 934 1307 934 1307 965.5 1246.5 c 128,-1,40
 997 1186 997 1186 1016 1106 c 1,41,-1
 862 1073 l 1,42,43
 851 1124 851 1124 829 1164 c 128,-1,44
 807 1204 807 1204 771.5 1231 c 128,-1,45
 736 1258 736 1258 685.5 1272 c 128,-1,46
 635 1286 635 1286 567 1286 c 0,47,48
 487 1286 487 1286 432.5 1268.5 c 128,-1,49
 378 1251 378 1251 345 1221 c 128,-1,50
 312 1191 312 1191 297.5 1150.5 c 128,-1,51
 283 1110 283 1110 283 1063 c 0,52,53
 283 1000 283 1000 309 959.5 c 128,-1,54
 335 919 335 919 379 892 c 128,-1,55
 423 865 423 865 481.5 847 c 128,-1,56
 540 829 540 829 605 811 c 2,57,58
 605 811 605 811 711 780 c 0,59,60
 764 765 764 765 812.5 743.5 c 128,-1,61
 861 722 861 722 903 693 c 128,-1,62
 945 664 945 664 976.5 622 c 128,-1,63
 1008 580 1008 580 1025.5 523 c 128,-1,64
 1043 466 1043 466 1043 389 c 0,0,1
EndSplineSet
EndChar

StartChar: T
Encoding: 84 84 55
Width: 1026
GlyphClass: 2
Flags: W
LayerCount: 2
Fore
SplineSet
590 1253 m 1,0,-1
 590 0 l 1,1,-1
 435 0 l 1,2,-1
 435 1253 l 1,3,-1
 38 1253 l 1,4,-1
 38 1409 l 1,5,-1
 987 1409 l 1,6,-1
 987 1253 l 1,7,-1
 590 1253 l 1,0,-1
EndSplineSet
EndChar

StartChar: U
Encoding: 85 85 56
Width: 1212
GlyphClass: 2
Flags: W
LayerCount: 2
Fore
SplineSet
599 -20 m 0,0,1
 504 -20 504 -20 419 11 c 128,-1,2
 334 42 334 42 269.5 107.5 c 128,-1,3
 205 173 205 173 167 273.5 c 128,-1,4
 129 374 129 374 129 512 c 2,5,-1
 129 1409 l 1,6,-1
 286 1409 l 1,7,-1
 286 528 l 2,8,9
 286 421 286 421 309.5 346.5 c 128,-1,10
 333 272 333 272 374.5 225 c 128,-1,11
 416 178 416 178 473 156.5 c 128,-1,12
 530 135 530 135 598 135 c 0,13,14
 665 135 665 135 725 157 c 128,-1,15
 785 179 785 179 830 227 c 128,-1,16
 875 275 875 275 901 352.5 c 128,-1,17
 927 430 927 430 927 541 c 2,18,-1
 927 1409 l 1,19,-1
 1083 1409 l 1,20,-1
 1083 530 l 2,21,22
 1083 389 1083 389 1044.5 285.5 c 128,-1,23
 1006 182 1006 182 940.5 114 c 128,-1,24
 875 46 875 46 787 13 c 128,-1,25
 699 -20 699 -20 599 -20 c 0,0,1
EndSplineSet
EndChar

StartChar: V
Encoding: 86 86 57
Width: 1120
GlyphClass: 2
Flags: W
LayerCount: 2
Fore
SplineSet
641 0 m 1,0,-1
 479 0 l 1,1,-1
 7 1409 l 1,2,-1
 172 1409 l 1,3,-1
 492 417 l 1,4,5
 492 417 492 417 516 328 c 1,6,-1
 539 248 l 1,7,8
 539 248 539 248 561 168 c 1,9,10
 561 168 561 168 582 246 c 2,11,12
 582 246 582 246 604 325 c 2,13,-1
 630 417 l 1,14,-1
 948 1409 l 1,15,-1
 1113 1409 l 1,16,-1
 641 0 l 1,0,-1
EndSplineSet
EndChar

StartChar: W
Encoding: 87 87 58
Width: 1585
GlyphClass: 2
Flags: W
LayerCount: 2
Fore
SplineSet
1239 0 m 1,0,-1
 1052 0 l 1,1,-1
 852 895 l 2,2,3
 843 933 843 933 832.5 985 c 128,-1,4
 822 1037 822 1037 814 1084 c 0,5,6
 804 1139 804 1139 795 1196 c 1,7,8
 795 1196 795 1196 774 1083 c 2,9,10
 774 1083 774 1083 755 984 c 0,11,12
 745 933 745 933 736 895 c 2,13,-1
 535 0 l 1,14,-1
 348 0 l 1,15,-1
 7 1409 l 1,16,-1
 171 1409 l 1,17,-1
 378 514 l 2,18,19
 392 451 392 451 404.5 389 c 128,-1,20
 417 327 417 327 426 278 c 0,21,22
 437 220 437 220 446 168 c 1,23,24
 458 237 458 237 471 304 c 0,25,26
 477 332 477 332 483 363 c 2,27,-1
 495 424 l 1,28,-1
 507 482 l 1,29,-1
 518 532 l 1,30,-1
 719 1409 l 1,31,-1
 869 1409 l 1,32,-1
 1070 532 l 1,33,-1
 1081 482 l 1,34,-1
 1094 424 l 2,35,36
 1100 395 1100 395 1105.5 364 c 128,-1,37
 1111 333 1111 333 1117 305 c 0,38,39
 1130 238 1130 238 1142 168 c 0,40,41
 1143 168 1143 168 1150 202 c 2,42,-1
 1166 289 l 1,43,-1
 1188 402 l 2,44,45
 1200 462 1200 462 1212 514 c 2,46,-1
 1416 1409 l 1,47,-1
 1579 1409 l 1,48,-1
 1239 0 l 1,0,-1
EndSplineSet
EndChar

StartChar: X
Encoding: 88 88 59
Width: 1120
GlyphClass: 2
Flags: W
LayerCount: 2
Fore
SplineSet
912 0 m 1,0,-1
 565 616 l 1,1,-1
 211 0 l 1,2,-1
 38 0 l 1,3,-1
 477 732 l 1,4,-1
 71 1409 l 1,5,-1
 244 1409 l 1,6,-1
 566 856 l 1,7,-1
 878 1409 l 1,8,-1
 1051 1409 l 1,9,-1
 656 739 l 1,10,-1
 1085 0 l 1,11,-1
 912 0 l 1,0,-1
EndSplineSet
EndChar

StartChar: Y
Encoding: 89 89 60
Width: 1120
GlyphClass: 2
Flags: W
LayerCount: 2
Fore
SplineSet
637 584 m 1,0,-1
 637 0 l 1,1,-1
 481 0 l 1,2,-1
 481 584 l 1,3,-1
 37 1409 l 1,4,-1
 209 1409 l 1,5,-1
 561 738 l 1,6,-1
 911 1409 l 1,7,-1
 1083 1409 l 1,8,-1
 637 584 l 1,0,-1
EndSplineSet
EndChar

StartChar: Z
Encoding: 90 90 61
Width: 1026
GlyphClass: 2
Flags: W
LayerCount: 2
Fore
SplineSet
974 0 m 1,0,-1
 53 0 l 1,1,-1
 53 143 l 1,2,-1
 757 1253 l 1,3,-1
 113 1253 l 1,4,-1
 113 1409 l 1,5,-1
 935 1409 l 1,6,-1
 935 1270 l 1,7,-1
 231 156 l 1,8,-1
 974 156 l 1,9,-1
 974 0 l 1,0,-1
EndSplineSet
EndChar

StartChar: bracketleft
Encoding: 91 91 62
Width: 467
GlyphClass: 2
Flags: W
LayerCount: 2
Fore
SplineSet
120 -425 m 1,0,-1
 120 1484 l 1,1,-1
 454 1484 l 1,2,-1
 454 1355 l 1,3,-1
 263 1355 l 1,4,-1
 263 -296 l 1,5,-1
 454 -296 l 1,6,-1
 454 -425 l 1,7,-1
 120 -425 l 1,0,-1
EndSplineSet
EndChar

StartChar: backslash
Encoding: 92 92 63
Width: 467
GlyphClass: 2
Flags: W
LayerCount: 2
Fore
SplineSet
334 -20 m 1,0,-1
 0 1484 l 1,1,-1
 130 1484 l 1,2,-1
 467 -20 l 1,3,-1
 334 -20 l 1,0,-1
EndSplineSet
EndChar

StartChar: bracketright
Encoding: 93 93 64
Width: 467
GlyphClass: 2
Flags: W
LayerCount: 2
Fore
SplineSet
13 -425 m 1,0,-1
 13 -296 l 1,1,-1
 204 -296 l 1,2,-1
 204 1355 l 1,3,-1
 13 1355 l 1,4,-1
 13 1484 l 1,5,-1
 347 1484 l 1,6,-1
 347 -425 l 1,7,-1
 13 -425 l 1,0,-1
EndSplineSet
EndChar

StartChar: asciicircum
Encoding: 94 94 65
Width: 788
GlyphClass: 2
Flags: W
LayerCount: 2
Fore
SplineSet
645 673 m 1,0,-1
 392 1306 l 1,1,-1
 141 673 l 1,2,-1
 8 673 l 1,3,-1
 310 1409 l 1,4,-1
 476 1409 l 1,5,-1
 780 673 l 1,6,-1
 645 673 l 1,0,-1
EndSplineSet
EndChar

StartChar: underscore
Encoding: 95 95 66
Width: 934
GlyphClass: 2
Flags: W
LayerCount: 2
Fore
SplineSet
-25 -407 m 1,0,-1
 -25 -277 l 1,1,-1
 953 -277 l 1,2,-1
 953 -407 l 1,3,-1
 -25 -407 l 1,0,-1
EndSplineSet
EndChar

StartChar: grave
Encoding: 96 96 67
Width: 559
GlyphClass: 2
Flags: W
LayerCount: 2
Fore
SplineSet
357 1201 m 5,0,-1
 87 1479 l 5,1,-1
 87 1508 l 5,2,-1
 257 1508 l 5,3,-1
 434 1221 l 5,4,-1
 434 1201 l 5,5,-1
 357 1201 l 5,0,-1
EndSplineSet
EndChar

StartChar: a
Encoding: 97 97 68
Width: 934
GlyphClass: 2
Flags: W
LayerCount: 2
Fore
SplineSet
339 -20 m 0,0,1
 205 -20 205 -20 138 66 c 128,-1,2
 71 152 71 152 71 302 c 0,3,4
 71 409 71 409 104.5 477.5 c 128,-1,5
 138 546 138 546 191.5 585 c 128,-1,6
 245 624 245 624 314 639 c 128,-1,7
 383 654 383 654 454 656 c 2,8,-1
 654 660 l 1,9,-1
 654 719 l 2,10,11
 654 786 654 786 642.5 833 c 128,-1,12
 631 880 631 880 607 909 c 128,-1,13
 583 938 583 938 547.5 951.5 c 128,-1,14
 512 965 512 965 463 965 c 0,15,16
 420 965 420 965 386 957.5 c 128,-1,17
 352 950 352 950 326.5 930.5 c 128,-1,18
 301 911 301 911 285.5 877.5 c 128,-1,19
 270 844 270 844 265 793 c 1,20,-1
 111 810 l 1,21,22
 119 874 119 874 142 927.5 c 128,-1,23
 165 981 165 981 207 1020 c 128,-1,24
 249 1059 249 1059 312.5 1080.5 c 128,-1,25
 376 1102 376 1102 467 1102 c 0,26,27
 634 1102 634 1102 718.5 1008.5 c 128,-1,28
 803 915 803 915 803 738 c 2,29,-1
 803 272 l 2,30,31
 803 192 803 192 820 151.5 c 128,-1,32
 837 111 837 111 886 111 c 0,33,34
 898 111 898 111 910.5 113 c 128,-1,35
 923 115 923 115 934 118 c 1,36,-1
 934 6 l 1,37,38
 906 -2 906 -2 878.5 -6 c 128,-1,39
 851 -10 851 -10 820 -10 c 0,40,41
 778 -10 778 -10 748 3.5 c 128,-1,42
 718 17 718 17 699.5 44.5 c 128,-1,43
 681 72 681 72 671 112.5 c 128,-1,44
 661 153 661 153 658 207 c 1,45,-1
 654 207 l 1,46,47
 630 155 630 155 601.5 113 c 128,-1,48
 573 71 573 71 535.5 41.5 c 128,-1,49
 498 12 498 12 449.5 -4 c 128,-1,50
 401 -20 401 -20 339 -20 c 0,0,1
373 115 m 0,51,52
 444 115 444 115 496.5 146.5 c 128,-1,53
 549 178 549 178 584 227 c 128,-1,54
 619 276 619 276 636.5 334 c 128,-1,55
 654 392 654 392 654 445 c 2,56,-1
 654 534 l 1,57,-1
 492 530 l 2,58,59
 438 529 438 529 389 520.5 c 128,-1,60
 340 512 340 512 303.5 487 c 128,-1,61
 267 462 267 462 245 417 c 128,-1,62
 223 372 223 372 223 299 c 0,63,64
 223 211 223 211 262 163 c 128,-1,65
 301 115 301 115 373 115 c 0,51,52
EndSplineSet
EndChar

StartChar: b
Encoding: 98 98 69
Width: 934
GlyphClass: 2
Flags: W
LayerCount: 2
Fore
SplineSet
863 546 m 0,0,1
 863 -20 863 -20 537 -20 c 0,2,3
 436 -20 436 -20 369.5 24.5 c 128,-1,4
 303 69 303 69 261 168 c 1,5,-1
 259 168 l 1,6,7
 259 142 259 142 258 114 c 128,-1,8
 257 86 257 86 256 62 c 2,9,-1
 253 21 l 2,10,11
 252 4 252 4 251 0 c 1,12,-1
 108 0 l 1,13,14
 109 9 109 9 110 30.5 c 128,-1,15
 111 52 111 52 111.5 82 c 128,-1,16
 112 112 112 112 112.5 148 c 128,-1,17
 113 184 113 184 113 223 c 2,18,-1
 113 1484 l 1,19,-1
 261 1484 l 1,20,-1
 261 1061 l 2,21,22
 261 1031 261 1031 260.5 1003.5 c 128,-1,23
 260 976 260 976 259 955 c 0,24,25
 258 930 258 930 257 908 c 1,26,-1
 261 908 l 1,27,28
 302 1012 302 1012 369.5 1057 c 128,-1,29
 437 1102 437 1102 537 1102 c 0,30,31
 705 1102 705 1102 784 964 c 128,-1,32
 863 826 863 826 863 546 c 0,0,1
708 540 m 0,33,34
 708 652 708 652 697 732 c 128,-1,35
 686 812 686 812 660.5 863.5 c 128,-1,36
 635 915 635 915 595.5 939 c 128,-1,37
 556 963 556 963 499 963 c 0,38,39
 441 963 441 963 396.5 940 c 128,-1,40
 352 917 352 917 322 866 c 128,-1,41
 292 815 292 815 276.5 732 c 128,-1,42
 261 649 261 649 261 529 c 0,43,44
 261 413 261 413 276.5 334 c 128,-1,45
 292 255 292 255 322 205.5 c 128,-1,46
 352 156 352 156 396 134.5 c 128,-1,47
 440 113 440 113 498 113 c 0,48,49
 552 113 552 113 591.5 136 c 128,-1,50
 631 159 631 159 657 210 c 128,-1,51
 683 261 683 261 695.5 342.5 c 128,-1,52
 708 424 708 424 708 540 c 0,33,34
EndSplineSet
EndChar

StartChar: c
Encoding: 99 99 70
Width: 840
GlyphClass: 2
Flags: W
LayerCount: 2
Fore
SplineSet
226 546 m 0,0,1
 226 453 226 453 237 375 c 128,-1,2
 248 297 248 297 274 240.5 c 128,-1,3
 300 184 300 184 343 153 c 128,-1,4
 386 122 386 122 450 122 c 0,5,6
 529 122 529 122 581.5 174 c 128,-1,7
 634 226 634 226 646 334 c 1,8,-1
 796 322 l 1,9,10
 789 255 789 255 764 193 c 128,-1,11
 739 131 739 131 697 84 c 128,-1,12
 655 37 655 37 594 8.5 c 128,-1,13
 533 -20 533 -20 454 -20 c 0,14,15
 350 -20 350 -20 276.5 23 c 128,-1,16
 203 66 203 66 157.5 141.5 c 128,-1,17
 112 217 112 217 91.5 319.5 c 128,-1,18
 71 422 71 422 71 542 c 0,19,20
 71 651 71 651 86 734.5 c 128,-1,21
 101 818 101 818 127.5 880.5 c 128,-1,22
 154 943 154 943 190 985.5 c 128,-1,23
 226 1028 226 1028 268.5 1053.5 c 128,-1,24
 311 1079 311 1079 357.5 1090.5 c 128,-1,25
 404 1102 404 1102 452 1102 c 0,26,27
 527 1102 527 1102 585 1077 c 128,-1,28
 643 1052 643 1052 685.5 1008.5 c 128,-1,29
 728 965 728 965 754 906 c 128,-1,30
 780 847 780 847 791 779 c 1,31,-1
 639 765 l 1,32,33
 628 855 628 855 581 908 c 128,-1,34
 534 961 534 961 448 961 c 0,35,36
 385 961 385 961 342.5 935.5 c 128,-1,37
 300 910 300 910 274 858.5 c 128,-1,38
 248 807 248 807 237 729 c 128,-1,39
 226 651 226 651 226 546 c 0,0,1
EndSplineSet
EndChar

StartChar: d
Encoding: 100 100 71
Width: 934
GlyphClass: 2
Flags: W
LayerCount: 2
Fore
SplineSet
673 174 m 1,0,1
 632 70 632 70 564.5 25 c 128,-1,2
 497 -20 497 -20 397 -20 c 0,3,4
 229 -20 229 -20 150 118 c 128,-1,5
 71 256 71 256 71 536 c 0,6,7
 71 1102 71 1102 397 1102 c 0,8,9
 498 1102 498 1102 565 1057 c 128,-1,10
 632 1012 632 1012 673 914 c 1,11,-1
 675 914 l 1,12,13
 675 924 675 924 674 946 c 1,14,-1
 674 990 l 1,15,16
 673 1014 673 1014 673 1035 c 2,17,-1
 673 1065 l 1,18,-1
 673 1484 l 1,19,-1
 821 1484 l 1,20,-1
 821 223 l 2,21,22
 821 184 821 184 821.5 148 c 128,-1,23
 822 112 822 112 822.5 82 c 128,-1,24
 823 52 823 52 824 30.5 c 128,-1,25
 825 9 825 9 826 0 c 1,26,-1
 685 0 l 1,27,28
 683 10 683 10 682 28.5 c 128,-1,29
 681 47 681 47 679.5 71 c 128,-1,30
 678 95 678 95 677.5 121.5 c 128,-1,31
 677 148 677 148 677 174 c 1,32,-1
 673 174 l 1,0,1
226 542 m 0,33,34
 226 430 226 430 237 350 c 128,-1,35
 248 270 248 270 273.5 218.5 c 128,-1,36
 299 167 299 167 338.5 143 c 128,-1,37
 378 119 378 119 435 119 c 0,38,39
 493 119 493 119 537.5 142 c 128,-1,40
 582 165 582 165 612 216.5 c 128,-1,41
 642 268 642 268 657.5 351 c 128,-1,42
 673 434 673 434 673 554 c 0,43,44
 673 669 673 669 657.5 748.5 c 128,-1,45
 642 828 642 828 611.5 877 c 128,-1,46
 581 926 581 926 537.5 947.5 c 128,-1,47
 494 969 494 969 436 969 c 0,48,49
 382 969 382 969 342.5 946 c 128,-1,50
 303 923 303 923 277 872 c 128,-1,51
 251 821 251 821 238.5 739.5 c 128,-1,52
 226 658 226 658 226 542 c 0,33,34
EndSplineSet
EndChar

StartChar: e
Encoding: 101 101 72
Width: 934
GlyphClass: 2
Flags: W
LayerCount: 2
Fore
SplineSet
219 503 m 1,0,1
 219 418 219 418 237 346.5 c 128,-1,2
 255 275 255 275 285 223.5 c 128,-1,3
 315 172 315 172 361.5 143.5 c 128,-1,4
 408 115 408 115 474 115 c 0,5,6
 570 115 570 115 628 162 c 128,-1,7
 686 209 686 209 706 281 c 1,8,-1
 836 236 l 1,9,10
 822 191 822 191 797 145.5 c 128,-1,11
 772 100 772 100 730 63.5 c 128,-1,12
 688 27 688 27 625.5 3.5 c 128,-1,13
 563 -20 563 -20 474 -20 c 0,14,15
 277 -20 277 -20 174 123 c 128,-1,16
 71 266 71 266 71 548 c 0,17,18
 71 700 71 700 102.5 805.5 c 128,-1,19
 134 911 134 911 188 977 c 128,-1,20
 242 1043 242 1043 314 1072.5 c 128,-1,21
 386 1102 386 1102 468 1102 c 0,22,23
 580 1102 580 1102 655 1058 c 0,24,25
 800.429 972.682 800.429 972.682 840 754 c 0,26,27
 859 649 859 649 859 527 c 2,28,-1
 859 503 l 1,29,-1
 219 503 l 1,0,1
711 641 m 1,30,31
 711 822 711 822 643.5 895.5 c 128,-1,32
 576 969 576 969 466 969 c 0,33,34
 388.272 969 388.272 969 313.5 903 c 0,35,36
 224.165 825.956 224.165 825.956 219 641 c 1,37,-1
 711 641 l 1,30,31
EndSplineSet
EndChar

StartChar: f
Encoding: 102 102 73
Width: 467
GlyphClass: 2
Flags: W
LayerCount: 2
Fore
SplineSet
296 951 m 1,0,-1
 296 0 l 1,1,-1
 149 0 l 1,2,-1
 149 951 l 1,3,-1
 24 951 l 1,4,-1
 24 1082 l 1,5,-1
 149 1082 l 1,6,-1
 149 1204 l 2,7,8
 149 1263 149 1263 158 1313.5 c 128,-1,9
 167 1364 167 1364 191 1401.5 c 128,-1,10
 215 1439 215 1439 257 1460.5 c 128,-1,11
 299 1482 299 1482 365 1482 c 0,12,13
 391 1482 391 1482 419.5 1479 c 128,-1,14
 448 1476 448 1476 469 1470 c 1,15,-1
 469 1333 l 1,16,17
 455 1336 455 1336 437 1338.5 c 128,-1,18
 419 1341 419 1341 404 1341 c 0,19,20
 371 1341 371 1341 350 1330 c 128,-1,21
 329 1319 329 1319 317 1298.5 c 128,-1,22
 305 1278 305 1278 300.5 1248 c 128,-1,23
 296 1218 296 1218 296 1179 c 2,24,-1
 296 1082 l 1,25,-1
 469 1082 l 1,26,-1
 469 951 l 1,27,-1
 296 951 l 1,0,-1
EndSplineSet
EndChar

StartChar: g
Encoding: 103 103 74
Width: 934
GlyphClass: 2
Flags: W
LayerCount: 2
Fore
SplineSet
449 -425 m 0,0,1
 373 -425 373 -425 314 -406 c 128,-1,2
 255 -387 255 -387 213 -351.5 c 128,-1,3
 171 -316 171 -316 145 -267 c 128,-1,4
 119 -218 119 -218 107 -158 c 1,5,-1
 256 -132 l 1,6,7
 271 -207 271 -207 321 -247.5 c 128,-1,8
 371 -288 371 -288 453 -288 c 0,9,10
 503 -288 503 -288 544 -271 c 128,-1,11
 585 -254 585 -254 614 -216.5 c 128,-1,12
 643 -179 643 -179 658.5 -119 c 128,-1,13
 674 -59 674 -59 674 27 c 2,14,-1
 674 201 l 1,15,-1
 672 201 l 1,16,17
 656 160 656 160 632 122.5 c 128,-1,18
 608 85 608 85 573 56 c 128,-1,19
 538 27 538 27 492 9.5 c 128,-1,20
 446 -8 446 -8 387 -8 c 0,21,22
 303 -8 303 -8 242.5 26.5 c 128,-1,23
 182 61 182 61 144 130 c 128,-1,24
 106 199 106 199 88.5 301.5 c 128,-1,25
 71 404 71 404 71 539 c 0,26,27
 71 669 71 669 88.5 773 c 128,-1,28
 106 877 106 877 145.5 949.5 c 128,-1,29
 185 1022 185 1022 248.5 1060.5 c 128,-1,30
 312 1099 312 1099 403 1099 c 0,31,32
 497 1099 497 1099 566.5 1046.5 c 128,-1,33
 636 994 636 994 674 897 c 1,34,-1
 676 897 l 1,35,36
 676 922 676 922 677 953 c 128,-1,37
 678 984 678 984 679.5 1011.5 c 128,-1,38
 681 1039 681 1039 682.5 1059 c 128,-1,39
 684 1079 684 1079 686 1082 c 1,40,-1
 826 1082 l 1,41,42
 825 1073 825 1073 824 1051.5 c 128,-1,43
 823 1030 823 1030 822.5 1000 c 128,-1,44
 822 970 822 970 821.5 933.5 c 128,-1,45
 821 897 821 897 821 858 c 2,46,-1
 821 31 l 2,47,48
 821 -196 821 -196 729.5 -310.5 c 128,-1,49
 638 -425 638 -425 449 -425 c 0,0,1
674 541 m 0,50,51
 674 654 674 654 654 734.5 c 128,-1,52
 634 815 634 815 601 866 c 128,-1,53
 568 917 568 917 526 941 c 128,-1,54
 484 965 484 965 440 965 c 0,55,56
 383 965 383 965 342.5 941 c 128,-1,57
 302 917 302 917 275 865.5 c 128,-1,58
 248 814 248 814 235.5 733.5 c 128,-1,59
 223 653 223 653 223 541 c 0,60,61
 223 424 223 424 235.5 344.5 c 128,-1,62
 248 265 248 265 274.5 216 c 128,-1,63
 301 167 301 167 341 146 c 128,-1,64
 381 125 381 125 437 125 c 0,65,66
 481 125 481 125 523.5 148 c 128,-1,67
 566 171 566 171 599.5 221 c 128,-1,68
 633 271 633 271 653.5 350 c 128,-1,69
 674 429 674 429 674 541 c 0,50,51
EndSplineSet
EndChar

StartChar: h
Encoding: 104 104 75
Width: 934
GlyphClass: 2
Flags: W
LayerCount: 2
Fore
SplineSet
260 897 m 1,0,1
 285 952 285 952 313.5 990.5 c 128,-1,2
 342 1029 342 1029 376.5 1054 c 128,-1,3
 411 1079 411 1079 452 1090.5 c 128,-1,4
 493 1102 493 1102 544 1102 c 0,5,6
 629 1102 629 1102 683.5 1074 c 128,-1,7
 738 1046 738 1046 769.5 995.5 c 128,-1,8
 801 945 801 945 813 875 c 128,-1,9
 825 805 825 805 825 721 c 2,10,-1
 825 0 l 1,11,-1
 677 0 l 1,12,-1
 677 686 l 2,13,14
 677 755 677 755 670 807 c 128,-1,15
 663 859 663 859 643 893.5 c 128,-1,16
 623 928 623 928 587 945.5 c 128,-1,17
 551 963 551 963 494 963 c 0,18,19
 442 963 442 963 399.5 940 c 128,-1,20
 357 917 357 917 327 875 c 128,-1,21
 297 833 297 833 280.5 773 c 128,-1,22
 264 713 264 713 264 638 c 2,23,-1
 264 0 l 1,24,-1
 116 0 l 1,25,-1
 116 1484 l 1,26,-1
 264 1484 l 1,27,-1
 264 1098 l 2,28,29
 264 1065 264 1065 263 1032 c 128,-1,30
 262 999 262 999 261 971 c 128,-1,31
 260 943 260 943 259 923.5 c 128,-1,32
 258 904 258 904 257 897 c 1,33,-1
 260 897 l 1,0,1
EndSplineSet
EndChar

StartChar: i
Encoding: 105 105 76
Width: 373
GlyphClass: 2
Flags: W
LayerCount: 2
Fore
SplineSet
112 1312 m 1,0,-1
 112 1484 l 1,1,-1
 260 1484 l 1,2,-1
 260 1312 l 1,3,-1
 112 1312 l 1,0,-1
112 0 m 1,4,-1
 112 1082 l 1,5,-1
 260 1082 l 1,6,-1
 260 0 l 1,7,-1
 112 0 l 1,4,-1
EndSplineSet
EndChar

StartChar: j
Encoding: 106 106 77
Width: 373
GlyphClass: 2
Flags: W
LayerCount: 2
Fore
SplineSet
112 1312 m 1,0,-1
 112 1484 l 1,1,-1
 260 1484 l 1,2,-1
 260 1312 l 1,3,-1
 112 1312 l 1,0,-1
260 -134 m 2,4,5
 260 -196 260 -196 251.5 -249 c 128,-1,6
 243 -302 243 -302 220.5 -341 c 128,-1,7
 198 -380 198 -380 160 -402.5 c 128,-1,8
 122 -425 122 -425 63 -425 c 0,9,10
 35 -425 35 -425 8.5 -423 c 128,-1,11
 -18 -421 -18 -421 -41 -416 c 1,12,-1
 -41 -277 l 1,13,14
 -30 -279 -30 -279 -15.5 -281 c 128,-1,15
 -1 -283 -1 -283 10 -283 c 0,16,17
 41 -283 41 -283 61 -273 c 128,-1,18
 81 -263 81 -263 92.5 -241.5 c 128,-1,19
 104 -220 104 -220 108 -186.5 c 128,-1,20
 112 -153 112 -153 112 -107 c 2,21,-1
 112 1082 l 1,22,-1
 260 1082 l 1,23,-1
 260 -134 l 2,4,5
EndSplineSet
EndChar

StartChar: k
Encoding: 107 107 78
Width: 840
GlyphClass: 2
Flags: W
LayerCount: 2
Fore
SplineSet
669 0 m 1,0,-1
 369 494 l 1,1,-1
 261 385 l 1,2,-1
 261 0 l 1,3,-1
 113 0 l 1,4,-1
 113 1484 l 1,5,-1
 261 1484 l 1,6,-1
 261 557 l 1,7,-1
 651 1082 l 1,8,-1
 824 1082 l 1,9,-1
 463 617 l 1,10,-1
 842 0 l 1,11,-1
 669 0 l 1,0,-1
EndSplineSet
EndChar

StartChar: l
Encoding: 108 108 79
Width: 373
GlyphClass: 2
Flags: W
LayerCount: 2
Fore
SplineSet
113 0 m 1,0,-1
 113 1484 l 1,1,-1
 261 1484 l 1,2,-1
 261 0 l 1,3,-1
 113 0 l 1,0,-1
EndSplineSet
EndChar

StartChar: m
Encoding: 109 109 80
Width: 1399
GlyphClass: 2
Flags: W
LayerCount: 2
Fore
SplineSet
630 0 m 1,0,-1
 630 686 l 2,1,2
 630 765 630 765 621.5 818 c 128,-1,3
 613 871 613 871 594 903.5 c 128,-1,4
 575 936 575 936 544 949.5 c 128,-1,5
 513 963 513 963 467 963 c 0,6,7
 420 963 420 963 382.5 940.5 c 128,-1,8
 345 918 345 918 318.5 875.5 c 128,-1,9
 292 833 292 833 277.5 770.5 c 128,-1,10
 263 708 263 708 263 627 c 2,11,-1
 263 0 l 1,12,-1
 116 0 l 1,13,-1
 116 851 l 1,14,15
 116 851 116 851 116 922 c 0,16,17
 116 960 116 960 115 993.5 c 128,-1,18
 114 1027 114 1027 113 1051 c 128,-1,19
 112 1075 112 1075 112 1082 c 1,20,-1
 251 1082 l 1,21,22
 252 1077 252 1077 252.5 1055 c 128,-1,23
 253 1033 253 1033 254.5 1004.5 c 128,-1,24
 256 976 256 976 256.5 946.5 c 128,-1,25
 257 917 257 917 257 897 c 1,26,-1
 260 897 l 1,27,28
 280 944 280 944 303 982 c 128,-1,29
 326 1020 326 1020 356.5 1046.5 c 128,-1,30
 387 1073 387 1073 427 1087.5 c 128,-1,31
 467 1102 467 1102 519 1102 c 0,32,33
 620 1102 620 1102 678.5 1053 c 128,-1,34
 737 1004 737 1004 760 897 c 1,35,-1
 763 897 l 1,36,37
 783 944 783 944 807.5 982 c 128,-1,38
 832 1020 832 1020 864.5 1046.5 c 128,-1,39
 897 1073 897 1073 938 1087.5 c 128,-1,40
 979 1102 979 1102 1032 1102 c 0,41,42
 1099 1102 1099 1102 1147.5 1080 c 128,-1,43
 1196 1058 1196 1058 1227.5 1012 c 128,-1,44
 1259 966 1259 966 1273.5 893.5 c 128,-1,45
 1288 821 1288 821 1288 721 c 2,46,-1
 1288 0 l 1,47,-1
 1142 0 l 1,48,-1
 1142 686 l 2,49,50
 1142 765 1142 765 1134 818 c 128,-1,51
 1126 871 1126 871 1106.5 903.5 c 128,-1,52
 1087 936 1087 936 1056 949.5 c 128,-1,53
 1025 963 1025 963 980 963 c 0,54,55
 933 963 933 963 895.5 941.5 c 128,-1,56
 858 920 858 920 831 878 c 128,-1,57
 804 836 804 836 790 773 c 128,-1,58
 776 710 776 710 776 627 c 2,59,-1
 776 0 l 1,60,-1
 630 0 l 1,0,-1
EndSplineSet
EndChar

StartChar: n
Encoding: 110 110 81
Width: 934
GlyphClass: 2
Flags: W
LayerCount: 2
Fore
SplineSet
677 0 m 1,0,-1
 677 686 l 2,1,2
 677 765 677 765 667.5 818 c 128,-1,3
 658 871 658 871 636.5 903.5 c 128,-1,4
 615 936 615 936 580 949.5 c 128,-1,5
 545 963 545 963 494 963 c 0,6,7
 442 963 442 963 399.5 940.5 c 128,-1,8
 357 918 357 918 327 875.5 c 128,-1,9
 297 833 297 833 280.5 770.5 c 128,-1,10
 264 708 264 708 264 627 c 2,11,-1
 264 0 l 1,12,-1
 116 0 l 1,13,-1
 116 851 l 1,14,15
 116 851 116 851 116 922 c 0,16,17
 116 960 116 960 115 993.5 c 128,-1,18
 114 1027 114 1027 113 1051 c 128,-1,19
 112 1075 112 1075 112 1082 c 1,20,-1
 251 1082 l 1,21,22
 252 1077 252 1077 252.5 1055 c 128,-1,23
 253 1033 253 1033 254.5 1004.5 c 128,-1,24
 256 976 256 976 256.5 946.5 c 128,-1,25
 257 917 257 917 257 897 c 1,26,-1
 260 897 l 1,27,28
 281 944 281 944 306.5 982 c 128,-1,29
 332 1020 332 1020 365.5 1046.5 c 128,-1,30
 399 1073 399 1073 442.5 1087.5 c 128,-1,31
 486 1102 486 1102 544 1102 c 0,32,33
 618 1102 618 1102 671 1080 c 128,-1,34
 724 1058 724 1058 758.5 1012 c 128,-1,35
 793 966 793 966 809 893.5 c 128,-1,36
 825 821 825 821 825 721 c 2,37,-1
 825 0 l 1,38,-1
 677 0 l 1,0,-1
EndSplineSet
EndChar

StartChar: o
Encoding: 111 111 82
Width: 934
GlyphClass: 2
Flags: W
LayerCount: 2
Fore
SplineSet
863 542 m 0,0,1
 863 258 863 258 760.5 119 c 128,-1,2
 658 -20 658 -20 463 -20 c 0,3,4
 370 -20 370 -20 297.5 14 c 128,-1,5
 225 48 225 48 174.5 118 c 128,-1,6
 124 188 124 188 97.5 293.5 c 128,-1,7
 71 399 71 399 71 542 c 0,8,9
 71 1102 71 1102 468 1102 c 0,10,11
 571 1102 571 1102 646.5 1067 c 128,-1,12
 722 1032 722 1032 770 962 c 128,-1,13
 818 892 818 892 840.5 787 c 128,-1,14
 863 682 863 682 863 542 c 0,0,1
708 542 m 256,15,16
 708 668 708 668 692.5 750 c 128,-1,17
 677 832 677 832 646 881 c 128,-1,18
 615 930 615 930 570.5 949.5 c 128,-1,19
 526 969 526 969 471 969 c 0,20,21
 414 969 414 969 368.5 948.5 c 128,-1,22
 323 928 323 928 291 878.5 c 128,-1,23
 259 829 259 829 242.5 747 c 128,-1,24
 226 665 226 665 226 542 c 0,25,26
 226 416 226 416 244 333.5 c 128,-1,27
 262 251 262 251 293.5 202 c 128,-1,28
 325 153 325 153 368 133 c 128,-1,29
 411 113 411 113 462 113 c 0,30,31
 519 113 519 113 564.5 132.5 c 128,-1,32
 610 152 610 152 642 201 c 128,-1,33
 674 250 674 250 691 333 c 128,-1,34
 708 416 708 416 708 542 c 256,15,16
EndSplineSet
EndChar

StartChar: p
Encoding: 112 112 83
Width: 934
GlyphClass: 2
Flags: W
LayerCount: 2
Fore
SplineSet
863 546 m 0,0,1
 863 423 863 423 847 319 c 128,-1,2
 831 215 831 215 792.5 140 c 128,-1,3
 754 65 754 65 691.5 22.5 c 128,-1,4
 629 -20 629 -20 537 -20 c 0,5,6
 442 -20 442 -20 370.5 24 c 128,-1,7
 299 68 299 68 262 168 c 1,8,-1
 257 168 l 1,9,10
 258 166 258 166 258.5 150 c 128,-1,11
 259 134 259 134 259.5 110 c 128,-1,12
 260 86 260 86 260.5 56.5 c 128,-1,13
 261 27 261 27 261 -2 c 2,14,-1
 261 -425 l 1,15,-1
 113 -425 l 1,16,-1
 113 861 l 2,17,18
 113 900 113 900 112.5 936 c 128,-1,19
 112 972 112 972 111.5 1001.5 c 128,-1,20
 111 1031 111 1031 110 1052 c 128,-1,21
 109 1073 109 1073 108 1082 c 1,22,-1
 251 1082 l 1,23,24
 252 1079 252 1079 253 1061 c 2,25,-1
 256 1018 l 2,26,27
 257 992 257 992 258 963 c 128,-1,28
 259 934 259 934 259 908 c 1,29,-1
 262 908 l 1,30,31
 282 960 282 960 308.5 996.5 c 128,-1,32
 335 1033 335 1033 369 1056.5 c 128,-1,33
 403 1080 403 1080 444 1090.5 c 128,-1,34
 485 1101 485 1101 537 1101 c 0,35,36
 629 1101 629 1101 691.5 1061 c 128,-1,37
 754 1021 754 1021 792.5 948.5 c 128,-1,38
 831 876 831 876 847 773.5 c 128,-1,39
 863 671 863 671 863 546 c 0,0,1
708 542 m 0,40,41
 708 642 708 642 698.5 720 c 128,-1,42
 689 798 689 798 664.5 852 c 128,-1,43
 640 906 640 906 600 934 c 128,-1,44
 560 962 560 962 499 962 c 0,45,46
 450 962 450 962 406.5 945 c 128,-1,47
 363 928 363 928 330.5 880 c 128,-1,48
 298 832 298 832 279.5 747.5 c 128,-1,49
 261 663 261 663 261 528 c 0,50,51
 261 413 261 413 276.5 333.5 c 128,-1,52
 292 254 292 254 322 205 c 128,-1,53
 352 156 352 156 396 134.5 c 128,-1,54
 440 113 440 113 498 113 c 0,55,56
 560 113 560 113 600 142 c 128,-1,57
 640 171 640 171 664.5 226 c 128,-1,58
 689 281 689 281 698.5 360.5 c 128,-1,59
 708 440 708 440 708 542 c 0,40,41
EndSplineSet
EndChar

StartChar: q
Encoding: 113 113 84
Width: 934
GlyphClass: 2
Flags: W
LayerCount: 2
Fore
SplineSet
397 -20 m 0,0,1
 228 -20 228 -20 149.5 119 c 128,-1,2
 71 258 71 258 71 536 c 0,3,4
 71 818 71 818 151.5 960 c 128,-1,5
 232 1102 232 1102 397 1102 c 0,6,7
 452 1102 452 1102 494 1090 c 128,-1,8
 536 1078 536 1078 569.5 1054.5 c 128,-1,9
 603 1031 603 1031 628 996 c 128,-1,10
 653 961 653 961 673 914 c 1,11,-1
 675 914 l 1,12,13
 675 939 675 939 676 969.5 c 128,-1,14
 677 1000 677 1000 678.5 1027 c 128,-1,15
 680 1054 680 1054 681.5 1073.5 c 128,-1,16
 683 1093 683 1093 685 1096 c 1,17,-1
 827 1096 l 1,18,19
 825 1079 825 1079 823 1007 c 128,-1,20
 821 935 821 935 821 801 c 2,21,-1
 821 -425 l 1,22,-1
 673 -425 l 1,23,-1
 673 14 l 2,24,25
 673 40 673 40 673.5 68 c 128,-1,26
 674 96 674 96 675 121 c 2,27,28
 675 121 675 121 677 178 c 1,29,-1
 675 178 l 1,30,31
 654 127 654 127 628 89.5 c 128,-1,32
 602 52 602 52 568.5 27.5 c 128,-1,33
 535 3 535 3 492.5 -8.5 c 128,-1,34
 450 -20 450 -20 397 -20 c 0,0,1
673 554 m 0,35,36
 673 672 673 672 656.5 752 c 128,-1,37
 640 832 640 832 609 880 c 128,-1,38
 578 928 578 928 534 948.5 c 128,-1,39
 490 969 490 969 436 969 c 0,40,41
 379 969 379 969 339 943.5 c 128,-1,42
 299 918 299 918 274 865.5 c 128,-1,43
 249 813 249 813 237.5 732.5 c 128,-1,44
 226 652 226 652 226 542 c 0,45,46
 226 434 226 434 237 354 c 128,-1,47
 248 274 248 274 273 222 c 128,-1,48
 298 170 298 170 337.5 144.5 c 128,-1,49
 377 119 377 119 435 119 c 0,50,51
 484 119 484 119 527.5 137.5 c 128,-1,52
 571 156 571 156 603.5 204.5 c 128,-1,53
 636 253 636 253 654.5 337.5 c 128,-1,54
 673 422 673 422 673 554 c 0,35,36
EndSplineSet
EndChar

StartChar: r
Encoding: 114 114 85
Width: 559
GlyphClass: 2
Flags: W
LayerCount: 2
Fore
SplineSet
116 0 m 1,0,-1
 116 830 l 1,1,2
 116 830 116 830 116 900 c 0,3,4
 116 935 116 935 115 968 c 128,-1,5
 114 1001 114 1001 113 1030 c 128,-1,6
 112 1059 112 1059 111 1082 c 1,7,-1
 251 1082 l 1,8,9
 252 1059 252 1059 253 1029.5 c 128,-1,10
 254 1000 254 1000 255.5 969 c 128,-1,11
 257 938 257 938 257 910 c 2,12,-1
 257 861 l 1,13,-1
 261 861 l 1,14,15
 277 923 277 923 294 968.5 c 128,-1,16
 311 1014 311 1014 335 1043.5 c 128,-1,17
 359 1073 359 1073 392 1087.5 c 128,-1,18
 425 1102 425 1102 471 1102 c 0,19,20
 489 1102 489 1102 505.5 1098.5 c 128,-1,21
 522 1095 522 1095 531 1092 c 1,22,-1
 531 927 l 1,23,24
 516 932 516 932 496.5 934.5 c 128,-1,25
 477 937 477 937 452 937 c 0,26,27
 401 937 401 937 365.5 909 c 128,-1,28
 330 881 330 881 307.5 831.5 c 128,-1,29
 285 782 285 782 274.5 713.5 c 128,-1,30
 264 645 264 645 264 564 c 2,31,-1
 264 0 l 1,32,-1
 116 0 l 1,0,-1
EndSplineSet
EndChar

StartChar: s
Encoding: 115 115 86
Width: 840
GlyphClass: 2
Flags: W
LayerCount: 2
Fore
SplineSet
779 299 m 0,0,1
 779 223 779 223 755 163.5 c 128,-1,2
 731 104 731 104 685 63.5 c 128,-1,3
 639 23 639 23 572 1.5 c 128,-1,4
 505 -20 505 -20 419 -20 c 0,5,6
 342 -20 342 -20 280 -5.5 c 128,-1,7
 218 9 218 9 171.5 41 c 128,-1,8
 125 73 125 73 93.5 125.5 c 128,-1,9
 62 178 62 178 47 254 c 1,10,-1
 177 285 l 1,11,12
 196 198 196 198 255 157.5 c 128,-1,13
 314 117 314 117 419 117 c 0,14,15
 467 117 467 117 506.5 125 c 128,-1,16
 546 133 546 133 575 152.5 c 128,-1,17
 604 172 604 172 620 204.5 c 128,-1,18
 636 237 636 237 636 285 c 0,19,20
 636 334 636 334 617 365.5 c 128,-1,21
 598 397 598 397 564.5 418 c 128,-1,22
 531 439 531 439 483 454 c 2,23,-1
 377 489 l 2,24,25
 324 506 324 506 271.5 527 c 128,-1,26
 219 548 219 548 177 582.5 c 128,-1,27
 135 617 135 617 108.5 668 c 128,-1,28
 82 719 82 719 82 796 c 0,29,30
 82 944 82 944 168.5 1021.5 c 128,-1,31
 255 1099 255 1099 421 1099 c 0,32,33
 568 1099 568 1099 654.5 1036 c 128,-1,34
 741 973 741 973 764 834 c 1,35,-1
 631 814 l 1,36,37
 624 856 624 856 604 884.5 c 128,-1,38
 584 913 584 913 556 930.5 c 128,-1,39
 528 948 528 948 493.5 955.5 c 128,-1,40
 459 963 459 963 421 963 c 0,41,42
 321 963 321 963 273.5 926 c 128,-1,43
 226 889 226 889 226 814 c 0,44,45
 226 770 226 770 243.5 741.5 c 128,-1,46
 261 713 261 713 292.5 693.5 c 128,-1,47
 324 674 324 674 368 660 c 2,48,-1
 466 629 l 1,49,50
 466 629 466 629 538 606 c 1,51,52
 575 593 575 593 610 575.5 c 128,-1,53
 645 558 645 558 675.5 534.5 c 128,-1,54
 706 511 706 511 729 478 c 128,-1,55
 752 445 752 445 765.5 401 c 128,-1,56
 779 357 779 357 779 299 c 0,0,1
EndSplineSet
EndChar

StartChar: t
Encoding: 116 116 87
Width: 467
GlyphClass: 2
Flags: W
LayerCount: 2
Fore
SplineSet
455 8 m 1,0,1
 421 -3 421 -3 386 -9.5 c 128,-1,2
 351 -16 351 -16 305 -16 c 0,3,4
 128 -16 128 -16 128 229 c 2,5,-1
 128 951 l 1,6,-1
 25 951 l 1,7,-1
 25 1082 l 1,8,-1
 134 1082 l 1,9,-1
 177 1324 l 1,10,-1
 276 1324 l 1,11,-1
 276 1082 l 1,12,-1
 440 1082 l 1,13,-1
 440 951 l 1,14,-1
 276 951 l 1,15,-1
 276 268 l 2,16,17
 276 190 276 190 297 158.5 c 128,-1,18
 318 127 318 127 369 127 c 0,19,20
 390 127 390 127 410.5 131 c 128,-1,21
 431 135 431 135 455 141 c 1,22,-1
 455 8 l 1,0,1
EndSplineSet
EndChar

StartChar: u
Encoding: 117 117 88
Width: 934
GlyphClass: 2
Flags: W
LayerCount: 2
Fore
SplineSet
257 1082 m 1,0,-1
 257 396 l 2,1,2
 257 317 257 317 266.5 264 c 128,-1,3
 276 211 276 211 297.5 178.5 c 128,-1,4
 319 146 319 146 354 132.5 c 128,-1,5
 389 119 389 119 440 119 c 0,6,7
 492 119 492 119 534.5 141.5 c 128,-1,8
 577 164 577 164 607 206.5 c 128,-1,9
 637 249 637 249 653.5 311.5 c 128,-1,10
 670 374 670 374 670 455 c 2,11,-1
 670 1082 l 1,12,-1
 818 1082 l 1,13,-1
 818 231 l 1,14,15
 818 231 818 231 818 160 c 0,16,17
 818 122 818 122 819 88.5 c 128,-1,18
 820 55 820 55 821 31 c 128,-1,19
 822 7 822 7 822 0 c 1,20,-1
 683 0 l 1,21,22
 682 5 682 5 681.5 27 c 128,-1,23
 681 49 681 49 679.5 77.5 c 128,-1,24
 678 106 678 106 677.5 135.5 c 128,-1,25
 677 165 677 165 677 185 c 1,26,-1
 674 185 l 1,27,28
 653 138 653 138 627.5 100 c 128,-1,29
 602 62 602 62 568.5 35.5 c 128,-1,30
 535 9 535 9 491.5 -5.5 c 128,-1,31
 448 -20 448 -20 390 -20 c 0,32,33
 316 -20 316 -20 263 2 c 128,-1,34
 210 24 210 24 175.5 70 c 128,-1,35
 141 116 141 116 125 188 c 128,-1,36
 109 260 109 260 109 361 c 2,37,-1
 109 1082 l 1,38,-1
 257 1082 l 1,0,-1
EndSplineSet
EndChar

StartChar: v
Encoding: 118 118 89
Width: 840
GlyphClass: 2
Flags: W
LayerCount: 2
Fore
SplineSet
503 0 m 1,0,-1
 328 0 l 1,1,-1
 6 1082 l 1,2,-1
 163 1082 l 1,3,-1
 358 378 l 1,4,5
 358 378 358 378 372 324 c 2,6,-1
 388 259 l 1,7,-1
 403 194 l 1,8,-1
 415 141 l 1,9,10
 415 141 415 141 428 194 c 2,11,-1
 444 258 l 2,12,13
 452 291 452 291 460.5 322.5 c 128,-1,14
 469 354 469 354 476 376 c 2,15,-1
 678 1082 l 1,16,-1
 834 1082 l 1,17,-1
 503 0 l 1,0,-1
EndSplineSet
EndChar

StartChar: w
Encoding: 119 119 90
Width: 1212
GlyphClass: 2
Flags: W
LayerCount: 2
Fore
SplineSet
962 0 m 1,0,-1
 791 0 l 1,1,-1
 649 698 l 1,2,3
 642 725 642 725 635.5 765 c 128,-1,4
 629 805 629 805 622 843 c 2,5,6
 622 843 622 843 606 934 c 1,7,8
 599 889 599 889 591 845 c 2,9,10
 591 845 591 845 576 766 c 0,11,12
 569 725 569 725 562 694 c 2,13,-1
 416 0 l 1,14,-1
 246 0 l 1,15,-1
 -2 1082 l 1,16,-1
 143 1082 l 1,17,-1
 293 347 l 1,18,19
 299 324 299 324 305 290.5 c 128,-1,20
 311 257 311 257 316 225 c 0,21,22
 322 188 322 188 329 149 c 1,23,-1
 343 223 l 1,24,25
 350 254 350 254 356 286 c 128,-1,26
 362 318 362 318 367 339 c 2,27,-1
 528 1082 l 1,28,-1
 686 1082 l 1,29,-1
 841 339 l 2,30,31
 847 313 847 313 853.5 280 c 128,-1,32
 860 247 860 247 865 218 c 0,33,34
 872 184 872 184 878 149 c 1,35,36
 878 149 878 149 892 223 c 2,37,38
 892 223 892 223 904 288 c 2,39,-1
 915 347 l 1,40,-1
 1072 1082 l 1,41,-1
 1216 1082 l 1,42,-1
 962 0 l 1,0,-1
EndSplineSet
EndChar

StartChar: x
Encoding: 120 120 91
Width: 840
GlyphClass: 2
Flags: W
LayerCount: 2
Fore
SplineSet
657 0 m 1,0,-1
 418 444 l 1,1,-1
 178 0 l 1,2,-1
 19 0 l 1,3,-1
 335 556 l 1,4,-1
 34 1082 l 1,5,-1
 197 1082 l 1,6,-1
 418 661 l 1,7,-1
 638 1082 l 1,8,-1
 803 1082 l 1,9,-1
 502 558 l 1,10,-1
 822 0 l 1,11,-1
 657 0 l 1,0,-1
EndSplineSet
EndChar

StartChar: y
Encoding: 121 121 92
Width: 840
GlyphClass: 2
Flags: W
LayerCount: 2
Fore
SplineSet
495 0 m 2,0,1
 464 -98 464 -98 431.5 -176.5 c 128,-1,2
 399 -255 399 -255 359 -310.5 c 128,-1,3
 319 -366 319 -366 270 -395.5 c 128,-1,4
 221 -425 221 -425 157 -425 c 0,5,6
 129 -425 129 -425 105 -423 c 128,-1,7
 81 -421 81 -421 55 -414 c 1,8,-1
 55 -279 l 1,9,10
 71 -282 71 -282 90.5 -283.5 c 128,-1,11
 110 -285 110 -285 124 -285 c 0,12,13
 189 -285 189 -285 244.5 -226 c 128,-1,14
 300 -167 300 -167 342 -38 c 2,15,-1
 356 5 l 1,16,-1
 4 1082 l 1,17,-1
 162 1082 l 1,18,-1
 349 484 l 1,19,20
 349 484 349 484 370 412 c 2,21,-1
 395 322 l 2,22,23
 408 277 408 277 417.5 241 c 128,-1,24
 427 205 427 205 429 196 c 1,25,26
 431 207 431 207 440 240 c 1,27,-1
 462 312 l 1,28,-1
 486 393 l 2,29,30
 499 434 499 434 507 464 c 2,31,-1
 681 1082 l 1,32,-1
 837 1082 l 1,33,-1
 495 0 l 2,0,1
EndSplineSet
EndChar

StartChar: z
Encoding: 122 122 93
Width: 840
GlyphClass: 2
Flags: W
LayerCount: 2
Fore
SplineSet
40 0 m 1,0,-1
 40 137 l 1,1,-1
 582 943 l 1,2,-1
 73 943 l 1,3,-1
 73 1082 l 1,4,-1
 749 1082 l 1,5,-1
 749 945 l 1,6,-1
 206 139 l 1,7,-1
 779 139 l 1,8,-1
 779 0 l 1,9,-1
 40 0 l 1,0,-1
EndSplineSet
EndChar

StartChar: braceleft
Encoding: 123 123 94
Width: 561
GlyphClass: 2
Flags: W
LayerCount: 2
Fore
SplineSet
421 -425 m 2,0,1
 368 -425 368 -425 327 -404.5 c 128,-1,2
 286 -384 286 -384 259 -346 c 128,-1,3
 232 -308 232 -308 218 -254 c 128,-1,4
 204 -200 204 -200 204 -132 c 2,5,-1
 204 229 l 2,6,7
 204 292 204 292 192 336 c 128,-1,8
 180 380 180 380 157.5 408 c 128,-1,9
 135 436 135 436 102.5 450 c 128,-1,10
 70 464 70 464 28 466 c 1,11,-1
 28 593 l 1,12,13
 70 595 70 595 102.5 609 c 128,-1,14
 135 623 135 623 157.5 651 c 128,-1,15
 180 679 180 679 192 723 c 128,-1,16
 204 767 204 767 204 829 c 2,17,-1
 204 1191 l 2,18,19
 204 1332 204 1332 258.5 1408 c 128,-1,20
 313 1484 313 1484 421 1484 c 2,21,-1
 531 1484 l 1,22,-1
 531 1355 l 1,23,-1
 480 1355 l 2,24,25
 405 1355 405 1355 373.5 1301.5 c 128,-1,26
 342 1248 342 1248 342 1140 c 2,27,-1
 342 784 l 2,28,29
 342 734 342 734 329.5 692 c 128,-1,30
 317 650 317 650 296 618 c 128,-1,31
 275 586 275 586 246 564 c 128,-1,32
 217 542 217 542 183 532 c 1,33,-1
 183 530 l 1,34,35
 218 520 218 520 247 498 c 128,-1,36
 276 476 276 476 297 443.5 c 128,-1,37
 318 411 318 411 330 369 c 128,-1,38
 342 327 342 327 342 276 c 2,39,-1
 342 -81 l 2,40,41
 342 -187 342 -187 373.5 -241.5 c 128,-1,42
 405 -296 405 -296 480 -296 c 2,43,-1
 531 -296 l 1,44,-1
 531 -425 l 1,45,-1
 421 -425 l 2,0,1
EndSplineSet
EndChar

StartChar: bar
Encoding: 124 124 95
Width: 436
GlyphClass: 2
Flags: W
LayerCount: 2
Fore
SplineSet
150 -434 m 1,0,-1
 150 1484 l 1,1,-1
 286 1484 l 1,2,-1
 286 -434 l 1,3,-1
 150 -434 l 1,0,-1
EndSplineSet
EndChar

StartChar: braceright
Encoding: 125 125 96
Width: 561
GlyphClass: 2
Flags: W
LayerCount: 2
Fore
SplineSet
77 -296 m 2,0,1
 152 -296 152 -296 184.5 -241.5 c 128,-1,2
 217 -187 217 -187 217 -81 c 2,3,-1
 217 276 l 2,4,5
 217 327 217 327 228 369 c 128,-1,6
 239 411 239 411 260 443.5 c 128,-1,7
 281 476 281 476 310.5 498 c 128,-1,8
 340 520 340 520 375 530 c 1,9,-1
 375 532 l 1,10,11
 341 542 341 542 312 564 c 128,-1,12
 283 586 283 586 261.5 618 c 128,-1,13
 240 650 240 650 228.5 692 c 128,-1,14
 217 734 217 734 217 784 c 2,15,-1
 217 1140 l 2,16,17
 217 1248 217 1248 184.5 1301.5 c 128,-1,18
 152 1355 152 1355 77 1355 c 2,19,-1
 28 1355 l 1,20,-1
 28 1484 l 1,21,-1
 136 1484 l 2,22,23
 243 1484 243 1484 298 1408 c 128,-1,24
 353 1332 353 1332 353 1191 c 2,25,-1
 353 829 l 2,26,27
 353 767 353 767 364.5 723 c 128,-1,28
 376 679 376 679 399 651 c 128,-1,29
 422 623 422 623 455 609 c 128,-1,30
 488 595 488 595 531 593 c 1,31,-1
 531 466 l 1,32,33
 488 464 488 464 455 450 c 128,-1,34
 422 436 422 436 399 408 c 128,-1,35
 376 380 376 380 364.5 336 c 128,-1,36
 353 292 353 292 353 229 c 2,37,-1
 353 -132 l 2,38,39
 353 -200 353 -200 339 -254 c 128,-1,40
 325 -308 325 -308 298 -346 c 128,-1,41
 271 -384 271 -384 230 -404.5 c 128,-1,42
 189 -425 189 -425 136 -425 c 2,43,-1
 28 -425 l 1,44,-1
 28 -296 l 1,45,-1
 77 -296 l 2,0,1
EndSplineSet
EndChar

StartChar: asciitilde
Encoding: 126 126 97
Width: 981
GlyphClass: 2
Flags: W
LayerCount: 2
Fore
SplineSet
692 553 m 0,0,1
 635 553 635 553 576 575 c 128,-1,2
 517 597 517 597 457 623 c 0,3,4
 351 668 351 668 279 668 c 0,5,6
 248 668 248 668 221 662 c 128,-1,7
 194 656 194 656 169.5 644.5 c 128,-1,8
 145 633 145 633 122 617 c 128,-1,9
 99 601 99 601 75 580 c 1,10,-1
 75 723 l 1,11,12
 116 761 116 761 170.5 784 c 128,-1,13
 225 807 225 807 291 807 c 0,14,15
 324 807 324 807 357 800.5 c 128,-1,16
 390 794 390 794 421.5 784 c 128,-1,17
 453 774 453 774 484 761 c 2,18,-1
 545 735 l 2,19,20
 562 727 562 727 582 720 c 2,21,-1
 624 705 l 2,22,23
 645 698 645 698 666 694 c 128,-1,24
 687 690 687 690 705 690 c 0,25,26
 762 690 762 690 812.5 715 c 128,-1,27
 863 740 863 740 906 782 c 1,28,-1
 906 633 l 1,29,30
 880 610 880 610 855.5 595 c 128,-1,31
 831 580 831 580 806 570.5 c 128,-1,32
 781 561 781 561 753 557 c 128,-1,33
 725 553 725 553 692 553 c 0,0,1
EndSplineSet
EndChar

StartChar: exclamdown
Encoding: 161 161 98
Width: 559
GlyphClass: 2
Flags: W
LayerCount: 2
Fore
SplineSet
218 685 m 1,0,-1
 339 685 l 1,1,-1
 359 -327 l 1,2,-1
 198 -327 l 1,3,-1
 218 685 l 1,0,-1
361 1082 m 1,4,-1
 361 881 l 1,5,-1
 202 881 l 1,6,-1
 202 1082 l 1,7,-1
 361 1082 l 1,4,-1
EndSplineSet
EndChar

StartChar: cent
Encoding: 162 162 99
Width: 934
GlyphClass: 2
Flags: W
HStem: 137 145.123<363.656 441 543 617.795> 1112.13 141.875<355.154 441> 1389 20G<441 543>
VStem: 111 154<404.265 1003.42> 441 102<-31 143.437 283.89 1109.36 1247.13 1409> 686 149<356.709 478.155 932.722 1035.63>
LayerCount: 2
Fore
SplineSet
441 282.123 m 1,0,-1
 441 1112.13 l 1,1,2
 304.698 1087.5 304.698 1087.5 276 884 c 0,3,4
 265 806 265 806 265 707 c 128,-1,5
 265 608 265 608 276 530 c 0,6,7
 306.62 312.874 306.62 312.874 441 282.123 c 1,0,-1
543 283.89 m 1,8,9
 665.329 317.275 665.329 317.275 686 489 c 1,10,-1
 835 477 l 1,11,12
 811.116 265.458 811.116 265.458 662.5 176 c 0,13,14
 611 145 611 145 543 137 c 1,15,-1
 543 -31 l 1,16,-1
 441 -31 l 1,17,-1
 441 137 l 1,18,19
 111 173.264 111 173.264 111 697 c 0,20,21
 111 975.264 111 975.264 210.5 1118.5 c 0,22,23
 293.599 1238.13 293.599 1238.13 441 1254 c 1,24,-1
 441 1409 l 1,25,-1
 543 1409 l 1,26,-1
 543 1254 l 1,27,28
 725.464 1231.19 725.464 1231.19 798 1051.5 c 0,29,30
 820 997 820 997 830 934 c 1,31,-1
 678 920 l 1,32,33
 667 1010 667 1010 628.319 1053.62 c 128,-1,34
 589.638 1097.24 589.638 1097.24 543 1109.36 c 1,35,-1
 543 283.89 l 1,8,9
EndSplineSet
EndChar

StartChar: sterling
Encoding: 163 163 100
Width: 934
GlyphClass: 2
Flags: W
LayerCount: 2
Fore
SplineSet
905 311 m 1,0,1
 898 231 898 231 874.5 172.5 c 128,-1,2
 851 114 851 114 814.5 75.5 c 128,-1,3
 778 37 778 37 731 18.5 c 128,-1,4
 684 0 684 0 629 0 c 2,5,-1
 57 0 l 1,6,-1
 57 154 l 1,7,8
 130 200 130 200 165 280 c 128,-1,9
 200 360 200 360 200 481 c 2,10,-1
 200 625 l 1,11,-1
 48 625 l 1,12,-1
 48 754 l 1,13,-1
 200 754 l 1,14,-1
 200 1034 l 2,15,16
 200 1126 200 1126 219.5 1199.5 c 128,-1,17
 239 1273 239 1273 280 1324 c 128,-1,18
 321 1375 321 1375 383 1402.5 c 128,-1,19
 445 1430 445 1430 530 1430 c 0,20,21
 587 1430 587 1430 637.5 1415.5 c 128,-1,22
 688 1401 688 1401 728.5 1372 c 128,-1,23
 769 1343 769 1343 798 1300 c 128,-1,24
 827 1257 827 1257 842 1200 c 1,25,-1
 699 1143 l 1,26,27
 691 1174 691 1174 675 1200 c 128,-1,28
 659 1226 659 1226 637.5 1244 c 128,-1,29
 616 1262 616 1262 589.5 1272 c 128,-1,30
 563 1282 563 1282 533 1282 c 0,31,32
 440 1282 440 1282 394 1224.5 c 128,-1,33
 348 1167 348 1167 348 1042 c 2,34,-1
 348 754 l 1,35,-1
 682 754 l 1,36,-1
 682 625 l 1,37,-1
 348 625 l 1,38,-1
 348 499 l 2,39,40
 348 443 348 443 339 390 c 128,-1,41
 330 337 330 337 312 291 c 128,-1,42
 294 245 294 245 268 209.5 c 128,-1,43
 242 174 242 174 209 153 c 1,44,-1
 605 153 l 2,45,46
 636 153 636 153 663.5 162.5 c 128,-1,47
 691 172 691 172 713 193 c 128,-1,48
 735 214 735 214 750 247.5 c 128,-1,49
 765 281 765 281 772 329 c 1,50,-1
 905 311 l 1,0,1
EndSplineSet
EndChar

StartChar: currency
Encoding: 164 164 101
Width: 934
GlyphClass: 2
Flags: W
LayerCount: 2
Fore
SplineSet
112 684 m 256,0,1
 112 755 112 755 129 818.5 c 128,-1,2
 146 882 146 882 176 936 c 1,3,-1
 94 1036 l 1,4,-1
 180 1139 l 1,5,-1
 261 1038 l 1,6,7
 305 1077 305 1077 357 1098.5 c 128,-1,8
 409 1120 409 1120 469 1120 c 0,9,10
 527 1120 527 1120 579 1099 c 128,-1,11
 631 1078 631 1078 675 1040 c 1,12,-1
 754 1137 l 1,13,-1
 840 1032 l 1,14,-1
 761 936 l 1,15,16
 791 882 791 882 809 818.5 c 128,-1,17
 827 755 827 755 827 684 c 256,18,19
 827 613 827 613 808.5 549 c 128,-1,20
 790 485 790 485 759 432 c 1,21,-1
 841 332 l 1,22,-1
 758 227 l 1,23,-1
 675 328 l 1,24,25
 631 291 631 291 579 270.5 c 128,-1,26
 527 250 527 250 469 250 c 0,27,28
 410 250 410 250 357.5 271 c 128,-1,29
 305 292 305 292 262 330 c 1,30,-1
 176 225 l 1,31,-1
 93 330 l 1,32,-1
 176 432 l 1,33,34
 146 486 146 486 129 549.5 c 128,-1,35
 112 613 112 613 112 684 c 256,0,1
239 686 m 256,36,37
 239 628 239 628 257 577 c 128,-1,38
 275 526 275 526 306.5 488 c 128,-1,39
 338 450 338 450 379.5 428 c 128,-1,40
 421 406 421 406 469 406 c 0,41,42
 516 406 516 406 557.5 428 c 128,-1,43
 599 450 599 450 631 488 c 128,-1,44
 663 526 663 526 681 577 c 128,-1,45
 699 628 699 628 699 686 c 256,46,47
 699 744 699 744 681 795 c 128,-1,48
 663 846 663 846 631 884 c 128,-1,49
 599 922 599 922 557.5 944.5 c 128,-1,50
 516 967 516 967 469 967 c 0,51,52
 421 967 421 967 379.5 944.5 c 128,-1,53
 338 922 338 922 306.5 884 c 128,-1,54
 275 846 275 846 257 795 c 128,-1,55
 239 744 239 744 239 686 c 256,36,37
EndSplineSet
EndChar

StartChar: yen
Encoding: 165 165 102
Width: 934
GlyphClass: 2
Flags: W
LayerCount: 2
Fore
SplineSet
590 709 m 1,0,-1
 854 709 l 1,1,-1
 854 584 l 1,2,-1
 540 584 l 1,3,-1
 540 430 l 1,4,-1
 854 430 l 1,5,-1
 854 303 l 1,6,-1
 540 303 l 1,7,-1
 540 0 l 1,8,-1
 394 0 l 1,9,-1
 394 303 l 1,10,-1
 81 303 l 1,11,-1
 81 430 l 1,12,-1
 394 430 l 1,13,-1
 395 584 l 1,14,-1
 81 584 l 1,15,-1
 81 709 l 1,16,-1
 344 709 l 1,17,-1
 -2 1409 l 1,18,-1
 162 1409 l 1,19,-1
 466 762 l 1,20,-1
 773 1409 l 1,21,-1
 936 1409 l 1,22,-1
 590 709 l 1,0,-1
EndSplineSet
EndChar

StartChar: brokenbar
Encoding: 166 166 103
Width: 436
GlyphClass: 2
Flags: W
LayerCount: 2
Fore
SplineSet
150 706 m 1,0,-1
 150 1484 l 1,1,-1
 286 1484 l 1,2,-1
 286 706 l 1,3,-1
 150 706 l 1,0,-1
150 -434 m 1,4,-1
 150 345 l 1,5,-1
 286 345 l 1,6,-1
 286 -434 l 1,7,-1
 150 -434 l 1,4,-1
EndSplineSet
EndChar

StartChar: section
Encoding: 167 167 104
Width: 934
GlyphClass: 2
Flags: W
LayerCount: 2
Fore
SplineSet
482 1484 m 0,0,1
 547 1484 547 1484 603.5 1469 c 128,-1,2
 660 1454 660 1454 704.5 1422.5 c 128,-1,3
 749 1391 749 1391 779 1342 c 128,-1,4
 809 1293 809 1293 821 1224 c 1,5,-1
 689 1204 l 1,6,7
 682 1249 682 1249 663.5 1278 c 128,-1,8
 645 1307 645 1307 617 1324 c 128,-1,9
 589 1341 589 1341 554.5 1347.5 c 128,-1,10
 520 1354 520 1354 482 1354 c 0,11,12
 380 1354 380 1354 327 1314.5 c 128,-1,13
 274 1275 274 1275 274 1204 c 0,14,15
 274 1159 274 1159 294.5 1127 c 128,-1,16
 315 1095 315 1095 349 1072 c 128,-1,17
 383 1049 383 1049 427.5 1033 c 128,-1,18
 472 1017 472 1017 521 1003 c 0,19,20
 577 987 577 987 633.5 964 c 128,-1,21
 690 941 690 941 736 904.5 c 128,-1,22
 782 868 782 868 811 815 c 128,-1,23
 840 762 840 762 840 686 c 0,24,25
 840 641 840 641 828.5 597.5 c 128,-1,26
 817 554 817 554 794.5 517.5 c 128,-1,27
 772 481 772 481 738 453.5 c 128,-1,28
 704 426 704 426 660 413 c 1,29,30
 700 392 700 392 732.5 366.5 c 128,-1,31
 765 341 765 341 787.5 309 c 128,-1,32
 810 277 810 277 822.5 236.5 c 128,-1,33
 835 196 835 196 835 145 c 0,34,35
 835 72 835 72 811 13.5 c 128,-1,36
 787 -45 787 -45 741 -86.5 c 128,-1,37
 695 -128 695 -128 628 -150 c 128,-1,38
 561 -172 561 -172 473 -172 c 0,39,40
 397 -172 397 -172 334 -158.5 c 128,-1,41
 271 -145 271 -145 223 -113 c 128,-1,42
 175 -81 175 -81 142.5 -29 c 128,-1,43
 110 23 110 23 94 100 c 1,44,-1
 226 131 l 1,45,46
 236 76 236 76 258 42.5 c 128,-1,47
 280 9 280 9 312 -9.5 c 128,-1,48
 344 -28 344 -28 385 -34.5 c 128,-1,49
 426 -41 426 -41 473 -41 c 0,50,51
 521 -41 521 -41 562.5 -32 c 128,-1,52
 604 -23 604 -23 635.5 -3 c 128,-1,53
 667 17 667 17 685.5 49.5 c 128,-1,54
 704 82 704 82 704 129 c 0,55,56
 704 183 704 183 680.5 219 c 128,-1,57
 657 255 657 255 618 280.5 c 128,-1,58
 579 306 579 306 528.5 324 c 128,-1,59
 478 342 478 342 425 358 c 0,60,61
 372 373 372 373 318 396 c 128,-1,62
 264 419 264 419 221.5 455.5 c 128,-1,63
 179 492 179 492 152 544.5 c 128,-1,64
 125 597 125 597 125 671 c 0,65,66
 125 716 125 716 138.5 757.5 c 128,-1,67
 152 799 152 799 176 834.5 c 128,-1,68
 200 870 200 870 234.5 896.5 c 128,-1,69
 269 923 269 923 312 938 c 1,70,71
 278 952 278 952 247 975 c 128,-1,72
 216 998 216 998 193 1030 c 128,-1,73
 170 1062 170 1062 156.5 1102 c 128,-1,74
 143 1142 143 1142 143 1190 c 0,75,76
 143 1329 143 1329 229.5 1406.5 c 128,-1,77
 316 1484 316 1484 482 1484 c 0,0,1
710 663 m 0,78,79
 710 711 710 711 688.5 745.5 c 128,-1,80
 667 780 667 780 631 805.5 c 128,-1,81
 595 831 595 831 548.5 848.5 c 128,-1,82
 502 866 502 866 452 880 c 1,83,84
 404 877 404 877 367.5 860.5 c 128,-1,85
 331 844 331 844 306.5 818 c 128,-1,86
 282 792 282 792 269.5 757.5 c 128,-1,87
 257 723 257 723 257 684 c 0,88,89
 257 638 257 638 277 605 c 128,-1,90
 297 572 297 572 330.5 548 c 128,-1,91
 364 524 364 524 408.5 507 c 128,-1,92
 453 490 453 490 502 475 c 1,93,94
 546 476 546 476 584 488 c 128,-1,95
 622 500 622 500 650 523.5 c 128,-1,96
 678 547 678 547 694 582 c 128,-1,97
 710 617 710 617 710 663 c 0,78,79
EndSplineSet
EndChar

StartChar: dieresis
Encoding: 168 168 105
Width: 559
GlyphClass: 2
Flags: W
LayerCount: 2
Fore
SplineSet
360 1219 m 1,0,-1
 360 1403 l 1,1,-1
 493 1403 l 1,2,-1
 493 1219 l 1,3,-1
 360 1219 l 1,0,-1
37 1219 m 1,4,-1
 37 1403 l 1,5,-1
 172 1403 l 1,6,-1
 172 1219 l 1,7,-1
 37 1219 l 1,4,-1
EndSplineSet
EndChar

StartChar: copyright
Encoding: 169 169 106
Width: 1237
GlyphClass: 2
Flags: W
LayerCount: 2
Fore
SplineSet
1211 707 m 0,0,1
 1211 607 1211 607 1189.5 514.5 c 128,-1,2
 1168 422 1168 422 1129.5 341.5 c 128,-1,3
 1091 261 1091 261 1037.5 195.5 c 128,-1,4
 984 130 984 130 918 83 c 128,-1,5
 852 36 852 36 776 10 c 128,-1,6
 700 -16 700 -16 618 -16 c 0,7,8
 537 -16 537 -16 461 10 c 128,-1,9
 385 36 385 36 319.5 83 c 128,-1,10
 254 130 254 130 199.5 195.5 c 128,-1,11
 145 261 145 261 106.5 341.5 c 128,-1,12
 68 422 68 422 46.5 514.5 c 128,-1,13
 25 607 25 607 25 707 c 256,14,15
 25 807 25 807 46.5 899 c 128,-1,16
 68 991 68 991 106.5 1071.5 c 128,-1,17
 145 1152 145 1152 199 1218 c 128,-1,18
 253 1284 253 1284 319 1331 c 128,-1,19
 385 1378 385 1378 460.5 1404 c 128,-1,20
 536 1430 536 1430 618 1430 c 0,21,22
 741 1430 741 1430 849 1373 c 128,-1,23
 957 1316 957 1316 1037.5 1218 c 128,-1,24
 1118 1120 1118 1120 1164.5 988.5 c 128,-1,25
 1211 857 1211 857 1211 707 c 0,0,1
1135 707 m 0,26,27
 1135 793 1135 793 1116.5 873.5 c 128,-1,28
 1098 954 1098 954 1064.5 1023.5 c 128,-1,29
 1031 1093 1031 1093 983.5 1150.5 c 128,-1,30
 936 1208 936 1208 878.5 1249 c 128,-1,31
 821 1290 821 1290 755 1312.5 c 128,-1,32
 689 1335 689 1335 618 1335 c 0,33,34
 511 1335 511 1335 418 1285.5 c 128,-1,35
 325 1236 325 1236 254.5 1150.5 c 128,-1,36
 184 1065 184 1065 143.5 951 c 128,-1,37
 103 837 103 837 103 707 c 0,38,39
 103 576 103 576 143.5 461.5 c 128,-1,40
 184 347 184 347 254.5 261.5 c 128,-1,41
 325 176 325 176 418.5 127 c 128,-1,42
 512 78 512 78 618 78 c 0,43,44
 689 78 689 78 755 100.5 c 128,-1,45
 821 123 821 123 878.5 163.5 c 128,-1,46
 936 204 936 204 983.5 261.5 c 128,-1,47
 1031 319 1031 319 1064.5 389 c 128,-1,48
 1098 459 1098 459 1116.5 539.5 c 128,-1,49
 1135 620 1135 620 1135 707 c 0,26,27
408 709 m 256,50,51
 408 637 408 637 421.5 577 c 128,-1,52
 435 517 435 517 462.5 474 c 128,-1,53
 490 431 490 431 531 407 c 128,-1,54
 572 383 572 383 627 383 c 0,55,56
 667 383 667 383 698 396.5 c 128,-1,57
 729 410 729 410 752 432.5 c 128,-1,58
 775 455 775 455 791 482.5 c 128,-1,59
 807 510 807 510 818 539 c 1,60,-1
 912 504 l 1,61,62
 894 461 894 461 870.5 420.5 c 128,-1,63
 847 380 847 380 813.5 348.5 c 128,-1,64
 780 317 780 317 734.5 298 c 128,-1,65
 689 279 689 279 627 279 c 0,66,67
 544 279 544 279 483 311 c 128,-1,68
 422 343 422 343 382 400 c 128,-1,69
 342 457 342 457 322 536 c 128,-1,70
 302 615 302 615 302 709 c 0,71,72
 302 806 302 806 322 884.5 c 128,-1,73
 342 963 342 963 381.5 1018.5 c 128,-1,74
 421 1074 421 1074 481 1103.5 c 128,-1,75
 541 1133 541 1133 621 1133 c 0,76,77
 682 1133 682 1133 728.5 1115 c 128,-1,78
 775 1097 775 1097 807.5 1067.5 c 128,-1,79
 840 1038 840 1038 862.5 1000.5 c 128,-1,80
 885 963 885 963 900 924 c 1,81,-1
 807 891 l 1,82,83
 797 917 797 917 781.5 942 c 128,-1,84
 766 967 766 967 743.5 986 c 128,-1,85
 721 1005 721 1005 691.5 1016.5 c 128,-1,86
 662 1028 662 1028 623 1028 c 0,87,88
 566 1028 566 1028 525.5 1005 c 128,-1,89
 485 982 485 982 459 940.5 c 128,-1,90
 433 899 433 899 420.5 840 c 128,-1,91
 408 781 408 781 408 709 c 256,50,51
EndSplineSet
EndChar

StartChar: ordfeminine
Encoding: 170 170 107
Width: 621
GlyphClass: 2
Flags: W
LayerCount: 2
Fore
SplineSet
213 651 m 0,0,1
 170 651 170 651 134.5 665.5 c 128,-1,2
 99 680 99 680 73.5 708 c 128,-1,3
 48 736 48 736 34.5 777 c 128,-1,4
 21 818 21 818 21 870 c 0,5,6
 21 939 21 939 42 985 c 128,-1,7
 63 1031 63 1031 98.5 1059 c 128,-1,8
 134 1087 134 1087 180 1099 c 128,-1,9
 226 1111 226 1111 277 1112 c 2,10,-1
 423 1116 l 1,11,-1
 423 1176 l 2,12,13
 423 1222 423 1222 414.5 1252 c 128,-1,14
 406 1282 406 1282 390 1299.5 c 128,-1,15
 374 1317 374 1317 351 1324 c 128,-1,16
 328 1331 328 1331 299 1331 c 0,17,18
 244 1331 244 1331 211 1301.5 c 128,-1,19
 178 1272 178 1272 170 1196 c 1,20,-1
 48 1206 l 1,21,22
 54 1253 54 1253 71.5 1294 c 128,-1,23
 89 1335 89 1335 120 1366 c 128,-1,24
 151 1397 151 1397 195 1414.5 c 128,-1,25
 239 1432 239 1432 297 1432 c 0,26,27
 353 1432 353 1432 397.5 1417.5 c 128,-1,28
 442 1403 442 1403 473.5 1373 c 128,-1,29
 505 1343 505 1343 522.5 1295.5 c 128,-1,30
 540 1248 540 1248 540 1182 c 2,31,-1
 540 874 l 2,32,33
 540 816 540 816 551.5 791 c 128,-1,34
 563 766 563 766 592 766 c 0,35,36
 602 766 602 766 610.5 768.5 c 128,-1,37
 619 771 619 771 627 774 c 1,38,-1
 627 670 l 1,39,40
 611 665 611 665 594 661 c 128,-1,41
 577 657 577 657 559 657 c 0,42,43
 525 657 525 657 501.5 668 c 128,-1,44
 478 679 478 679 462.5 698.5 c 128,-1,45
 447 718 447 718 439 743.5 c 128,-1,46
 431 769 431 769 429 798 c 1,47,-1
 426 798 l 1,48,49
 395 721 395 721 341 686 c 128,-1,50
 287 651 287 651 213 651 c 0,0,1
245 762 m 0,51,52
 284 762 284 762 317 779 c 128,-1,53
 350 796 350 796 373.5 823.5 c 128,-1,54
 397 851 397 851 410 886.5 c 128,-1,55
 423 922 423 922 423 959 c 2,56,-1
 423 1024 l 1,57,-1
 310 1020 l 2,58,59
 276 1018 276 1018 245.5 1012.5 c 128,-1,60
 215 1007 215 1007 192.5 992.5 c 128,-1,61
 170 978 170 978 157 952 c 128,-1,62
 144 926 144 926 144 883 c 0,63,64
 144 827 144 827 168 794.5 c 128,-1,65
 192 762 192 762 245 762 c 0,51,52
EndSplineSet
EndChar

StartChar: guillemotleft
Encoding: 171 171 108
Width: 934
GlyphClass: 2
Flags: W
LayerCount: 2
Fore
SplineSet
727 141 m 1,0,-1
 449 506 l 1,1,-1
 449 569 l 1,2,-1
 727 940 l 1,3,-1
 864 940 l 1,4,-1
 864 909 l 1,5,-1
 587 537 l 1,6,-1
 866 170 l 1,7,-1
 866 141 l 1,8,-1
 727 141 l 1,0,-1
344 141 m 1,9,-1
 68 506 l 1,10,-1
 68 569 l 1,11,-1
 344 940 l 1,12,-1
 481 940 l 1,13,-1
 481 909 l 1,14,-1
 206 537 l 1,15,-1
 482 170 l 1,16,-1
 482 141 l 1,17,-1
 344 141 l 1,9,-1
EndSplineSet
EndChar

StartChar: logicalnot
Encoding: 172 172 109
Width: 981
GlyphClass: 2
Flags: W
LayerCount: 2
Fore
SplineSet
779 180 m 1,0,-1
 779 608 l 1,1,-1
 82 608 l 1,2,-1
 82 754 l 1,3,-1
 898 754 l 1,4,-1
 898 180 l 1,5,-1
 779 180 l 1,0,-1
EndSplineSet
EndChar

StartChar: registered
Encoding: 174 174 110
Width: 1237
GlyphClass: 2
Flags: W
LayerCount: 2
Fore
SplineSet
1211 707 m 0,0,1
 1211 607 1211 607 1189.5 514.5 c 128,-1,2
 1168 422 1168 422 1129.5 341.5 c 128,-1,3
 1091 261 1091 261 1037.5 195.5 c 128,-1,4
 984 130 984 130 918 83 c 128,-1,5
 852 36 852 36 776 10 c 128,-1,6
 700 -16 700 -16 618 -16 c 0,7,8
 537 -16 537 -16 461 10 c 128,-1,9
 385 36 385 36 319.5 83 c 128,-1,10
 254 130 254 130 199.5 195.5 c 128,-1,11
 145 261 145 261 106.5 341.5 c 128,-1,12
 68 422 68 422 46.5 514.5 c 128,-1,13
 25 607 25 607 25 707 c 256,14,15
 25 807 25 807 46.5 899 c 128,-1,16
 68 991 68 991 106.5 1071.5 c 128,-1,17
 145 1152 145 1152 199 1218 c 128,-1,18
 253 1284 253 1284 319 1331 c 128,-1,19
 385 1378 385 1378 460.5 1404 c 128,-1,20
 536 1430 536 1430 618 1430 c 0,21,22
 741 1430 741 1430 849 1373 c 128,-1,23
 957 1316 957 1316 1037.5 1218 c 128,-1,24
 1118 1120 1118 1120 1164.5 988.5 c 128,-1,25
 1211 857 1211 857 1211 707 c 0,0,1
1135 707 m 0,26,27
 1135 793 1135 793 1116.5 873.5 c 128,-1,28
 1098 954 1098 954 1064.5 1023.5 c 128,-1,29
 1031 1093 1031 1093 983.5 1150.5 c 128,-1,30
 936 1208 936 1208 878.5 1249 c 128,-1,31
 821 1290 821 1290 755 1312.5 c 128,-1,32
 689 1335 689 1335 618 1335 c 0,33,34
 511 1335 511 1335 418 1285.5 c 128,-1,35
 325 1236 325 1236 254.5 1150.5 c 128,-1,36
 184 1065 184 1065 143.5 951 c 128,-1,37
 103 837 103 837 103 707 c 0,38,39
 103 576 103 576 143.5 461.5 c 128,-1,40
 184 347 184 347 254.5 261.5 c 128,-1,41
 325 176 325 176 418.5 127 c 128,-1,42
 512 78 512 78 618 78 c 0,43,44
 689 78 689 78 755 100.5 c 128,-1,45
 821 123 821 123 878.5 163.5 c 128,-1,46
 936 204 936 204 983.5 261.5 c 128,-1,47
 1031 319 1031 319 1064.5 389 c 128,-1,48
 1098 459 1098 459 1116.5 539.5 c 128,-1,49
 1135 620 1135 620 1135 707 c 0,26,27
783 289 m 1,50,-1
 620 625 l 1,51,-1
 488 625 l 1,52,-1
 488 289 l 1,53,-1
 384 289 l 1,54,-1
 384 1120 l 1,55,-1
 635 1120 l 2,56,57
 751 1120 751 1120 813 1057 c 128,-1,58
 875 994 875 994 875 883 c 0,59,60
 875 781 875 781 832.5 719.5 c 128,-1,61
 790 658 790 658 721 639 c 1,62,-1
 902 289 l 1,63,-1
 783 289 l 1,50,-1
771 881 m 0,64,65
 771 950 771 950 732.5 986 c 128,-1,66
 694 1022 694 1022 627 1022 c 2,67,-1
 488 1022 l 1,68,-1
 488 721 l 1,69,-1
 637 721 l 2,70,71
 703 721 703 721 737 763.5 c 128,-1,72
 771 806 771 806 771 881 c 0,64,65
EndSplineSet
EndChar

StartChar: macron
Encoding: 175 175 111
Width: 559
GlyphClass: 2
Flags: W
LayerCount: 2
Fore
SplineSet
567 1452 m 1,0,-1
 -8 1452 l 1,1,-1
 -8 1546 l 1,2,-1
 567 1546 l 1,3,-1
 567 1452 l 1,0,-1
EndSplineSet
EndChar

StartChar: degree
Encoding: 176 176 112
Width: 819
GlyphClass: 2
Flags: W
LayerCount: 2
Fore
SplineSet
696 1145 m 0,0,1
 696 1086 696 1086 673.5 1034 c 128,-1,2
 651 982 651 982 612 943.5 c 128,-1,3
 573 905 573 905 520.5 882.5 c 128,-1,4
 468 860 468 860 409 860 c 256,5,6
 350 860 350 860 298 882.5 c 128,-1,7
 246 905 246 905 207 943.5 c 128,-1,8
 168 982 168 982 145 1034 c 128,-1,9
 122 1086 122 1086 122 1145 c 0,10,11
 122 1205 122 1205 145 1257 c 128,-1,12
 168 1309 168 1309 207 1347.5 c 128,-1,13
 246 1386 246 1386 298 1408 c 128,-1,14
 350 1430 350 1430 409 1430 c 256,15,16
 468 1430 468 1430 520.5 1408 c 128,-1,17
 573 1386 573 1386 612 1347.5 c 128,-1,18
 651 1309 651 1309 673.5 1257 c 128,-1,19
 696 1205 696 1205 696 1145 c 0,0,1
587 1145 m 256,20,21
 587 1182 587 1182 573.5 1215 c 128,-1,22
 560 1248 560 1248 536 1272.5 c 128,-1,23
 512 1297 512 1297 479.5 1311 c 128,-1,24
 447 1325 447 1325 409 1325 c 0,25,26
 372 1325 372 1325 339.5 1311 c 128,-1,27
 307 1297 307 1297 283 1272.5 c 128,-1,28
 259 1248 259 1248 245 1215 c 128,-1,29
 231 1182 231 1182 231 1145 c 256,30,31
 231 1108 231 1108 245 1075.5 c 128,-1,32
 259 1043 259 1043 283 1018.5 c 128,-1,33
 307 994 307 994 339.5 979.5 c 128,-1,34
 372 965 372 965 409 965 c 0,35,36
 447 965 447 965 479.5 979.5 c 128,-1,37
 512 994 512 994 536 1018.5 c 128,-1,38
 560 1043 560 1043 573.5 1075.5 c 128,-1,39
 587 1108 587 1108 587 1145 c 256,20,21
EndSplineSet
EndChar

StartChar: plusminus
Encoding: 177 177 113
Width: 1124
GlyphClass: 2
Flags: W
LayerCount: 2
Fore
SplineSet
636 680 m 1,0,-1
 636 285 l 1,1,-1
 489 285 l 1,2,-1
 489 680 l 1,3,-1
 65 680 l 1,4,-1
 65 825 l 1,5,-1
 489 825 l 1,6,-1
 489 1219 l 1,7,-1
 636 1219 l 1,8,-1
 636 825 l 1,9,-1
 1060 825 l 1,10,-1
 1060 680 l 1,11,-1
 636 680 l 1,0,-1
65 0 m 1,12,-1
 65 145 l 1,13,-1
 1060 145 l 1,14,-1
 1060 0 l 1,15,-1
 65 0 l 1,12,-1
EndSplineSet
EndChar

StartChar: uni00B2
Encoding: 178 178 114
Width: 559
GlyphClass: 2
Flags: W
LayerCount: 2
Fore
SplineSet
35 563 m 1,0,-1
 34 666 l 1,1,2
 56 727 56 727 92 775 c 128,-1,3
 128 823 128 823 169 863.5 c 128,-1,4
 210 904 210 904 252 940 c 128,-1,5
 294 976 294 976 327.5 1012.5 c 128,-1,6
 361 1049 361 1049 382.5 1089 c 128,-1,7
 404 1129 404 1129 404 1178 c 0,8,9
 404 1240 404 1240 375 1277.5 c 128,-1,10
 346 1315 346 1315 285 1315 c 0,11,12
 229 1315 229 1315 193 1278.5 c 128,-1,13
 157 1242 157 1242 151 1174 c 1,14,-1
 42 1182 l 1,15,16
 47 1233 47 1233 65.5 1276.5 c 128,-1,17
 84 1320 84 1320 115.5 1352 c 128,-1,18
 147 1384 147 1384 190.5 1402.5 c 128,-1,19
 234 1421 234 1421 290 1421 c 0,20,21
 343 1421 343 1421 385.5 1404.5 c 128,-1,22
 428 1388 428 1388 457 1358 c 128,-1,23
 486 1328 486 1328 501 1285 c 128,-1,24
 516 1242 516 1242 516 1188 c 0,25,26
 516 1126 516 1126 494 1076 c 128,-1,27
 472 1026 472 1026 438 983 c 128,-1,28
 404 940 404 940 362 902 c 2,29,-1
 282 828 l 2,30,31
 243 792 243 792 211 755 c 128,-1,32
 179 718 179 718 164 676 c 1,33,-1
 527 676 l 1,34,-1
 527 563 l 1,35,-1
 35 563 l 1,0,-1
EndSplineSet
EndChar

StartChar: uni00B3
Encoding: 179 179 115
Width: 559
GlyphClass: 2
Flags: W
LayerCount: 2
Fore
SplineSet
526 795 m 0,0,1
 526 679 526 679 462.5 615 c 128,-1,2
 399 551 399 551 283 551 c 0,3,4
 212 551 212 551 164 570.5 c 128,-1,5
 116 590 116 590 86.5 622 c 128,-1,6
 57 654 57 654 42 694.5 c 128,-1,7
 27 735 27 735 22 778 c 1,8,-1
 134 791 l 1,9,10
 141 724 141 724 177 689.5 c 128,-1,11
 213 655 213 655 283 655 c 0,12,13
 346 655 346 655 380 691 c 128,-1,14
 414 727 414 727 414 803 c 0,15,16
 414 848 414 848 399 875 c 128,-1,17
 384 902 384 902 361 916.5 c 128,-1,18
 338 931 338 931 310.5 935.5 c 128,-1,19
 283 940 283 940 259 940 c 2,20,-1
 209 940 l 1,21,-1
 209 1049 l 1,22,-1
 256 1049 l 2,23,24
 280 1049 280 1049 305 1055.5 c 128,-1,25
 330 1062 330 1062 350 1077.5 c 128,-1,26
 370 1093 370 1093 383.5 1119.5 c 128,-1,27
 397 1146 397 1146 397 1186 c 0,28,29
 397 1246 397 1246 366.5 1280.5 c 128,-1,30
 336 1315 336 1315 278 1315 c 0,31,32
 222 1315 222 1315 187.5 1280 c 128,-1,33
 153 1245 153 1245 148 1180 c 1,34,-1
 38 1192 l 1,35,36
 44 1250 44 1250 64 1293 c 128,-1,37
 84 1336 84 1336 116.5 1364.5 c 128,-1,38
 149 1393 149 1393 191 1407 c 128,-1,39
 233 1421 233 1421 281 1421 c 0,40,41
 338 1421 338 1421 380.5 1404.5 c 128,-1,42
 423 1388 423 1388 451.5 1358.5 c 128,-1,43
 480 1329 480 1329 494.5 1289.5 c 128,-1,44
 509 1250 509 1250 509 1204 c 0,45,46
 509 1129 509 1129 474 1074 c 128,-1,47
 439 1019 439 1019 365 999 c 1,48,-1
 365 997 l 1,49,50
 408 992 408 992 438.5 973.5 c 128,-1,51
 469 955 469 955 488.5 928 c 128,-1,52
 508 901 508 901 517 866.5 c 128,-1,53
 526 832 526 832 526 795 c 0,0,1
EndSplineSet
EndChar

StartChar: acute
Encoding: 180 180 116
Width: 559
GlyphClass: 2
Flags: W
LayerCount: 2
Fore
SplineSet
59 1201 m 1,0,-1
 59 1221 l 1,1,-1
 237 1508 l 1,2,-1
 407 1508 l 1,3,-1
 407 1479 l 1,4,-1
 136 1201 l 1,5,-1
 59 1201 l 1,0,-1
EndSplineSet
EndChar

StartChar: uni00B5
Encoding: 181 181 117
Width: 934
GlyphClass: 2
Flags: W
LayerCount: 2
Fore
SplineSet
111 -425 m 1,0,-1
 111 1082 l 1,1,-1
 254 1082 l 1,2,-1
 254 396 l 2,3,4
 254 318 254 318 266.5 265 c 128,-1,5
 279 212 279 212 302 179.5 c 128,-1,6
 325 147 325 147 358.5 133 c 128,-1,7
 392 119 392 119 433 119 c 0,8,9
 534 119 534 119 592 206 c 128,-1,10
 650 293 650 293 650 455 c 2,11,-1
 650 1082 l 1,12,-1
 792 1082 l 1,13,-1
 792 266 l 2,14,15
 792 222 792 222 796.5 194 c 128,-1,16
 801 166 801 166 809 150 c 128,-1,17
 817 134 817 134 828.5 127.5 c 128,-1,18
 840 121 840 121 854 121 c 0,19,20
 863 121 863 121 875.5 123.5 c 128,-1,21
 888 126 888 126 897 129 c 1,22,-1
 897 0 l 1,23,24
 876 -8 876 -8 856 -14 c 128,-1,25
 836 -20 836 -20 807 -20 c 0,26,27
 764 -20 764 -20 736 -5 c 128,-1,28
 708 10 708 10 691 36 c 128,-1,29
 674 62 674 62 666 97.5 c 128,-1,30
 658 133 658 133 656 174 c 1,31,-1
 654 174 l 1,32,33
 613 79 613 79 554.5 29.5 c 128,-1,34
 496 -20 496 -20 417 -20 c 0,35,36
 364 -20 364 -20 321 0.5 c 128,-1,37
 278 21 278 21 253 59 c 1,38,-1
 253 -425 l 1,39,-1
 111 -425 l 1,0,-1
EndSplineSet
EndChar

StartChar: paragraph
Encoding: 182 182 118
Width: 901
GlyphClass: 2
Flags: W
LayerCount: 2
Fore
SplineSet
724 1307 m 1,0,-1
 724 -264 l 1,1,-1
 632 -264 l 1,2,-1
 632 1307 l 1,3,-1
 455 1307 l 1,4,-1
 455 -264 l 1,5,-1
 362 -264 l 1,6,-1
 362 694 l 1,7,8
 296 694 296 694 242 716.5 c 128,-1,9
 188 739 188 739 148.5 783 c 128,-1,10
 109 827 109 827 87.5 893.5 c 128,-1,11
 66 960 66 960 66 1049 c 0,12,13
 66 1133 66 1133 86 1199.5 c 128,-1,14
 106 1266 106 1266 145 1312.5 c 128,-1,15
 184 1359 184 1359 240.5 1384 c 128,-1,16
 297 1409 297 1409 369 1409 c 2,17,-1
 830 1409 l 1,18,-1
 830 1307 l 1,19,-1
 724 1307 l 1,0,-1
EndSplineSet
EndChar

StartChar: periodcentered
Encoding: 183 183 119
AltUni2: 002219.ffffffff.0 002219.ffffffff.0 002219.ffffffff.0 002219.ffffffff.0
Width: 557
GlyphClass: 2
Flags: W
LayerCount: 2
Fore
SplineSet
183 446 m 1,0,-1
 183 666 l 1,1,-1
 374 666 l 1,2,-1
 374 446 l 1,3,-1
 183 446 l 1,0,-1
EndSplineSet
EndChar

StartChar: cedilla
Encoding: 184 184 120
Width: 559
GlyphClass: 2
Flags: W
LayerCount: 2
Fore
SplineSet
396 -253 m 0,0,1
 396 -294 396 -294 383.5 -327.5 c 128,-1,2
 371 -361 371 -361 344.5 -385 c 128,-1,3
 318 -409 318 -409 275.5 -421.5 c 128,-1,4
 233 -434 233 -434 171 -434 c 0,5,6
 155 -434 155 -434 136.5 -433.5 c 128,-1,7
 118 -433 118 -433 98 -430 c 1,8,-1
 98 -332 l 1,9,10
 138 -338 138 -338 168 -338 c 0,11,12
 202 -338 202 -338 225 -332 c 128,-1,13
 248 -326 248 -326 262 -315.5 c 128,-1,14
 276 -305 276 -305 282.5 -290 c 128,-1,15
 289 -275 289 -275 289 -257 c 0,16,17
 289 -220 289 -220 264 -200 c 0,18,19
 240 -180 240 -180 180 -180 c 2,20,21
 180 -180 180 -180 156 -180 c 0,22,23
 144 -180 144 -180 133 -182 c 1,24,-1
 186 0 l 1,25,-1
 274 0 l 1,26,-1
 242 -100 l 1,27,28
 319 -103 319 -103 357.5 -143.5 c 128,-1,29
 396 -184 396 -184 396 -253 c 0,0,1
EndSplineSet
EndChar

StartChar: uni00B9
Encoding: 185 185 121
Width: 559
GlyphClass: 2
Flags: W
LayerCount: 2
Fore
SplineSet
66 563 m 1,0,-1
 66 670 l 1,1,-1
 239 670 l 1,2,-1
 239 1290 l 1,3,-1
 73 1152 l 1,4,-1
 73 1272 l 1,5,-1
 245 1409 l 1,6,-1
 346 1409 l 1,7,-1
 346 670 l 1,8,-1
 522 670 l 1,9,-1
 522 563 l 1,10,-1
 66 563 l 1,0,-1
EndSplineSet
EndChar

StartChar: ordmasculine
Encoding: 186 186 122
Width: 612
GlyphClass: 2
Flags: W
LayerCount: 2
Fore
SplineSet
592 1042 m 0,0,1
 592 854 592 854 520 752.5 c 128,-1,2
 448 651 448 651 304 651 c 0,3,4
 167 651 167 651 94.5 751.5 c 128,-1,5
 22 852 22 852 22 1042 c 0,6,7
 22 1133 22 1133 39.5 1205.5 c 128,-1,8
 57 1278 57 1278 92.5 1328.5 c 128,-1,9
 128 1379 128 1379 182 1405.5 c 128,-1,10
 236 1432 236 1432 308 1432 c 0,11,12
 384 1432 384 1432 437.5 1405.5 c 128,-1,13
 491 1379 491 1379 525.5 1329 c 128,-1,14
 560 1279 560 1279 576 1206.5 c 128,-1,15
 592 1134 592 1134 592 1042 c 0,0,1
470 1042 m 0,16,17
 470 1125 470 1125 459.5 1180 c 128,-1,18
 449 1235 449 1235 428.5 1267.5 c 128,-1,19
 408 1300 408 1300 378.5 1313.5 c 128,-1,20
 349 1327 349 1327 310 1327 c 256,21,22
 271 1327 271 1327 240 1313.5 c 128,-1,23
 209 1300 209 1300 188.5 1267 c 128,-1,24
 168 1234 168 1234 157 1179 c 128,-1,25
 146 1124 146 1124 146 1042 c 0,26,27
 146 958 146 958 157.5 903 c 128,-1,28
 169 848 169 848 190 815 c 128,-1,29
 211 782 211 782 239.5 769 c 128,-1,30
 268 756 268 756 304 756 c 0,31,32
 344 756 344 756 374.5 769 c 128,-1,33
 405 782 405 782 426.5 815 c 128,-1,34
 448 848 448 848 459 903 c 128,-1,35
 470 958 470 958 470 1042 c 0,16,17
EndSplineSet
EndChar

StartChar: guillemotright
Encoding: 187 187 123
Width: 934
GlyphClass: 2
Flags: W
LayerCount: 2
Fore
SplineSet
589 141 m 1,0,-1
 451 141 l 1,1,-1
 451 170 l 1,2,-1
 728 537 l 1,3,-1
 453 909 l 1,4,-1
 453 940 l 1,5,-1
 589 940 l 1,6,-1
 866 569 l 1,7,-1
 866 506 l 1,8,-1
 589 141 l 1,0,-1
207 141 m 1,9,-1
 68 141 l 1,10,-1
 68 170 l 1,11,-1
 345 537 l 1,12,-1
 70 909 l 1,13,-1
 70 940 l 1,14,-1
 207 940 l 1,15,-1
 482 569 l 1,16,-1
 482 506 l 1,17,-1
 207 141 l 1,9,-1
EndSplineSet
EndChar

StartChar: questiondown
Encoding: 191 191 127
Width: 1026
GlyphClass: 2
Flags: W
LayerCount: 2
Fore
SplineSet
107 50 m 0,0,1
 107 121 107 121 122.5 175 c 128,-1,2
 138 229 138 229 163.5 271.5 c 128,-1,3
 189 314 189 314 221 347.5 c 128,-1,4
 253 381 253 381 287 411 c 2,5,-1
 353 470 l 2,6,7
 385 499 385 499 411 533 c 128,-1,8
 437 567 437 567 453 608.5 c 128,-1,9
 469 650 469 650 470 705 c 1,10,-1
 613 705 l 1,11,12
 611 636 611 636 595.5 584 c 128,-1,13
 580 532 580 532 554.5 492 c 128,-1,14
 529 452 529 452 497 420.5 c 128,-1,15
 465 389 465 389 432 360 c 2,16,-1
 368 304 l 2,17,18
 336 275 336 275 311.5 240 c 128,-1,19
 287 205 287 205 272 161 c 128,-1,20
 257 117 257 117 257 58 c 256,21,22
 257 -1 257 -1 274 -47 c 128,-1,23
 291 -93 291 -93 322.5 -124.5 c 128,-1,24
 354 -156 354 -156 399 -172 c 128,-1,25
 444 -188 444 -188 499 -188 c 0,26,27
 614 -188 614 -188 681 -118 c 128,-1,28
 748 -48 748 -48 759 74 c 1,29,-1
 910 62 l 1,30,31
 901 -22 901 -22 873.5 -96.5 c 128,-1,32
 846 -171 846 -171 796.5 -227 c 128,-1,33
 747 -283 747 -283 673.5 -315.5 c 128,-1,34
 600 -348 600 -348 500 -348 c 0,35,36
 406 -348 406 -348 333.5 -320 c 128,-1,37
 261 -292 261 -292 210.5 -240.5 c 128,-1,38
 160 -189 160 -189 133.5 -115.5 c 128,-1,39
 107 -42 107 -42 107 50 c 0,0,1
620 1082 m 1,40,-1
 620 881 l 1,41,-1
 460 881 l 1,42,-1
 460 1082 l 1,43,-1
 620 1082 l 1,40,-1
EndSplineSet
EndChar

StartChar: AE
Encoding: 198 198 134
Width: 1679
GlyphClass: 2
Flags: W
LayerCount: 2
Fore
SplineSet
794 0 m 1,0,-1
 794 412 l 1,1,-1
 345 412 l 1,2,-1
 183 0 l 1,3,-1
 20 0 l 1,4,-1
 582 1409 l 1,5,-1
 1573 1409 l 1,6,-1
 1573 1253 l 1,7,-1
 951 1253 l 1,8,-1
 951 801 l 1,9,-1
 1524 801 l 1,10,-1
 1524 647 l 1,11,-1
 951 647 l 1,12,-1
 951 156 l 1,13,-1
 1607 156 l 1,14,-1
 1607 0 l 1,15,-1
 794 0 l 1,0,-1
794 1262 m 1,16,-1
 671 1262 l 1,17,18
 670 1259 670 1259 664 1242 c 2,19,-1
 648 1199 l 1,20,-1
 628 1145 l 1,21,-1
 607 1090 l 1,22,-1
 590 1046 l 1,23,-1
 580 1022 l 1,24,-1
 403 561 l 1,25,-1
 794 561 l 1,26,-1
 794 1262 l 1,16,-1
EndSplineSet
EndChar

StartChar: Eth
Encoding: 208 208 144
Width: 1212
GlyphClass: 2
Flags: W
LayerCount: 2
Fore
SplineSet
11 801 m 1,0,-1
 138 801 l 1,1,-1
 138 1409 l 1,2,-1
 520 1409 l 2,3,4
 654 1409 654 1409 766 1368.5 c 128,-1,5
 878 1328 878 1328 959.5 1243.5 c 128,-1,6
 1041 1159 1041 1159 1086.5 1029 c 128,-1,7
 1132 899 1132 899 1132 719 c 0,8,9
 1132 543 1132 543 1088.5 408.5 c 128,-1,10
 1045 274 1045 274 969.5 183.5 c 128,-1,11
 894 93 894 93 791 46.5 c 128,-1,12
 688 0 688 0 570 0 c 2,13,-1
 138 0 l 1,14,-1
 138 647 l 1,15,-1
 11 647 l 1,16,-1
 11 801 l 1,0,-1
974 719 m 0,17,18
 974 862 974 862 940.5 963.5 c 128,-1,19
 907 1065 907 1065 846.5 1130 c 128,-1,20
 786 1195 786 1195 701.5 1225.5 c 128,-1,21
 617 1256 617 1256 516 1256 c 2,22,-1
 294 1256 l 1,23,-1
 294 801 l 1,24,-1
 627 801 l 1,25,-1
 627 647 l 1,26,-1
 294 647 l 1,27,-1
 294 153 l 1,28,-1
 552 153 l 2,29,30
 643 153 643 153 720 189 c 128,-1,31
 797 225 797 225 853.5 296 c 128,-1,32
 910 367 910 367 942 473 c 128,-1,33
 974 579 974 579 974 719 c 0,17,18
EndSplineSet
EndChar

StartChar: multiply
Encoding: 215 215 151
Width: 981
GlyphClass: 2
Flags: W
LayerCount: 2
Fore
SplineSet
116 330 m 1,0,-1
 407 684 l 1,1,-1
 118 1036 l 1,2,-1
 203 1139 l 1,3,-1
 490 786 l 1,4,-1
 778 1137 l 1,5,-1
 864 1032 l 1,6,-1
 577 684 l 1,7,-1
 865 332 l 1,8,-1
 782 227 l 1,9,-1
 492 580 l 1,10,-1
 200 225 l 1,11,-1
 116 330 l 1,0,-1
EndSplineSet
EndChar

StartChar: Oslash
Encoding: 216 216 152
Width: 1307
GlyphClass: 2
Flags: W
LayerCount: 2
Fore
SplineSet
1227 711 m 0,0,1
 1227 546 1227 546 1188 411 c 128,-1,2
 1149 276 1149 276 1075 180 c 128,-1,3
 1001 84 1001 84 894.5 32 c 128,-1,4
 788 -20 788 -20 652 -20 c 0,5,6
 548 -20 548 -20 463.5 9 c 128,-1,7
 379 38 379 38 313 92 c 1,8,-1
 214 -53 l 1,9,-1
 58 -53 l 1,10,-1
 222 188 l 1,11,12
 150 285 150 285 115 418 c 128,-1,13
 80 551 80 551 80 711 c 0,14,15
 80 876 80 876 117.5 1009 c 128,-1,16
 155 1142 155 1142 228 1235.5 c 128,-1,17
 301 1329 301 1329 408 1379.5 c 128,-1,18
 515 1430 515 1430 654 1430 c 0,19,20
 757 1430 757 1430 841.5 1402 c 128,-1,21
 926 1374 926 1374 994 1320 c 1,22,-1
 1093 1466 l 1,23,-1
 1250 1466 l 1,24,-1
 1085 1224 l 1,25,26
 1155 1130 1155 1130 1191 1000.5 c 128,-1,27
 1227 871 1227 871 1227 711 c 0,0,1
1067 711 m 0,28,29
 1067 823 1067 823 1046.5 915 c 128,-1,30
 1026 1007 1026 1007 986 1079 c 1,31,-1
 404 226 l 1,32,33
 452 182 452 182 514 158.5 c 128,-1,34
 576 135 576 135 652 135 c 0,35,36
 760 135 760 135 838.5 178 c 128,-1,37
 917 221 917 221 967.5 297.5 c 128,-1,38
 1018 374 1018 374 1042.5 480 c 128,-1,39
 1067 586 1067 586 1067 711 c 0,28,29
239 711 m 0,40,41
 239 598 239 598 259.5 503 c 128,-1,42
 280 408 280 408 322 333 c 1,43,-1
 902 1186 l 1,44,45
 854 1228 854 1228 791.5 1251 c 128,-1,46
 729 1274 729 1274 654 1274 c 0,47,48
 551 1274 551 1274 473 1234 c 128,-1,49
 395 1194 395 1194 342.5 1120 c 128,-1,50
 290 1046 290 1046 264.5 942 c 128,-1,51
 239 838 239 838 239 711 c 0,40,41
EndSplineSet
EndChar

StartChar: Thorn
Encoding: 222 222 158
Width: 1120
GlyphClass: 2
Flags: W
LayerCount: 2
Fore
SplineSet
1031 735 m 0,0,1
 1031 647 1031 647 1007 567.5 c 128,-1,2
 983 488 983 488 933.5 428 c 128,-1,3
 884 368 884 368 809.5 332.5 c 128,-1,4
 735 297 735 297 634 297 c 2,5,-1
 294 297 l 1,6,-1
 294 0 l 1,7,-1
 138 0 l 1,8,-1
 138 1409 l 1,9,-1
 294 1409 l 1,10,-1
 294 1157 l 1,11,-1
 624 1157 l 2,12,13
 726 1157 726 1157 802.5 1127 c 128,-1,14
 879 1097 879 1097 930 1041.5 c 128,-1,15
 981 986 981 986 1006 908 c 128,-1,16
 1031 830 1031 830 1031 735 c 0,0,1
874 731 m 0,17,18
 874 865 874 865 807 939.5 c 128,-1,19
 740 1014 740 1014 605 1014 c 2,20,-1
 294 1014 l 1,21,-1
 294 438 l 1,22,-1
 612 438 l 2,23,24
 679 438 679 438 728.5 460 c 128,-1,25
 778 482 778 482 810.5 521.5 c 128,-1,26
 843 561 843 561 858.5 614.5 c 128,-1,27
 874 668 874 668 874 731 c 0,17,18
EndSplineSet
EndChar

StartChar: germandbls
Encoding: 223 223 159
Width: 1026
GlyphClass: 2
Flags: W
LayerCount: 2
Fore
SplineSet
957 295 m 0,0,1
 957 229 957 229 940 171.5 c 128,-1,2
 923 114 923 114 887.5 71.5 c 128,-1,3
 852 29 852 29 796 4 c 0,4,5
 742 -20 742 -20 664 -20 c 0,6,7
 598 -20 598 -20 537 -7.5 c 128,-1,8
 476 5 476 5 431 29 c 1,9,-1
 430 193 l 1,10,11
 450 179 450 179 477.5 166.5 c 128,-1,12
 505 154 505 154 535.5 144.5 c 128,-1,13
 566 135 566 135 598 129.5 c 128,-1,14
 630 124 630 124 660 124 c 0,15,16
 735 124 735 124 775.5 167 c 128,-1,17
 816 210 816 210 816 289 c 0,18,19
 816 345 816 345 794 383.5 c 128,-1,20
 772 422 772 422 738.5 453 c 128,-1,21
 705 484 705 484 666 512.5 c 128,-1,22
 627 541 627 541 594 577.5 c 128,-1,23
 561 614 561 614 539 663 c 128,-1,24
 517 712 517 712 517 785 c 0,25,26
 517 836 517 836 530.5 872.5 c 128,-1,27
 544 909 544 909 564 938 c 128,-1,28
 584 967 584 967 608 991 c 128,-1,29
 632 1015 632 1015 652 1041 c 128,-1,30
 672 1067 672 1067 685.5 1098.5 c 128,-1,31
 699 1130 699 1130 699 1173 c 0,32,33
 699 1210 699 1210 685.5 1241 c 128,-1,34
 672 1272 672 1272 646 1294.5 c 128,-1,35
 620 1317 620 1317 583 1330 c 128,-1,36
 546 1343 546 1343 499 1343 c 0,37,38
 443 1343 443 1343 399.5 1325.5 c 128,-1,39
 356 1308 356 1308 326 1269.5 c 128,-1,40
 296 1231 296 1231 280 1170 c 128,-1,41
 264 1109 264 1109 264 1021 c 2,42,-1
 264 0 l 1,43,-1
 116 0 l 1,44,-1
 116 1027 l 2,45,46
 116 1145 116 1145 142 1231.5 c 128,-1,47
 168 1318 168 1318 217.5 1374 c 128,-1,48
 267 1430 267 1430 338 1457 c 128,-1,49
 409 1484 409 1484 499 1484 c 0,50,51
 583 1484 583 1484 646.5 1461 c 128,-1,52
 710 1438 710 1438 753 1398 c 128,-1,53
 796 1358 796 1358 818 1303.5 c 128,-1,54
 840 1249 840 1249 840 1187 c 0,55,56
 840 1126 840 1126 826.5 1081 c 128,-1,57
 813 1036 813 1036 792 1001.5 c 128,-1,58
 771 967 771 967 747 940 c 2,59,-1
 702 890 l 2,60,61
 682 867 682 867 668 843 c 128,-1,62
 654 819 654 819 654 791 c 0,63,64
 654 753 654 753 677 723.5 c 128,-1,65
 700 694 700 694 734 666 c 2,66,-1
 806 605 l 2,67,68
 845 573 845 573 878.5 530.5 c 128,-1,69
 912 488 912 488 934.5 431 c 128,-1,70
 957 374 957 374 957 295 c 0,0,1
EndSplineSet
EndChar

StartChar: ae
Encoding: 230 230 166
Width: 1493
GlyphClass: 2
Flags: W
LayerCount: 2
Fore
SplineSet
794 503 m 1,0,-1
 794 486 l 1,1,2
 795 404 795 404 808.5 336 c 128,-1,3
 822 268 822 268 851 219 c 128,-1,4
 880 170 880 170 924.5 142.5 c 128,-1,5
 969 115 969 115 1033 115 c 0,6,7
 1129 115 1129 115 1187 162 c 128,-1,8
 1245 209 1245 209 1265 281 c 1,9,-1
 1395 236 l 1,10,11
 1381 191 1381 191 1356 145.5 c 128,-1,12
 1331 100 1331 100 1289 63.5 c 128,-1,13
 1247 27 1247 27 1184.5 3.5 c 128,-1,14
 1122 -20 1122 -20 1033 -20 c 0,15,16
 770 -20 770 -20 686 237 c 1,17,18
 662 186 662 186 632 139.5 c 128,-1,19
 602 93 602 93 560 57.5 c 128,-1,20
 518 22 518 22 462 1 c 128,-1,21
 406 -20 406 -20 330 -20 c 0,22,23
 193 -20 193 -20 123.5 66 c 128,-1,24
 54 152 54 152 54 302 c 0,25,26
 54 373 54 373 69.5 427 c 128,-1,27
 85 481 85 481 112.5 520 c 128,-1,28
 140 559 140 559 177.5 584.5 c 128,-1,29
 215 610 215 610 259 626 c 128,-1,30
 303 642 303 642 350.5 648.5 c 128,-1,31
 398 655 398 655 448 656 c 2,32,-1
 644 660 l 1,33,-1
 644 719 l 2,34,35
 644 786 644 786 633.5 833 c 128,-1,36
 623 880 623 880 599.5 909 c 128,-1,37
 576 938 576 938 540 951.5 c 128,-1,38
 504 965 504 965 454 965 c 0,39,40
 410 965 410 965 374 957.5 c 128,-1,41
 338 950 338 950 311.5 930.5 c 128,-1,42
 285 911 285 911 269 877.5 c 128,-1,43
 253 844 253 844 248 793 c 1,44,-1
 93 810 l 1,45,46
 101 874 101 874 125 927.5 c 128,-1,47
 149 981 149 981 192 1020 c 128,-1,48
 235 1059 235 1059 300.5 1080.5 c 128,-1,49
 366 1102 366 1102 457 1102 c 0,50,51
 562 1102 562 1102 632.5 1067 c 128,-1,52
 703 1032 703 1032 744 963 c 1,53,54
 796 1037 796 1037 868 1069.5 c 128,-1,55
 940 1102 940 1102 1027 1102 c 0,56,57
 1139 1102 1139 1102 1214 1058 c 128,-1,58
 1289 1014 1289 1014 1334.5 936.5 c 128,-1,59
 1380 859 1380 859 1399 754 c 128,-1,60
 1418 649 1418 649 1418 527 c 2,61,-1
 1418 503 l 1,62,-1
 794 503 l 1,0,-1
644 534 m 1,63,-1
 485 530 l 2,64,65
 452 529 452 529 418.5 526 c 128,-1,66
 385 523 385 523 354 514 c 128,-1,67
 323 505 323 505 296 489.5 c 128,-1,68
 269 474 269 474 249 448.5 c 128,-1,69
 229 423 229 423 217.5 386.5 c 128,-1,70
 206 350 206 350 206 299 c 0,71,72
 206 212 206 212 247 163.5 c 128,-1,73
 288 115 288 115 364 115 c 0,74,75
 438 115 438 115 491 146.5 c 128,-1,76
 544 178 544 178 578 227 c 128,-1,77
 612 276 612 276 628 334 c 128,-1,78
 644 392 644 392 644 445 c 2,79,-1
 644 534 l 1,63,-1
1266 641 m 1,80,81
 1254 812 1254 812 1195 890.5 c 128,-1,82
 1136 969 1136 969 1025 969 c 0,83,84
 988 969 988 969 948.5 954.5 c 128,-1,85
 909 940 909 940 876 903 c 128,-1,86
 843 866 843 866 821 802.5 c 128,-1,87
 799 739 799 739 795 641 c 1,88,-1
 1266 641 l 1,80,81
EndSplineSet
EndChar

StartChar: eth
Encoding: 240 240 176
Width: 934
GlyphClass: 2
Flags: W
LayerCount: 2
Fore
SplineSet
464 -20 m 0,0,1
 362 -20 362 -20 287.5 16.5 c 128,-1,2
 213 53 213 53 164.5 119 c 128,-1,3
 116 185 116 185 93.5 277.5 c 128,-1,4
 71 370 71 370 71 481 c 0,5,6
 71 588 71 588 92 679 c 128,-1,7
 113 770 113 770 160.5 837 c 128,-1,8
 208 904 208 904 284.5 941.5 c 128,-1,9
 361 979 361 979 470 979 c 0,10,11
 528 979 528 979 576 963 c 128,-1,12
 624 947 624 947 659 920 c 1,13,14
 624 1006 624 1006 577 1094 c 128,-1,15
 530 1182 530 1182 467 1251 c 1,16,-1
 221 1118 l 1,17,-1
 221 1232 l 1,18,-1
 399 1326 l 1,19,20
 353 1371 353 1371 304 1410 c 128,-1,21
 255 1449 255 1449 201 1484 c 1,22,-1
 372 1484 l 1,23,24
 409 1464 409 1464 443 1438.5 c 128,-1,25
 477 1413 477 1413 512 1382 c 1,26,-1
 763 1514 l 1,27,-1
 762 1402 l 1,28,-1
 589 1310 l 1,29,30
 655 1236 655 1236 708 1148 c 128,-1,31
 761 1060 761 1060 797 960 c 128,-1,32
 833 860 833 860 852.5 748.5 c 128,-1,33
 872 637 872 637 872 516 c 2,34,-1
 872 510 l 2,35,36
 872 388 872 388 848.5 290 c 128,-1,37
 825 192 825 192 776 123 c 128,-1,38
 727 54 727 54 649.5 17 c 128,-1,39
 572 -20 572 -20 464 -20 c 0,0,1
717 481 m 0,40,41
 717 575 717 575 703.5 643.5 c 128,-1,42
 690 712 690 712 660.5 757 c 128,-1,43
 631 802 631 802 585 824 c 128,-1,44
 539 846 539 846 473 846 c 128,-1,45
 407 846 407 846 359.5 823.5 c 128,-1,46
 312 801 312 801 282.5 755 c 128,-1,47
 253 709 253 709 239.5 640.5 c 128,-1,48
 226 572 226 572 226 481 c 0,49,50
 226 291 226 291 285 202 c 128,-1,51
 344 113 344 113 462 113 c 0,52,53
 528 113 528 113 577 135 c 128,-1,54
 626 157 626 157 656.5 202 c 128,-1,55
 687 247 687 247 702 316.5 c 128,-1,56
 717 386 717 386 717 481 c 0,40,41
EndSplineSet
EndChar

StartChar: divide
Encoding: 247 247 183
Width: 1124
GlyphClass: 2
Flags: W
LayerCount: 2
Fore
SplineSet
478 958 m 1,0,-1
 478 1141 l 1,1,-1
 646 1141 l 1,2,-1
 646 958 l 1,3,-1
 478 958 l 1,0,-1
65 608 m 1,4,-1
 65 754 l 1,5,-1
 1060 754 l 1,6,-1
 1060 608 l 1,7,-1
 65 608 l 1,4,-1
478 223 m 1,8,-1
 478 406 l 1,9,-1
 646 406 l 1,10,-1
 646 223 l 1,11,-1
 478 223 l 1,8,-1
EndSplineSet
EndChar

StartChar: oslash
Encoding: 248 248 184
Width: 1026
GlyphClass: 2
Flags: W
LayerCount: 2
Fore
SplineSet
912 542 m 0,0,1
 912 258 912 258 809.5 119 c 128,-1,2
 707 -20 707 -20 512 -20 c 0,3,4
 432 -20 432 -20 368 4 c 128,-1,5
 304 28 304 28 255 78 c 1,6,-1
 173 -38 l 1,7,-1
 36 -38 l 1,8,-1
 187 176 l 1,9,10
 153 244 153 244 136 335 c 128,-1,11
 119 426 119 426 119 542 c 0,12,13
 119 1102 119 1102 517 1102 c 0,14,15
 601 1102 601 1102 665 1079 c 128,-1,16
 729 1056 729 1056 776 1011 c 1,17,-1
 850 1116 l 1,18,-1
 987 1116 l 1,19,-1
 846 915 l 1,20,21
 880 846 880 846 896 753.5 c 128,-1,22
 912 661 912 661 912 542 c 0,0,1
757 542 m 0,23,24
 757 610 757 610 752 664.5 c 128,-1,25
 747 719 747 719 738 763 c 1,26,-1
 342 201 l 1,27,28
 373 152 373 152 416 132.5 c 128,-1,29
 459 113 459 113 510 113 c 0,30,31
 567 113 567 113 613 132.5 c 128,-1,32
 659 152 659 152 691 201 c 128,-1,33
 723 250 723 250 740 333 c 128,-1,34
 757 416 757 416 757 542 c 0,23,24
274 542 m 0,35,36
 274 412 274 412 294 327 c 1,37,-1
 689 888 l 1,38,39
 659 933 659 933 616 951 c 128,-1,40
 573 969 573 969 519 969 c 0,41,42
 462 969 462 969 417 948.5 c 128,-1,43
 372 928 372 928 340 878.5 c 128,-1,44
 308 829 308 829 291 747 c 128,-1,45
 274 665 274 665 274 542 c 0,35,36
EndSplineSet
EndChar

StartChar: thorn
Encoding: 254 254 190
Width: 934
GlyphClass: 2
Flags: W
LayerCount: 2
Fore
SplineSet
113 1484 m 1,0,-1
 261 1484 l 1,1,-1
 261 1061 l 2,2,3
 261 1031 261 1031 260.5 1003.5 c 128,-1,4
 260 976 260 976 259 955 c 0,5,6
 258 930 258 930 257 908 c 1,7,-1
 262 908 l 1,8,9
 282 960 282 960 308.5 996.5 c 128,-1,10
 335 1033 335 1033 369 1056.5 c 128,-1,11
 403 1080 403 1080 444 1090.5 c 128,-1,12
 485 1101 485 1101 537 1101 c 0,13,14
 629 1101 629 1101 691.5 1061 c 128,-1,15
 754 1021 754 1021 792.5 948.5 c 128,-1,16
 831 876 831 876 847 773.5 c 128,-1,17
 863 671 863 671 863 546 c 0,18,19
 863 423 863 423 847 319 c 128,-1,20
 831 215 831 215 792.5 140 c 128,-1,21
 754 65 754 65 691.5 22.5 c 128,-1,22
 629 -20 629 -20 537 -20 c 0,23,24
 442 -20 442 -20 370.5 24 c 128,-1,25
 299 68 299 68 262 168 c 1,26,-1
 257 168 l 1,27,28
 258 166 258 166 258.5 150 c 128,-1,29
 259 134 259 134 259.5 110 c 128,-1,30
 260 86 260 86 260.5 56.5 c 128,-1,31
 261 27 261 27 261 -2 c 2,32,-1
 261 -425 l 1,33,-1
 113 -425 l 1,34,-1
 113 1484 l 1,0,-1
708 542 m 0,35,36
 708 642 708 642 698.5 720 c 128,-1,37
 689 798 689 798 664.5 852 c 128,-1,38
 640 906 640 906 600 934 c 128,-1,39
 560 962 560 962 499 962 c 0,40,41
 450 962 450 962 406.5 945 c 128,-1,42
 363 928 363 928 330.5 880 c 128,-1,43
 298 832 298 832 279.5 747.5 c 128,-1,44
 261 663 261 663 261 528 c 0,45,46
 261 413 261 413 276.5 333.5 c 128,-1,47
 292 254 292 254 322 205 c 128,-1,48
 352 156 352 156 396 134.5 c 128,-1,49
 440 113 440 113 498 113 c 0,50,51
 560 113 560 113 600 142 c 128,-1,52
 640 171 640 171 664.5 226 c 128,-1,53
 689 281 689 281 698.5 360.5 c 128,-1,54
 708 440 708 440 708 542 c 0,35,36
EndSplineSet
EndChar

StartChar: dcroat
Encoding: 273 273 209
Width: 928
GlyphClass: 2
Flags: W
LayerCount: 2
Fore
SplineSet
669 174 m 1,0,1
 628 70 628 70 561 25 c 128,-1,2
 494 -20 494 -20 394 -20 c 0,3,4
 227 -20 227 -20 148.5 118 c 128,-1,5
 70 256 70 256 70 536 c 0,6,7
 70 1102 70 1102 394 1102 c 0,8,9
 494 1102 494 1102 561 1057 c 128,-1,10
 628 1012 628 1012 669 914 c 1,11,-1
 671 914 l 1,12,13
 671 924 671 924 670 946 c 1,14,-1
 670 990 l 1,15,16
 669 1014 669 1014 669 1035 c 2,17,-1
 669 1065 l 1,18,-1
 669 1206 l 1,19,-1
 424 1206 l 1,20,-1
 424 1337 l 1,21,-1
 669 1337 l 1,22,-1
 669 1484 l 1,23,-1
 816 1484 l 1,24,-1
 816 1337 l 1,25,-1
 923 1337 l 1,26,-1
 923 1206 l 1,27,-1
 816 1206 l 1,28,-1
 816 223 l 1,29,-1
 816 148 l 2,30,31
 816 112 816 112 817 82 c 128,-1,32
 818 52 818 52 819 30.5 c 128,-1,33
 820 9 820 9 820 0 c 1,34,-1
 680 0 l 1,35,36
 678 10 678 10 677 28.5 c 128,-1,37
 676 47 676 47 675 71 c 2,38,-1
 673 122 l 2,39,40
 672 148 672 148 672 174 c 1,41,-1
 669 174 l 1,0,1
224 542 m 0,42,43
 224 430 224 430 235.5 350 c 128,-1,44
 247 270 247 270 272 218.5 c 128,-1,45
 297 167 297 167 336.5 143 c 128,-1,46
 376 119 376 119 432 119 c 0,47,48
 490 119 490 119 534 142 c 128,-1,49
 578 165 578 165 608 216.5 c 128,-1,50
 638 268 638 268 653.5 351 c 128,-1,51
 669 434 669 434 669 554 c 0,52,53
 669 669 669 669 653.5 748.5 c 128,-1,54
 638 828 638 828 608 877 c 128,-1,55
 578 926 578 926 534 947.5 c 128,-1,56
 490 969 490 969 433 969 c 0,57,58
 379 969 379 969 340 946 c 128,-1,59
 301 923 301 923 275 872 c 128,-1,60
 249 821 249 821 236.5 739.5 c 128,-1,61
 224 658 224 658 224 542 c 0,42,43
EndSplineSet
EndChar

StartChar: Hbar
Encoding: 294 294 230
Width: 1212
GlyphClass: 2
Flags: W
LayerCount: 2
Fore
SplineSet
923 0 m 1,0,-1
 923 653 l 1,1,-1
 294 653 l 1,2,-1
 294 0 l 1,3,-1
 138 0 l 1,4,-1
 138 1025 l 1,5,-1
 11 1025 l 1,6,-1
 11 1179 l 1,7,-1
 138 1179 l 1,8,-1
 138 1409 l 1,9,-1
 294 1409 l 1,10,-1
 294 1179 l 1,11,-1
 923 1179 l 1,12,-1
 923 1409 l 1,13,-1
 1075 1409 l 1,14,-1
 1075 1179 l 1,15,-1
 1201 1179 l 1,16,-1
 1201 1025 l 1,17,-1
 1075 1025 l 1,18,-1
 1075 0 l 1,19,-1
 923 0 l 1,0,-1
923 813 m 1,20,-1
 923 1025 l 1,21,-1
 294 1025 l 1,22,-1
 294 813 l 1,23,-1
 923 813 l 1,20,-1
EndSplineSet
EndChar

StartChar: hbar
Encoding: 295 295 231
Width: 934
GlyphClass: 2
Flags: W
LayerCount: 2
Fore
SplineSet
260 857 m 1,0,1
 285 912 285 912 313.5 950.5 c 128,-1,2
 342 989 342 989 376.5 1014 c 128,-1,3
 411 1039 411 1039 452 1050.5 c 128,-1,4
 493 1062 493 1062 544 1062 c 0,5,6
 629 1062 629 1062 683.5 1034 c 128,-1,7
 738 1006 738 1006 769.5 955.5 c 128,-1,8
 801 905 801 905 813 835 c 128,-1,9
 825 765 825 765 825 681 c 2,10,-1
 825 0 l 1,11,-1
 677 0 l 1,12,-1
 677 646 l 2,13,14
 677 715 677 715 670 767 c 128,-1,15
 663 819 663 819 643 853.5 c 128,-1,16
 623 888 623 888 587 905.5 c 128,-1,17
 551 923 551 923 494 923 c 0,18,19
 442 923 442 923 399.5 900 c 128,-1,20
 357 877 357 877 327 835 c 128,-1,21
 297 793 297 793 280.5 733 c 128,-1,22
 264 673 264 673 264 598 c 2,23,-1
 264 0 l 1,24,-1
 116 0 l 1,25,-1
 116 1206 l 1,26,-1
 8 1206 l 1,27,-1
 8 1337 l 1,28,-1
 116 1337 l 1,29,-1
 116 1484 l 1,30,-1
 264 1484 l 1,31,-1
 264 1337 l 1,32,-1
 510 1337 l 1,33,-1
 510 1206 l 1,34,-1
 264 1206 l 1,35,-1
 264 1058 l 2,36,37
 264 1025 264 1025 263 992 c 128,-1,38
 262 959 262 959 261 931 c 128,-1,39
 260 903 260 903 259 883.5 c 128,-1,40
 258 864 258 864 257 857 c 1,41,-1
 260 857 l 1,0,1
EndSplineSet
EndChar

StartChar: dotlessi
Encoding: 305 305 241
Width: 467
GlyphClass: 2
Flags: W
LayerCount: 2
Fore
SplineSet
159 0 m 1,0,-1
 159 1082 l 1,1,-1
 307 1082 l 1,2,-1
 307 0 l 1,3,-1
 159 0 l 1,0,-1
EndSplineSet
EndChar

StartChar: jcircumflex
Encoding: 309 309 245
Width: 373
GlyphClass: 2
Flags: W
LayerCount: 2
Fore
SplineSet
63 -425 m 0,0,1
 35 -425 35 -425 8.5 -423 c 128,-1,2
 -18 -421 -18 -421 -41 -416 c 1,3,-1
 -41 -277 l 1,4,5
 -30 -279 -30 -279 -15.5 -281 c 128,-1,6
 -1 -283 -1 -283 10 -283 c 0,7,8
 41 -283 41 -283 61 -273 c 128,-1,9
 81 -263 81 -263 92.5 -241.5 c 128,-1,10
 104 -220 104 -220 108 -186.5 c 128,-1,11
 112 -153 112 -153 112 -107 c 2,12,-1
 112 1082 l 1,13,-1
 260 1082 l 1,14,-1
 260 -134 l 2,15,16
 260 -196 260 -196 251.5 -249 c 128,-1,17
 243 -302 243 -302 220.5 -341 c 128,-1,18
 198 -380 198 -380 160 -402.5 c 128,-1,19
 122 -425 122 -425 63 -425 c 0,0,1
458 1221 m 1,20,-1
 458 1201 l 1,21,-1
 372 1201 l 1,22,-1
 193 1370 l 1,23,-1
 191 1370 l 1,24,-1
 1 1201 l 1,25,-1
 -84 1201 l 1,26,-1
 -84 1221 l 1,27,-1
 107 1491 l 1,28,-1
 275 1491 l 1,29,-1
 458 1221 l 1,20,-1
EndSplineSet
EndChar

StartChar: kgreenlandic
Encoding: 312 312 248
Width: 836
GlyphClass: 2
Flags: W
LayerCount: 2
Fore
SplineSet
666 0 m 1,0,-1
 367 494 l 1,1,-1
 260 386 l 1,2,-1
 260 0 l 1,3,-1
 113 0 l 1,4,-1
 113 1082 l 1,5,-1
 260 1082 l 1,6,-1
 260 557 l 1,7,-1
 647 1082 l 1,8,-1
 820 1082 l 1,9,-1
 461 617 l 1,10,-1
 838 0 l 1,11,-1
 666 0 l 1,0,-1
EndSplineSet
EndChar

StartChar: Lslash
Encoding: 321 321 257
Width: 934
GlyphClass: 2
Flags: W
LayerCount: 2
Fore
SplineSet
505 797 m 1,0,-1
 294 648 l 1,1,-1
 294 156 l 1,2,-1
 878 156 l 1,3,-1
 878 0 l 1,4,-1
 138 0 l 1,5,-1
 138 538 l 1,6,-1
 16 453 l 1,7,-1
 16 611 l 1,8,-1
 138 696 l 1,9,-1
 138 1409 l 1,10,-1
 294 1409 l 1,11,-1
 294 806 l 1,12,-1
 505 954 l 1,13,-1
 505 797 l 1,0,-1
EndSplineSet
EndChar

StartChar: lslash
Encoding: 322 322 258
Width: 373
GlyphClass: 2
Flags: W
LayerCount: 2
Fore
SplineSet
113 0 m 1,0,-1
 113 542 l 1,1,-1
 13 474 l 1,2,-1
 13 632 l 1,3,-1
 113 700 l 1,4,-1
 113 1484 l 1,5,-1
 261 1484 l 1,6,-1
 261 804 l 1,7,-1
 362 876 l 1,8,-1
 362 717 l 1,9,-1
 261 646 l 1,10,-1
 261 0 l 1,11,-1
 113 0 l 1,0,-1
EndSplineSet
EndChar

StartChar: Eng
Encoding: 330 330 266
Width: 1212
GlyphClass: 2
Flags: W
LayerCount: 2
Fore
SplineSet
770 -20 m 0,0,1
 724 -20 724 -20 685 -8 c 128,-1,2
 646 4 646 4 613.5 24 c 128,-1,3
 581 44 581 44 555 71 c 128,-1,4
 529 98 529 98 510 128 c 1,5,-1
 614 243 l 1,6,7
 644 198 644 198 685 165.5 c 128,-1,8
 726 133 726 133 774 133 c 0,9,10
 826 133 826 133 858 162 c 128,-1,11
 890 191 890 191 907 244.5 c 128,-1,12
 924 298 924 298 929.5 374.5 c 128,-1,13
 935 451 935 451 935 546 c 2,14,-1
 935 868 l 2,15,16
 935 976 935 976 919 1053 c 128,-1,17
 903 1130 903 1130 869.5 1179 c 128,-1,18
 836 1228 836 1228 784 1251 c 128,-1,19
 732 1274 732 1274 661 1274 c 0,20,21
 584 1274 584 1274 517.5 1243 c 128,-1,22
 451 1212 451 1212 401.5 1159.5 c 128,-1,23
 352 1107 352 1107 323.5 1037.5 c 128,-1,24
 295 968 295 968 295 891 c 2,25,-1
 295 0 l 1,26,-1
 138 0 l 1,27,-1
 138 1092 l 2,28,29
 138 1129 138 1129 137.5 1175 c 128,-1,30
 137 1221 137 1221 137 1266 c 128,-1,31
 137 1311 137 1311 136.5 1349 c 128,-1,32
 136 1387 136 1387 135 1409 c 1,33,-1
 286 1409 l 1,34,35
 287 1387 287 1387 288 1356 c 2,36,-1
 290 1290 l 2,37,38
 291 1255 291 1255 291 1220 c 2,39,-1
 291 1158 l 1,40,-1
 295 1158 l 1,41,42
 323 1219 323 1219 365 1269.5 c 128,-1,43
 407 1320 407 1320 460 1355 c 128,-1,44
 513 1390 513 1390 575.5 1409.5 c 128,-1,45
 638 1429 638 1429 709 1429 c 0,46,47
 810 1429 810 1429 882.5 1397 c 128,-1,48
 955 1365 955 1365 1001 1298.5 c 128,-1,49
 1047 1232 1047 1232 1068.5 1130 c 128,-1,50
 1090 1028 1090 1028 1090 889 c 2,51,-1
 1090 542 l 2,52,53
 1090 412 1090 412 1078 308 c 128,-1,54
 1066 204 1066 204 1030.5 131 c 128,-1,55
 995 58 995 58 933 19 c 128,-1,56
 871 -20 871 -20 770 -20 c 0,0,1
EndSplineSet
EndChar

StartChar: eng
Encoding: 331 331 267
Width: 934
GlyphClass: 2
Flags: W
LayerCount: 2
Fore
SplineSet
631 -425 m 0,0,1
 603 -425 603 -425 576 -423 c 128,-1,2
 549 -421 549 -421 526 -416 c 1,3,-1
 526 -277 l 1,4,5
 537 -279 537 -279 552 -281 c 128,-1,6
 567 -283 567 -283 577 -283 c 0,7,8
 608 -283 608 -283 628.5 -273 c 128,-1,9
 649 -263 649 -263 660.5 -241.5 c 128,-1,10
 672 -220 672 -220 676 -186.5 c 128,-1,11
 680 -153 680 -153 680 -107 c 2,12,-1
 680 686 l 2,13,14
 680 765 680 765 670.5 818 c 128,-1,15
 661 871 661 871 639.5 903.5 c 128,-1,16
 618 936 618 936 583.5 949.5 c 128,-1,17
 549 963 549 963 497 963 c 128,-1,18
 445 963 445 963 402.5 940.5 c 128,-1,19
 360 918 360 918 330 875.5 c 128,-1,20
 300 833 300 833 283.5 770.5 c 128,-1,21
 267 708 267 708 267 627 c 2,22,-1
 267 0 l 1,23,-1
 120 0 l 1,24,-1
 120 851 l 2,25,26
 120 885 120 885 119.5 922.5 c 128,-1,27
 119 960 119 960 118 993.5 c 128,-1,28
 117 1027 117 1027 116.5 1051 c 128,-1,29
 116 1075 116 1075 115 1082 c 1,30,-1
 254 1082 l 1,31,32
 255 1077 255 1077 256 1055 c 128,-1,33
 257 1033 257 1033 258 1004 c 2,34,35
 258 1004 258 1004 260 946 c 0,36,37
 261 917 261 917 261 897 c 1,38,-1
 263 897 l 1,39,40
 284 944 284 944 309.5 982 c 128,-1,41
 335 1020 335 1020 369 1046.5 c 128,-1,42
 403 1073 403 1073 446.5 1087.5 c 128,-1,43
 490 1102 490 1102 547 1102 c 0,44,45
 621 1102 621 1102 674 1080 c 128,-1,46
 727 1058 727 1058 761.5 1012 c 128,-1,47
 796 966 796 966 812 893.5 c 128,-1,48
 828 821 828 821 828 721 c 2,49,-1
 828 -134 l 2,50,51
 828 -196 828 -196 819 -249 c 128,-1,52
 810 -302 810 -302 788 -341 c 128,-1,53
 766 -380 766 -380 728 -402.5 c 128,-1,54
 690 -425 690 -425 631 -425 c 0,0,1
EndSplineSet
EndChar

StartChar: OE
Encoding: 338 338 274
Width: 1679
GlyphClass: 2
Flags: W
LayerCount: 2
Fore
SplineSet
819 0 m 1,0,1
 803 -3 803 -3 782 -4.5 c 128,-1,2
 761 -6 761 -6 737.5 -7.5 c 128,-1,3
 714 -9 714 -9 690.5 -9.5 c 128,-1,4
 667 -10 667 -10 647 -10 c 0,5,6
 508 -10 508 -10 402 43 c 128,-1,7
 296 96 296 96 224 191.5 c 128,-1,8
 152 287 152 287 116 419.5 c 128,-1,9
 80 552 80 552 80 711 c 0,10,11
 80 876 80 876 118.5 1007.5 c 128,-1,12
 157 1139 157 1139 230 1230.5 c 128,-1,13
 303 1322 303 1322 408.5 1371 c 128,-1,14
 514 1420 514 1420 648 1420 c 0,15,16
 669 1420 669 1420 693 1419 c 128,-1,17
 717 1418 717 1418 740.5 1416.5 c 128,-1,18
 764 1415 764 1415 785.5 1413 c 128,-1,19
 807 1411 807 1411 822 1409 c 1,20,-1
 1572 1409 l 1,21,-1
 1572 1253 l 1,22,-1
 913 1253 l 1,23,-1
 913 801 l 1,24,-1
 1522 801 l 1,25,-1
 1522 647 l 1,26,-1
 913 647 l 1,27,-1
 913 156 l 1,28,-1
 1605 156 l 1,29,-1
 1605 0 l 1,30,-1
 819 0 l 1,0,1
647 145 m 0,31,32
 673 145 673 145 704 146 c 128,-1,33
 735 147 735 147 757 149 c 1,34,-1
 757 1260 l 1,35,36
 748 1261 748 1261 734.5 1262 c 128,-1,37
 721 1263 721 1263 706 1263.5 c 128,-1,38
 691 1264 691 1264 676 1264 c 2,39,-1
 648 1264 l 2,40,41
 546 1264 546 1264 469.5 1227 c 128,-1,42
 393 1190 393 1190 341.5 1119 c 128,-1,43
 290 1048 290 1048 264.5 945 c 128,-1,44
 239 842 239 842 239 711 c 0,45,46
 239 582 239 582 265 477.5 c 128,-1,47
 291 373 291 373 342.5 299 c 128,-1,48
 394 225 394 225 470.5 185 c 128,-1,49
 547 145 547 145 647 145 c 0,31,32
EndSplineSet
EndChar

StartChar: oe
Encoding: 339 339 275
Width: 1585
GlyphClass: 2
Flags: W
LayerCount: 2
Fore
SplineSet
877 503 m 1,0,1
 877 418 877 418 891.5 346.5 c 128,-1,2
 906 275 906 275 936 223.5 c 128,-1,3
 966 172 966 172 1012.5 143.5 c 128,-1,4
 1059 115 1059 115 1125 115 c 0,5,6
 1221 115 1221 115 1279 162 c 128,-1,7
 1337 209 1337 209 1357 281 c 1,8,-1
 1487 236 l 1,9,10
 1473 191 1473 191 1448 145.5 c 128,-1,11
 1423 100 1423 100 1381 63.5 c 128,-1,12
 1339 27 1339 27 1276.5 3.5 c 128,-1,13
 1214 -20 1214 -20 1125 -20 c 0,14,15
 1013 -20 1013 -20 931.5 25.5 c 128,-1,16
 850 71 850 71 800 163 c 1,17,18
 748 70 748 70 666 25 c 128,-1,19
 584 -20 584 -20 471 -20 c 0,20,21
 378 -20 378 -20 304 14 c 128,-1,22
 230 48 230 48 178 118 c 128,-1,23
 126 188 126 188 98.5 293.5 c 128,-1,24
 71 399 71 399 71 542 c 0,25,26
 71 821 71 821 174.5 961.5 c 128,-1,27
 278 1102 278 1102 476 1102 c 0,28,29
 706 1102 706 1102 803 925 c 1,30,31
 858 1019 858 1019 940 1060.5 c 128,-1,32
 1022 1102 1022 1102 1119 1102 c 0,33,34
 1231 1102 1231 1102 1306 1058 c 128,-1,35
 1381 1014 1381 1014 1426.5 936.5 c 128,-1,36
 1472 859 1472 859 1491 754 c 128,-1,37
 1510 649 1510 649 1510 527 c 2,38,-1
 1510 503 l 1,39,-1
 877 503 l 1,0,1
722 542 m 256,40,41
 722 668 722 668 705 750 c 128,-1,42
 688 832 688 832 656.5 881 c 128,-1,43
 625 930 625 930 580 949.5 c 128,-1,44
 535 969 535 969 479 969 c 0,45,46
 422 969 422 969 375.5 948.5 c 128,-1,47
 329 928 329 928 295.5 878.5 c 128,-1,48
 262 829 262 829 243.5 747 c 128,-1,49
 225 665 225 665 225 542 c 0,50,51
 225 416 225 416 244.5 333.5 c 128,-1,52
 264 251 264 251 297 202 c 128,-1,53
 330 153 330 153 374.5 133 c 128,-1,54
 419 113 419 113 470 113 c 0,55,56
 527 113 527 113 573.5 132.5 c 128,-1,57
 620 152 620 152 653 201 c 128,-1,58
 686 250 686 250 704 333 c 128,-1,59
 722 416 722 416 722 542 c 256,40,41
1358 641 m 1,60,61
 1346 812 1346 812 1286.5 890.5 c 128,-1,62
 1227 969 1227 969 1117 969 c 0,63,64
 1080 969 1080 969 1039.5 954.5 c 128,-1,65
 999 940 999 940 964.5 903 c 128,-1,66
 930 866 930 866 906 802.5 c 128,-1,67
 882 739 882 739 879 641 c 1,68,-1
 1358 641 l 1,60,61
EndSplineSet
EndChar

StartChar: Tbar
Encoding: 358 358 294
Width: 1026
GlyphClass: 2
Flags: W
LayerCount: 2
Fore
SplineSet
590 1253 m 1,0,-1
 590 801 l 1,1,-1
 821 801 l 1,2,-1
 821 647 l 1,3,-1
 590 647 l 1,4,-1
 590 0 l 1,5,-1
 435 0 l 1,6,-1
 435 647 l 1,7,-1
 206 647 l 1,8,-1
 206 801 l 1,9,-1
 435 801 l 1,10,-1
 435 1253 l 1,11,-1
 38 1253 l 1,12,-1
 38 1409 l 1,13,-1
 987 1409 l 1,14,-1
 987 1253 l 1,15,-1
 590 1253 l 1,0,-1
EndSplineSet
EndChar

StartChar: tbar
Encoding: 359 359 295
Width: 468
GlyphClass: 2
Flags: W
LayerCount: 2
Fore
SplineSet
276 516 m 1,0,-1
 276 268 l 2,1,2
 276 190 276 190 297 158.5 c 128,-1,3
 318 127 318 127 370 127 c 0,4,5
 391 127 391 127 411.5 131 c 128,-1,6
 432 135 432 135 456 141 c 1,7,-1
 456 8 l 1,8,9
 422 -3 422 -3 387 -9.5 c 128,-1,10
 352 -16 352 -16 306 -16 c 0,11,12
 128 -16 128 -16 128 229 c 2,13,-1
 128 516 l 1,14,-1
 26 516 l 1,15,-1
 26 647 l 1,16,-1
 128 647 l 1,17,-1
 128 951 l 1,18,-1
 26 951 l 1,19,-1
 26 1082 l 1,20,-1
 134 1082 l 1,21,-1
 178 1324 l 1,22,-1
 276 1324 l 1,23,-1
 276 1082 l 1,24,-1
 441 1082 l 1,25,-1
 441 951 l 1,26,-1
 276 951 l 1,27,-1
 276 647 l 1,28,-1
 441 647 l 1,29,-1
 441 516 l 1,30,-1
 276 516 l 1,0,-1
EndSplineSet
EndChar

StartChar: longs
Encoding: 383 383 319
Width: 373
GlyphClass: 2
Flags: W
LayerCount: 2
Fore
SplineSet
261 0 m 1,0,-1
 113 0 l 1,1,-1
 113 1204 l 2,2,3
 113 1263 113 1263 122 1313.5 c 128,-1,4
 131 1364 131 1364 155.5 1401.5 c 128,-1,5
 180 1439 180 1439 221.5 1460.5 c 128,-1,6
 263 1482 263 1482 330 1482 c 0,7,8
 356 1482 356 1482 384 1479 c 128,-1,9
 412 1476 412 1476 434 1470 c 1,10,-1
 434 1333 l 1,11,12
 420 1336 420 1336 401.5 1338.5 c 128,-1,13
 383 1341 383 1341 368 1341 c 0,14,15
 335 1341 335 1341 314 1330 c 128,-1,16
 293 1319 293 1319 281.5 1298.5 c 128,-1,17
 270 1278 270 1278 265.5 1248 c 128,-1,18
 261 1218 261 1218 261 1179 c 2,19,-1
 261 0 l 1,0,-1
EndSplineSet
EndChar

StartChar: florin
Encoding: 402 402 320
Width: 934
GlyphClass: 2
Flags: W
LayerCount: 2
Fore
SplineSet
764 1312 m 1,0,1
 750 1317 750 1317 724.5 1322 c 128,-1,2
 699 1327 699 1327 674 1327 c 256,3,4
 649 1327 649 1327 630 1317.5 c 128,-1,5
 611 1308 611 1308 597.5 1288 c 128,-1,6
 584 1268 584 1268 574 1236 c 128,-1,7
 564 1204 564 1204 557 1159 c 2,8,-1
 535 1022 l 1,9,-1
 708 1022 l 1,10,-1
 688 891 l 1,11,-1
 513 891 l 1,12,-1
 305 -434 l 1,13,-1
 157 -434 l 1,14,-1
 366 891 l 1,15,-1
 241 891 l 1,16,-1
 263 1022 l 1,17,-1
 387 1022 l 1,18,-1
 411 1174 l 2,19,20
 421 1233 421 1233 437 1284 c 128,-1,21
 453 1335 453 1335 482.5 1373 c 128,-1,22
 512 1411 512 1411 556.5 1432.5 c 128,-1,23
 601 1454 601 1454 667 1454 c 0,24,25
 693 1454 693 1454 727 1449 c 128,-1,26
 761 1444 761 1444 790 1434 c 1,27,-1
 764 1312 l 1,0,1
EndSplineSet
EndChar

StartChar: Aringacute
Encoding: 506 506 321
Width: 1120
GlyphClass: 2
Flags: W
LayerCount: 2
Fore
SplineSet
759 1392 m 256,0,1
 759 1347 759 1347 743.5 1307.5 c 128,-1,2
 728 1268 728 1268 701 1238 c 0,3,4
 688 1223 688 1223 673 1212 c 1,5,-1
 1117 0 l 1,6,-1
 957 0 l 1,7,-1
 825 371 l 1,8,-1
 298 371 l 1,9,-1
 166 0 l 1,10,-1
 3 0 l 1,11,-1
 453 1209 l 1,12,13
 436 1221 436 1221 421 1238 c 0,14,15
 394 1268 394 1268 378 1307.5 c 128,-1,16
 362 1347 362 1347 362 1392 c 256,17,18
 362 1437 362 1437 378 1476.5 c 128,-1,19
 394 1516 394 1516 421 1545.5 c 128,-1,20
 448 1575 448 1575 484 1592 c 128,-1,21
 520 1609 520 1609 561 1609 c 256,22,23
 602 1609 602 1609 638 1592 c 128,-1,24
 674 1575 674 1575 701 1545.5 c 128,-1,25
 728 1516 728 1516 743.5 1476.5 c 128,-1,26
 759 1437 759 1437 759 1392 c 256,0,1
630 923 m 2,27,28
 617 959 617 959 605 996 c 2,29,-1
 584 1063 l 1,30,-1
 568 1114 l 2,31,32
 562 1134 562 1134 562 1138 c 1,33,34
 560 1134 560 1134 554.5 1113.5 c 128,-1,35
 549 1093 549 1093 540 1062 c 2,36,-1
 518 994 l 1,37,-1
 494 922 l 1,38,-1
 346 505 l 1,39,-1
 778 505 l 1,40,-1
 630 923 l 2,27,28
671 1392 m 0,41,42
 671 1417 671 1417 662 1439 c 128,-1,43
 653 1461 653 1461 638.5 1477.5 c 128,-1,44
 624 1494 624 1494 604 1503.5 c 128,-1,45
 584 1513 584 1513 561 1513 c 0,46,47
 537 1513 537 1513 517 1503.5 c 128,-1,48
 497 1494 497 1494 482 1477.5 c 128,-1,49
 467 1461 467 1461 458.5 1439 c 128,-1,50
 450 1417 450 1417 450 1392 c 0,51,52
 450 1366 450 1366 458.5 1344 c 128,-1,53
 467 1322 467 1322 482 1304.5 c 128,-1,54
 497 1287 497 1287 517 1277 c 0,55,56
 534 1269 534 1269 553 1268 c 1,57,-1
 561 1268 l 2,58,59
 584 1268 584 1268 604 1277.5 c 128,-1,60
 624 1287 624 1287 638.5 1304.5 c 128,-1,61
 653 1322 653 1322 662 1344 c 128,-1,62
 671 1366 671 1366 671 1392 c 0,41,42
468 1657 m 1,63,-1
 468 1673 l 1,64,-1
 646 1854 l 1,65,-1
 816 1854 l 1,66,-1
 816 1831 l 1,67,-1
 562 1657 l 1,68,-1
 468 1657 l 1,63,-1
EndSplineSet
EndChar

StartChar: circumflex
Encoding: 710 710 327
Width: 559
GlyphClass: 2
Flags: W
LayerCount: 2
Fore
SplineSet
543 1221 m 1,0,-1
 543 1201 l 1,1,-1
 457 1201 l 1,2,-1
 277 1370 l 1,3,-1
 275 1370 l 1,4,-1
 85 1201 l 1,5,-1
 0 1201 l 1,6,-1
 0 1221 l 1,7,-1
 192 1491 l 1,8,-1
 359 1491 l 1,9,-1
 543 1221 l 1,0,-1
EndSplineSet
EndChar

StartChar: caron
Encoding: 711 711 328
Width: 559
GlyphClass: 2
Flags: W
LayerCount: 2
Fore
SplineSet
359 1201 m 1,0,-1
 192 1201 l 1,1,-1
 0 1471 l 1,2,-1
 0 1491 l 1,3,-1
 85 1491 l 1,4,-1
 275 1322 l 1,5,-1
 277 1322 l 1,6,-1
 457 1491 l 1,7,-1
 543 1491 l 1,8,-1
 543 1471 l 1,9,-1
 359 1201 l 1,0,-1
EndSplineSet
EndChar

StartChar: uni02C9
Encoding: 713 713 329
Width: 1024
GlyphClass: 2
Flags: W
LayerCount: 2
Fore
SplineSet
901 1236 m 1,0,-1
 77 1236 l 1,1,-1
 77 1363 l 1,2,-1
 901 1363 l 1,3,-1
 901 1236 l 1,0,-1
EndSplineSet
EndChar

StartChar: breve
Encoding: 728 728 330
Width: 559
GlyphClass: 2
Flags: W
LayerCount: 2
Fore
SplineSet
243 1201 m 0,0,1
 182 1201 182 1201 135 1226.5 c 128,-1,2
 88 1252 88 1252 53.5 1294.5 c 128,-1,3
 19 1337 19 1337 -1.5 1393 c 128,-1,4
 -22 1449 -22 1449 -29 1510 c 1,5,-1
 67 1510 l 1,6,7
 74 1467 74 1467 90 1437.5 c 128,-1,8
 106 1408 106 1408 129 1390 c 128,-1,9
 152 1372 152 1372 181.5 1364.5 c 128,-1,10
 211 1357 211 1357 245 1357 c 256,11,12
 279 1357 279 1357 308.5 1365 c 128,-1,13
 338 1373 338 1373 361 1391 c 128,-1,14
 384 1409 384 1409 399.5 1438.5 c 128,-1,15
 415 1468 415 1468 421 1510 c 1,16,-1
 517 1510 l 1,17,18
 510 1449 510 1449 489.5 1393 c 128,-1,19
 469 1337 469 1337 435 1294.5 c 128,-1,20
 401 1252 401 1252 353 1226.5 c 128,-1,21
 305 1201 305 1201 243 1201 c 0,0,1
EndSplineSet
EndChar

StartChar: dotaccent
Encoding: 729 729 331
Width: 559
GlyphClass: 2
Flags: W
LayerCount: 2
Fore
SplineSet
128 1312 m 1,0,-1
 128 1484 l 1,1,-1
 275 1484 l 1,2,-1
 275 1312 l 1,3,-1
 128 1312 l 1,0,-1
EndSplineSet
EndChar

StartChar: ring
Encoding: 730 730 332
Width: 559
GlyphClass: 2
Flags: W
LayerCount: 2
Fore
SplineSet
439 1410 m 256,0,1
 439 1360 439 1360 423 1316 c 128,-1,2
 407 1272 407 1272 380 1239 c 128,-1,3
 353 1206 353 1206 317 1187 c 128,-1,4
 281 1168 281 1168 240 1168 c 256,5,6
 199 1168 199 1168 163 1187 c 128,-1,7
 127 1206 127 1206 100 1239 c 128,-1,8
 73 1272 73 1272 57.5 1316 c 128,-1,9
 42 1360 42 1360 42 1410 c 256,10,11
 42 1460 42 1460 57.5 1504 c 128,-1,12
 73 1548 73 1548 100 1580.5 c 128,-1,13
 127 1613 127 1613 163 1632 c 128,-1,14
 199 1651 199 1651 240 1651 c 256,15,16
 281 1651 281 1651 317 1632 c 128,-1,17
 353 1613 353 1613 380 1580.5 c 128,-1,18
 407 1548 407 1548 423 1504 c 128,-1,19
 439 1460 439 1460 439 1410 c 256,0,1
350 1410 m 0,20,21
 350 1438 350 1438 341.5 1462.5 c 128,-1,22
 333 1487 333 1487 318 1505 c 128,-1,23
 303 1523 303 1523 283 1533.5 c 128,-1,24
 263 1544 263 1544 240 1544 c 0,25,26
 216 1544 216 1544 196 1533.5 c 128,-1,27
 176 1523 176 1523 161.5 1505 c 128,-1,28
 147 1487 147 1487 138.5 1462.5 c 128,-1,29
 130 1438 130 1438 130 1410 c 0,30,31
 130 1381 130 1381 138.5 1356.5 c 128,-1,32
 147 1332 147 1332 161.5 1313 c 128,-1,33
 176 1294 176 1294 196 1283.5 c 128,-1,34
 216 1273 216 1273 240 1273 c 0,35,36
 263 1273 263 1273 283 1283.5 c 128,-1,37
 303 1294 303 1294 318 1313 c 128,-1,38
 333 1332 333 1332 341.5 1356.5 c 128,-1,39
 350 1381 350 1381 350 1410 c 0,20,21
EndSplineSet
EndChar

StartChar: ogonek
Encoding: 731 731 333
Width: 559
GlyphClass: 2
Flags: W
LayerCount: 2
Fore
SplineSet
352 -400 m 1,0,1
 329 -412 329 -412 300 -419.5 c 128,-1,2
 271 -427 271 -427 239 -427 c 0,3,4
 153 -427 153 -427 109.5 -376 c 128,-1,5
 66 -325 66 -325 66 -240 c 0,6,7
 66 -193 66 -193 79.5 -153.5 c 128,-1,8
 93 -114 93 -114 113 -83.5 c 128,-1,9
 133 -53 133 -53 154.5 -32 c 128,-1,10
 176 -11 176 -11 193 0 c 1,11,-1
 302 0 l 1,12,13
 282 -14 282 -14 260.5 -36.5 c 128,-1,14
 239 -59 239 -59 221 -88.5 c 128,-1,15
 203 -118 203 -118 192 -153 c 128,-1,16
 181 -188 181 -188 181 -227 c 0,17,18
 181 -269 181 -269 201 -293 c 128,-1,19
 221 -317 221 -317 258 -317 c 0,20,21
 282 -317 282 -317 306 -310.5 c 128,-1,22
 330 -304 330 -304 352 -293 c 1,23,-1
 352 -400 l 1,0,1
EndSplineSet
EndChar

StartChar: tilde
Encoding: 732 732 334
Width: 559
GlyphClass: 2
Flags: W
LayerCount: 2
Fore
SplineSet
403 1201 m 0,0,1
 369 1201 369 1201 334.5 1219.5 c 128,-1,2
 300 1238 300 1238 268 1260.5 c 128,-1,3
 236 1283 236 1283 207 1301.5 c 128,-1,4
 178 1320 178 1320 152 1320 c 0,5,6
 107 1320 107 1320 85 1289 c 128,-1,7
 63 1258 63 1258 56 1201 c 1,8,-1
 -19 1201 l 1,9,10
 -15 1246 -15 1246 -6.5 1293.5 c 128,-1,11
 2 1341 2 1341 20.5 1380 c 128,-1,12
 39 1419 39 1419 69 1444 c 128,-1,13
 99 1469 99 1469 148 1469 c 0,14,15
 184 1469 184 1469 218 1450.5 c 128,-1,16
 252 1432 252 1432 284 1410 c 2,17,-1
 344 1368 l 1,18,19
 373 1350 373 1350 398 1350 c 0,20,21
 442 1350 442 1350 464.5 1381.5 c 128,-1,22
 487 1413 487 1413 493 1469 c 1,23,-1
 569 1469 l 1,24,25
 565 1425 565 1425 556.5 1377.5 c 128,-1,26
 548 1330 548 1330 530.5 1291 c 128,-1,27
 513 1252 513 1252 482.5 1226.5 c 128,-1,28
 452 1201 452 1201 403 1201 c 0,0,1
EndSplineSet
EndChar

StartChar: hungarumlaut
Encoding: 733 733 335
Width: 559
GlyphClass: 2
Flags: W
LayerCount: 2
Fore
SplineSet
18 1201 m 1,0,-1
 18 1221 l 1,1,-1
 196 1508 l 1,2,-1
 366 1508 l 1,3,-1
 366 1479 l 1,4,-1
 95 1201 l 1,5,-1
 18 1201 l 1,0,-1
302 1201 m 1,6,-1
 302 1221 l 1,7,-1
 480 1508 l 1,8,-1
 650 1508 l 1,9,-1
 650 1479 l 1,10,-1
 380 1201 l 1,11,-1
 302 1201 l 1,6,-1
EndSplineSet
EndChar

StartChar: tonos
Encoding: 900 900 336
Width: 559
GlyphClass: 2
Flags: W
LayerCount: 2
Fore
SplineSet
168 1218 m 1,0,-1
 168 1251 l 1,1,-1
 225 1543 l 1,2,-1
 394 1543 l 1,3,-1
 394 1506 l 1,4,-1
 230 1218 l 1,5,-1
 168 1218 l 1,0,-1
EndSplineSet
EndChar

StartChar: dieresistonos
Encoding: 901 901 337
Width: 559
GlyphClass: 2
Flags: W
LayerCount: 2
Fore
SplineSet
205 1200 m 1,0,-1
 205 1233 l 1,1,-1
 261 1601 l 1,2,-1
 415 1601 l 1,3,-1
 415 1564 l 1,4,-1
 266 1200 l 1,5,-1
 205 1200 l 1,0,-1
24 1231 m 1,6,-1
 24 1403 l 1,7,-1
 147 1403 l 1,8,-1
 147 1231 l 1,9,-1
 24 1231 l 1,6,-1
411 1231 m 1,10,-1
 411 1403 l 1,11,-1
 534 1403 l 1,12,-1
 534 1231 l 1,13,-1
 411 1231 l 1,10,-1
EndSplineSet
EndChar

StartChar: anoteleia
Encoding: 903 903 339
Width: 682
GlyphClass: 2
Flags: W
LayerCount: 2
Fore
SplineSet
224 446 m 1,0,-1
 224 666 l 1,1,-1
 458 666 l 1,2,-1
 458 446 l 1,3,-1
 224 446 l 1,0,-1
EndSplineSet
EndChar

StartChar: Gamma
Encoding: 915 915 349
Width: 897
GlyphClass: 2
Flags: W
LayerCount: 2
Fore
SplineSet
852 1410 m 1,0,-1
 852 1254 l 1,1,-1
 285 1254 l 1,2,-1
 285 1 l 1,3,-1
 134 1 l 1,4,-1
 134 1410 l 1,5,-1
 852 1410 l 1,0,-1
EndSplineSet
EndChar

StartChar: Delta
Encoding: 916 916 350
Width: 1145
GlyphClass: 2
Flags: W
LayerCount: 2
Fore
SplineSet
52 141 m 1,0,-1
 485 1409 l 1,1,-1
 666 1409 l 1,2,-1
 1093 141 l 1,3,-1
 1093 0 l 1,4,-1
 51 0 l 1,5,-1
 52 141 l 1,0,-1
926 156 m 1,6,-1
 643 1018 l 1,7,8
 643 1018 643 1018 618 1099 c 0,9,10
 605 1140 605 1140 596 1174 c 2,11,-1
 580 1233 l 2,12,13
 574 1257 574 1257 573 1265 c 1,14,15
 571 1257 571 1257 565.5 1232.5 c 128,-1,16
 560 1208 560 1208 550 1173 c 2,17,-1
 529 1097 l 2,18,19
 517 1056 517 1056 504 1016 c 2,20,-1
 220 156 l 1,21,-1
 926 156 l 1,6,-1
EndSplineSet
EndChar

StartChar: Theta
Encoding: 920 920 354
Width: 1229
GlyphClass: 2
Flags: W
LayerCount: 2
Fore
SplineSet
1153 711 m 0,0,1
 1153 546 1153 546 1116.5 411 c 128,-1,2
 1080 276 1080 276 1010.5 180 c 128,-1,3
 941 84 941 84 841 32 c 128,-1,4
 741 -20 741 -20 613 -20 c 0,5,6
 479 -20 479 -20 378 34.5 c 128,-1,7
 277 89 277 89 210 186.5 c 128,-1,8
 143 284 143 284 109 418 c 128,-1,9
 75 552 75 552 75 711 c 0,10,11
 75 876 75 876 110.5 1009 c 128,-1,12
 146 1142 146 1142 214.5 1235.5 c 128,-1,13
 283 1329 283 1329 383.5 1379.5 c 128,-1,14
 484 1430 484 1430 615 1430 c 0,15,16
 745 1430 745 1430 845.5 1379 c 128,-1,17
 946 1328 946 1328 1014 1234 c 128,-1,18
 1082 1140 1082 1140 1117.5 1007 c 128,-1,19
 1153 874 1153 874 1153 711 c 0,0,1
1003 711 m 0,20,21
 1003 838 1003 838 978 942 c 128,-1,22
 953 1046 953 1046 904 1120 c 128,-1,23
 855 1194 855 1194 782.5 1234 c 128,-1,24
 710 1274 710 1274 615 1274 c 0,25,26
 518 1274 518 1274 444.5 1234 c 128,-1,27
 371 1194 371 1194 322 1120 c 128,-1,28
 273 1046 273 1046 249 942 c 128,-1,29
 225 838 225 838 225 711 c 256,30,31
 225 584 225 584 250 478.5 c 128,-1,32
 275 373 275 373 324 296.5 c 128,-1,33
 373 220 373 220 445.5 177.5 c 128,-1,34
 518 135 518 135 613 135 c 0,35,36
 715 135 715 135 789 178 c 128,-1,37
 863 221 863 221 910 297.5 c 128,-1,38
 957 374 957 374 980 480 c 128,-1,39
 1003 586 1003 586 1003 711 c 0,20,21
387 794 m 1,40,-1
 840 794 l 1,41,-1
 840 634 l 1,42,-1
 387 634 l 1,43,-1
 387 794 l 1,40,-1
EndSplineSet
EndChar

StartChar: Lambda
Encoding: 923 923 357
Width: 1120
GlyphClass: 2
Flags: W
LayerCount: 2
Fore
SplineSet
1112 1 m 1,0,-1
 947 1 l 1,1,-1
 630 993 l 2,2,3
 616 1040 616 1040 604 1084 c 2,4,-1
 582 1164 l 1,5,6
 582 1164 582 1164 561 1242 c 1,7,8
 561 1242 561 1242 539 1162 c 2,9,10
 539 1162 539 1162 516 1082 c 1,11,-1
 492 993 l 1,12,-1
 173 1 l 1,13,-1
 8 1 l 1,14,-1
 479 1410 l 1,15,-1
 641 1410 l 1,16,-1
 1112 1 l 1,0,-1
EndSplineSet
EndChar

StartChar: Xi
Encoding: 926 926 360
Width: 1092
GlyphClass: 2
Flags: W
LayerCount: 2
Fore
SplineSet
103 1409 m 1,0,-1
 989 1409 l 1,1,-1
 989 1253 l 1,2,-1
 103 1253 l 1,3,-1
 103 1409 l 1,0,-1
1018 156 m 1,4,-1
 1018 0 l 1,5,-1
 74 0 l 1,6,-1
 74 156 l 1,7,-1
 1018 156 l 1,4,-1
891 801 m 5,8,-1
 891 647 l 5,9,-1
 201 647 l 5,10,-1
 201 801 l 5,11,-1
 891 801 l 5,8,-1
EndSplineSet
EndChar

StartChar: Pi
Encoding: 928 928 362
Width: 1212
GlyphClass: 2
Flags: W
LayerCount: 2
Fore
SplineSet
919 0 m 1,0,-1
 919 1248 l 1,1,-1
 294 1248 l 1,2,-1
 294 0 l 1,3,-1
 138 0 l 1,4,-1
 138 1409 l 1,5,-1
 1075 1409 l 1,6,-1
 1075 0 l 1,7,-1
 919 0 l 1,0,-1
EndSplineSet
EndChar

StartChar: Sigma
Encoding: 931 931 364
Width: 1012
GlyphClass: 2
Flags: W
LayerCount: 2
Fore
SplineSet
86 0 m 1,0,-1
 86 162 l 1,1,-1
 516 741 l 1,2,-1
 100 1248 l 1,3,-1
 100 1409 l 1,4,-1
 898 1409 l 1,5,-1
 898 1253 l 1,6,-1
 272 1253 l 1,7,-1
 638 808 l 1,8,-1
 638 684 l 1,9,-1
 246 156 l 1,10,-1
 947 156 l 1,11,-1
 947 0 l 1,12,-1
 86 0 l 1,0,-1
EndSplineSet
EndChar

StartChar: Phi
Encoding: 934 934 367
Width: 1357
GlyphClass: 2
Flags: W
LayerCount: 2
Fore
SplineSet
1261 736 m 0,0,1
 1261 631 1261 631 1234.5 537 c 128,-1,2
 1208 443 1208 443 1153.5 371.5 c 128,-1,3
 1099 300 1099 300 1017 258 c 128,-1,4
 935 216 935 216 825 216 c 2,5,-1
 756 216 l 1,6,-1
 756 -11 l 1,7,-1
 602 -11 l 1,8,-1
 602 216 l 1,9,-1
 533 216 l 2,10,11
 423 216 423 216 341 258 c 128,-1,12
 259 300 259 300 204.5 371.5 c 128,-1,13
 150 443 150 443 123.5 537 c 128,-1,14
 97 631 97 631 97 736 c 0,15,16
 97 849 97 849 125 941.5 c 128,-1,17
 153 1034 153 1034 208 1099.5 c 128,-1,18
 263 1165 263 1165 346.5 1201 c 128,-1,19
 430 1237 430 1237 542 1237 c 2,20,-1
 602 1237 l 1,21,-1
 602 1419 l 1,22,-1
 756 1419 l 1,23,-1
 756 1237 l 1,24,-1
 815 1237 l 2,25,26
 927 1237 927 1237 1011 1201 c 128,-1,27
 1095 1165 1095 1165 1150 1099.5 c 128,-1,28
 1205 1034 1205 1034 1233 941.5 c 128,-1,29
 1261 849 1261 849 1261 736 c 0,0,1
1101 732 m 0,30,31
 1101 919 1101 919 1024.5 1009 c 128,-1,32
 948 1099 948 1099 796 1099 c 2,33,-1
 756 1099 l 1,34,-1
 756 353 l 1,35,-1
 802 353 l 2,36,37
 878 353 878 353 935 379.5 c 128,-1,38
 992 406 992 406 1029 455 c 128,-1,39
 1066 504 1066 504 1083.5 574 c 128,-1,40
 1101 644 1101 644 1101 732 c 0,30,31
257 732 m 0,41,42
 257 644 257 644 274.5 574 c 128,-1,43
 292 504 292 504 329 455 c 128,-1,44
 366 406 366 406 422.5 379.5 c 128,-1,45
 479 353 479 353 556 353 c 2,46,-1
 602 353 l 1,47,-1
 602 1099 l 1,48,-1
 559 1099 l 2,49,50
 408 1099 408 1099 332.5 1009 c 128,-1,51
 257 919 257 919 257 732 c 0,41,42
EndSplineSet
EndChar

StartChar: Psi
Encoding: 936 936 369
Width: 1352
GlyphClass: 2
Flags: W
LayerCount: 2
Fore
SplineSet
603 0 m 1,0,-1
 603 427 l 1,1,-1
 537 427 l 2,2,3
 432 427 432 427 352.5 469 c 128,-1,4
 273 511 273 511 220.5 582 c 128,-1,5
 168 653 168 653 141.5 747.5 c 128,-1,6
 115 842 115 842 115 946 c 2,7,-1
 115 1409 l 1,8,-1
 266 1409 l 1,9,-1
 266 942 l 2,10,11
 266 862 266 862 284.5 793.5 c 128,-1,12
 303 725 303 725 339.5 675 c 128,-1,13
 376 625 376 625 431 596.5 c 128,-1,14
 486 568 486 568 559 568 c 2,15,-1
 603 568 l 1,16,-1
 603 1409 l 1,17,-1
 749 1409 l 1,18,-1
 749 568 l 1,19,-1
 793 568 l 2,20,21
 868 568 868 568 923.5 596.5 c 128,-1,22
 979 625 979 625 1015 675 c 128,-1,23
 1051 725 1051 725 1068.5 793.5 c 128,-1,24
 1086 862 1086 862 1086 942 c 2,25,-1
 1086 1409 l 1,26,-1
 1237 1409 l 1,27,-1
 1237 946 l 2,28,29
 1237 842 1237 842 1210.5 747.5 c 128,-1,30
 1184 653 1184 653 1131 582 c 128,-1,31
 1078 511 1078 511 998.5 469 c 128,-1,32
 919 427 919 427 815 427 c 2,33,-1
 749 427 l 1,34,-1
 749 0 l 1,35,-1
 603 0 l 1,0,-1
EndSplineSet
EndChar

StartChar: Omega
Encoding: 937 937 370
Width: 1274
GlyphClass: 2
Flags: W
LayerCount: 2
Fore
SplineSet
637 1430 m 256,0,1
 763 1430 763 1430 863 1387 c 128,-1,2
 963 1344 963 1344 1033 1263 c 128,-1,3
 1103 1182 1103 1182 1140 1065 c 128,-1,4
 1177 948 1177 948 1177 801 c 0,5,6
 1177 695 1177 695 1152.5 599.5 c 128,-1,7
 1128 504 1128 504 1083 420.5 c 128,-1,8
 1038 337 1038 337 972.5 268 c 128,-1,9
 907 199 907 199 825 145 c 1,10,11
 860 147 860 147 892 150 c 0,12,13
 919 152 919 152 949 154 c 128,-1,14
 979 156 979 156 998 156 c 2,15,-1
 1201 156 l 1,16,-1
 1201 0 l 1,17,-1
 711 0 l 1,18,-1
 711 224 l 1,19,20
 791 275 791 275 848.5 338 c 128,-1,21
 906 401 906 401 943 472.5 c 128,-1,22
 980 544 980 544 997.5 623.5 c 128,-1,23
 1015 703 1015 703 1015 788 c 0,24,25
 1015 904 1015 904 989.5 994.5 c 128,-1,26
 964 1085 964 1085 916 1147 c 128,-1,27
 868 1209 868 1209 797.5 1241.5 c 128,-1,28
 727 1274 727 1274 637 1274 c 0,29,30
 546 1274 546 1274 475.5 1241.5 c 128,-1,31
 405 1209 405 1209 357 1147 c 128,-1,32
 309 1085 309 1085 283.5 994.5 c 128,-1,33
 258 904 258 904 258 788 c 0,34,35
 258 703 258 703 275.5 623.5 c 128,-1,36
 293 544 293 544 330 472.5 c 128,-1,37
 367 401 367 401 425 338 c 128,-1,38
 483 275 483 275 563 224 c 1,39,-1
 563 0 l 1,40,-1
 72 0 l 1,41,-1
 72 156 l 1,42,-1
 275 156 l 2,43,44
 294 156 294 156 324 154 c 128,-1,45
 354 152 354 152 381 150 c 0,46,47
 413 147 413 147 449 145 c 1,48,49
 367 199 367 199 301 268 c 128,-1,50
 235 337 235 337 190 420.5 c 128,-1,51
 145 504 145 504 120.5 599.5 c 128,-1,52
 96 695 96 695 96 801 c 0,53,54
 96 948 96 948 133.5 1065 c 128,-1,55
 171 1182 171 1182 240.5 1263 c 128,-1,56
 310 1344 310 1344 410.5 1387 c 128,-1,57
 511 1430 511 1430 637 1430 c 256,0,1
EndSplineSet
EndChar

StartChar: Upsilondieresis
Encoding: 939 939 372
Width: 1120
GlyphClass: 2
Flags: W
LayerCount: 2
Fore
SplineSet
637 584 m 1,0,-1
 637 0 l 1,1,-1
 481 0 l 1,2,-1
 483 584 l 1,3,-1
 37 1409 l 1,4,-1
 205 1409 l 1,5,-1
 561 738 l 1,6,-1
 915 1409 l 1,7,-1
 1083 1409 l 1,8,-1
 637 584 l 1,0,-1
658 1530 m 1,9,-1
 658 1714 l 1,10,-1
 791 1714 l 1,11,-1
 791 1530 l 1,12,-1
 658 1530 l 1,9,-1
335 1530 m 1,13,-1
 335 1714 l 1,14,-1
 470 1714 l 1,15,-1
 470 1530 l 1,16,-1
 335 1530 l 1,13,-1
EndSplineSet
EndChar

StartChar: alpha
Encoding: 945 945 378
Width: 1013
GlyphClass: 2
Flags: W
LayerCount: 2
Fore
SplineSet
721 237 m 1,0,1
 699 181 699 181 671 134 c 128,-1,2
 643 87 643 87 606 52.5 c 128,-1,3
 569 18 569 18 521.5 -1 c 128,-1,4
 474 -20 474 -20 414 -20 c 0,5,6
 239 -20 239 -20 156.5 118 c 128,-1,7
 74 256 74 256 74 536 c 0,8,9
 74 820 74 820 166.5 961 c 128,-1,10
 259 1102 259 1102 438 1102 c 0,11,12
 497 1102 497 1102 545 1082.5 c 128,-1,13
 593 1063 593 1063 629.5 1028.5 c 128,-1,14
 666 994 666 994 693 947.5 c 128,-1,15
 720 901 720 901 738 847 c 1,16,-1
 739 847 l 1,17,18
 742 868 742 868 748 896 c 2,19,-1
 763 956 l 2,20,21
 771 987 771 987 781 1019.5 c 128,-1,22
 791 1052 791 1052 802 1082 c 1,23,-1
 963 1082 l 1,24,25
 944 1035 944 1035 924 971 c 128,-1,26
 904 907 904 907 887.5 837.5 c 128,-1,27
 871 768 871 768 858 698.5 c 128,-1,28
 845 629 845 629 841 571 c 1,29,30
 844 468 844 468 853.5 380.5 c 128,-1,31
 863 293 863 293 876.5 221 c 128,-1,32
 890 149 890 149 905.5 94 c 128,-1,33
 921 39 921 39 936 0 c 1,34,-1
 779 0 l 1,35,36
 770 28 770 28 761 61 c 128,-1,37
 752 94 752 94 745 126.5 c 128,-1,38
 738 159 738 159 732.5 188 c 128,-1,39
 727 217 727 217 725 237 c 1,40,-1
 721 237 l 1,0,1
235 542 m 0,41,42
 235 430 235 430 247 350 c 128,-1,43
 259 270 259 270 284.5 218.5 c 128,-1,44
 310 167 310 167 349.5 143 c 128,-1,45
 389 119 389 119 446 119 c 0,46,47
 492 119 492 119 535 145 c 128,-1,48
 578 171 578 171 613 224.5 c 128,-1,49
 648 278 648 278 674 358 c 128,-1,50
 700 438 700 438 712 546 c 1,51,52
 702 632 702 632 682.5 709 c 128,-1,53
 663 786 663 786 632.5 843.5 c 128,-1,54
 602 901 602 901 558.5 935 c 128,-1,55
 515 969 515 969 455 969 c 0,56,57
 399 969 399 969 358 946 c 128,-1,58
 317 923 317 923 289.5 872 c 128,-1,59
 262 821 262 821 248.5 739.5 c 128,-1,60
 235 658 235 658 235 542 c 0,41,42
EndSplineSet
EndChar

StartChar: beta
Encoding: 946 946 379
Width: 944
GlyphClass: 2
Flags: W
LayerCount: 2
Fore
SplineSet
879 405 m 0,0,1
 879 316 879 316 858 239 c 128,-1,2
 837 162 837 162 792.5 104 c 128,-1,3
 748 46 748 46 678.5 13 c 128,-1,4
 609 -20 609 -20 513 -20 c 0,5,6
 431 -20 431 -20 367 7.5 c 128,-1,7
 303 35 303 35 258 74 c 1,8,-1
 253 74 l 1,9,10
 253 74 253 74 256 -29 c 0,11,12
 258 -75 258 -75 258 -128 c 2,13,-1
 258 -425 l 1,14,-1
 114 -425 l 1,15,-1
 114 1027 l 2,16,17
 114 1264 114 1264 205 1374 c 128,-1,18
 296 1484 296 1484 478 1484 c 0,19,20
 557 1484 557 1484 618 1460.5 c 128,-1,21
 679 1437 679 1437 719.5 1392 c 128,-1,22
 760 1347 760 1347 781.5 1282 c 128,-1,23
 803 1217 803 1217 803 1135 c 0,24,25
 803 1062 803 1062 789 1006.5 c 128,-1,26
 775 951 775 951 750.5 910 c 128,-1,27
 726 869 726 869 693.5 841 c 128,-1,28
 661 813 661 813 624 795 c 1,29,30
 670 784 670 784 715.5 756.5 c 128,-1,31
 761 729 761 729 797.5 682.5 c 128,-1,32
 834 636 834 636 856.5 567.5 c 128,-1,33
 879 499 879 499 879 405 c 0,0,1
258 205 m 1,34,35
 280 186 280 186 308.5 169 c 128,-1,36
 337 152 337 152 369.5 139.5 c 128,-1,37
 402 127 402 127 437 120 c 128,-1,38
 472 113 472 113 506 113 c 0,39,40
 564 113 564 113 608 133.5 c 128,-1,41
 652 154 652 154 681.5 192 c 128,-1,42
 711 230 711 230 726 283 c 128,-1,43
 741 336 741 336 741 402 c 0,44,45
 741 467 741 467 726 522 c 128,-1,46
 711 577 711 577 678.5 617.5 c 128,-1,47
 646 658 646 658 594.5 680.5 c 128,-1,48
 543 703 543 703 472 703 c 1,49,-1
 472 845 l 1,50,51
 574 872 574 872 619 941.5 c 128,-1,52
 664 1011 664 1011 664 1133 c 0,53,54
 664 1177 664 1177 653.5 1215.5 c 128,-1,55
 643 1254 643 1254 620 1282.5 c 128,-1,56
 597 1311 597 1311 562 1327 c 128,-1,57
 527 1343 527 1343 479 1343 c 0,58,59
 423 1343 423 1343 381.5 1325.5 c 128,-1,60
 340 1308 340 1308 312.5 1269.5 c 128,-1,61
 285 1231 285 1231 271.5 1170 c 128,-1,62
 258 1109 258 1109 258 1021 c 2,63,-1
 258 205 l 1,34,35
EndSplineSet
EndChar

StartChar: gamma
Encoding: 947 947 380
Width: 840
GlyphClass: 2
Flags: W
LayerCount: 2
Fore
SplineSet
6 1082 m 1,0,-1
 163 1082 l 1,1,-1
 364 407 l 1,2,3
 364 407 364 407 378 354 c 2,4,-1
 396 288 l 2,5,6
 404 255 404 255 411 223.5 c 128,-1,7
 418 192 418 192 421 170 c 1,8,9
 425 191 425 191 432 222 c 2,10,-1
 448 286 l 2,11,12
 457 320 457 320 466 351.5 c 128,-1,13
 475 383 475 383 482 405 c 2,14,-1
 678 1082 l 1,15,-1
 834 1082 l 1,16,-1
 514 53 l 2,17,18
 500 8 500 8 487.5 -47.5 c 128,-1,19
 475 -103 475 -103 464 -165 c 128,-1,20
 453 -227 453 -227 443.5 -293 c 128,-1,21
 434 -359 434 -359 428 -424 c 1,22,-1
 272 -424 l 1,23,24
 286 -293 286 -293 305.5 -186.5 c 128,-1,25
 325 -80 325 -80 345 11 c 1,26,-1
 6 1082 l 1,0,-1
EndSplineSet
EndChar

StartChar: delta
Encoding: 948 948 381
Width: 934
GlyphClass: 2
Flags: W
LayerCount: 2
Fore
SplineSet
708 471 m 0,0,1
 708 556 708 556 688 628.5 c 128,-1,2
 668 701 668 701 639.5 758.5 c 128,-1,3
 611 816 611 816 580 859 c 2,4,-1
 528 929 l 1,5,6
 468 903 468 903 413 862.5 c 128,-1,7
 358 822 358 822 316 765 c 128,-1,8
 274 708 274 708 249.5 635 c 128,-1,9
 225 562 225 562 225 471 c 0,10,11
 225 395 225 395 239.5 329.5 c 128,-1,12
 254 264 254 264 284 216 c 128,-1,13
 314 168 314 168 359.5 140.5 c 128,-1,14
 405 113 405 113 468 113 c 0,15,16
 534 113 534 113 580 140 c 128,-1,17
 626 167 626 167 654 214.5 c 128,-1,18
 682 262 682 262 695 327.5 c 128,-1,19
 708 393 708 393 708 471 c 0,0,1
497 1352 m 2,20,21
 486 1352 486 1352 469 1353 c 128,-1,22
 452 1354 452 1354 433.5 1355.5 c 128,-1,23
 415 1357 415 1357 398.5 1358 c 128,-1,24
 382 1359 382 1359 371 1360 c 1,25,-1
 630 1036 l 2,26,27
 674 981 674 981 716 923 c 128,-1,28
 758 865 758 865 790.5 798 c 128,-1,29
 823 731 823 731 843 651.5 c 128,-1,30
 863 572 863 572 863 475 c 0,31,32
 863 365 863 365 836.5 274 c 128,-1,33
 810 183 810 183 760 117.5 c 128,-1,34
 710 52 710 52 636 16 c 128,-1,35
 562 -20 562 -20 468 -20 c 0,36,37
 375 -20 375 -20 301 14 c 128,-1,38
 227 48 227 48 176 111.5 c 128,-1,39
 125 175 125 175 97.5 266.5 c 128,-1,40
 70 358 70 358 70 473 c 0,41,42
 70 585 70 585 100 673 c 128,-1,43
 130 761 130 761 182 828.5 c 128,-1,44
 234 896 234 896 303.5 944.5 c 128,-1,45
 373 993 373 993 451 1026 c 1,46,-1
 190 1365 l 1,47,-1
 190 1484 l 1,48,-1
 791 1484 l 1,49,-1
 791 1352 l 1,50,-1
 497 1352 l 2,20,21
EndSplineSet
EndChar

StartChar: epsilon
Encoding: 949 949 382
Width: 729
GlyphClass: 2
Flags: W
LayerCount: 2
Fore
SplineSet
364 114 m 0,0,1
 407 114 407 114 445.5 129.5 c 128,-1,2
 484 145 484 145 515.5 169 c 128,-1,3
 547 193 547 193 572 221 c 128,-1,4
 597 249 597 249 614 275 c 1,5,-1
 698 175 l 1,6,7
 672 136 672 136 638.5 100.5 c 128,-1,8
 605 65 605 65 563 38.5 c 128,-1,9
 521 12 521 12 469 -4 c 128,-1,10
 417 -20 417 -20 355 -20 c 0,11,12
 278 -20 278 -20 221.5 3 c 128,-1,13
 165 26 165 26 128.5 68 c 128,-1,14
 92 110 92 110 74 168 c 128,-1,15
 56 226 56 226 56 295 c 0,16,17
 56 353 56 353 72.5 400.5 c 128,-1,18
 89 448 89 448 118 482.5 c 128,-1,19
 147 517 147 517 185.5 538 c 128,-1,20
 224 559 224 559 267 564 c 1,21,-1
 267 566 l 1,22,23
 226 572 226 572 192 592 c 128,-1,24
 158 612 158 612 133.5 644 c 128,-1,25
 109 676 109 676 95.5 719 c 128,-1,26
 82 762 82 762 82 813 c 0,27,28
 82 875 82 875 102 928 c 128,-1,29
 122 981 122 981 160 1019.5 c 128,-1,30
 198 1058 198 1058 252.5 1080 c 128,-1,31
 307 1102 307 1102 376 1102 c 0,32,33
 470 1102 470 1102 546.5 1059 c 128,-1,34
 623 1016 623 1016 676 917 c 1,35,-1
 574 829 l 1,36,37
 536 900 536 900 486.5 934 c 128,-1,38
 437 968 437 968 377 968 c 0,39,40
 304 968 304 968 266 925.5 c 128,-1,41
 228 883 228 883 228 809 c 0,42,43
 228 752 228 752 249.5 717 c 128,-1,44
 271 682 271 682 310 663.5 c 128,-1,45
 349 645 349 645 401.5 639 c 128,-1,46
 454 633 454 633 513 633 c 1,47,-1
 513 498 l 1,48,49
 456 498 456 498 400.5 492.5 c 128,-1,50
 345 487 345 487 301.5 467 c 128,-1,51
 258 447 258 447 231.5 407 c 128,-1,52
 205 367 205 367 205 298 c 0,53,54
 205 253 205 253 216.5 218.5 c 128,-1,55
 228 184 228 184 249 161 c 128,-1,56
 270 138 270 138 299.5 126 c 128,-1,57
 329 114 329 114 364 114 c 0,0,1
EndSplineSet
EndChar

StartChar: zeta
Encoding: 950 950 383
Width: 737
GlyphClass: 2
Flags: W
LayerCount: 2
Fore
SplineSet
226 379 m 0,0,1
 226 315 226 315 243.5 275.5 c 128,-1,2
 261 236 261 236 291.5 211.5 c 128,-1,3
 322 187 322 187 362.5 171.5 c 128,-1,4
 403 156 403 156 450 141 c 0,5,6
 494 126 494 126 539 109 c 128,-1,7
 584 92 584 92 621 63.5 c 128,-1,8
 658 35 658 35 681.5 -9 c 128,-1,9
 705 -53 705 -53 705 -121 c 0,10,11
 705 -155 705 -155 697.5 -189 c 128,-1,12
 690 -223 690 -223 679.5 -254 c 128,-1,13
 669 -285 669 -285 657.5 -310.5 c 128,-1,14
 646 -336 646 -336 637 -353 c 1,15,-1
 535 -297 l 1,16,17
 542 -285 542 -285 549.5 -268.5 c 128,-1,18
 557 -252 557 -252 563.5 -233 c 128,-1,19
 570 -214 570 -214 574.5 -194.5 c 128,-1,20
 579 -175 579 -175 579 -156 c 0,21,22
 579 -122 579 -122 564.5 -99.5 c 128,-1,23
 550 -77 550 -77 523 -60.5 c 128,-1,24
 496 -44 496 -44 458 -31.5 c 128,-1,25
 420 -19 420 -19 373 -6 c 1,26,27
 373 -6 373 -6 302 16 c 0,28,29
 266 27 266 27 232.5 45 c 128,-1,30
 199 63 199 63 169.5 88 c 128,-1,31
 140 113 140 113 117.5 150 c 128,-1,32
 95 187 95 187 82.5 237 c 128,-1,33
 70 287 70 287 70 354 c 0,34,35
 70 437 70 437 90 525 c 128,-1,36
 110 613 110 613 145 701 c 128,-1,37
 180 789 180 789 226 876.5 c 128,-1,38
 272 964 272 964 323.5 1047 c 128,-1,39
 375 1130 375 1130 430 1208 c 1,40,-1
 538 1353 l 1,41,-1
 538 1357 l 1,42,43
 528 1356 528 1356 514 1356 c 2,44,-1
 486 1354 l 1,45,-1
 457 1354 l 1,46,47
 443 1353 443 1353 434 1353 c 2,48,-1
 153 1353 l 1,49,-1
 153 1484 l 1,50,-1
 677 1484 l 1,51,-1
 677 1357 l 1,52,-1
 572 1208 l 1,53,54
 519 1130 519 1130 469 1047 c 128,-1,55
 419 964 419 964 375 878 c 128,-1,56
 331 792 331 792 297.5 706.5 c 128,-1,57
 264 621 264 621 245 538 c 128,-1,58
 226 455 226 455 226 379 c 0,0,1
EndSplineSet
EndChar

StartChar: eta
Encoding: 951 951 384
Width: 934
GlyphClass: 2
Flags: W
LayerCount: 2
Fore
SplineSet
677 -424 m 1,0,-1
 677 686 l 2,1,2
 677 765 677 765 667.5 818 c 128,-1,3
 658 871 658 871 636.5 903.5 c 128,-1,4
 615 936 615 936 580 949.5 c 128,-1,5
 545 963 545 963 494 963 c 0,6,7
 442 963 442 963 399.5 940.5 c 128,-1,8
 357 918 357 918 327 875.5 c 128,-1,9
 297 833 297 833 280.5 770.5 c 128,-1,10
 264 708 264 708 264 627 c 2,11,-1
 264 0 l 1,12,-1
 116 0 l 1,13,-1
 116 851 l 2,14,15
 116 919 116 919 107 979.5 c 128,-1,16
 98 1040 98 1040 87 1082 c 1,17,-1
 226 1082 l 1,18,19
 233 1061 233 1061 239 1037 c 128,-1,20
 245 1013 245 1013 249 988.5 c 128,-1,21
 253 964 253 964 255 940.5 c 128,-1,22
 257 917 257 917 257 897 c 1,23,-1
 260 897 l 1,24,25
 281 944 281 944 306.5 982 c 128,-1,26
 332 1020 332 1020 365.5 1046.5 c 128,-1,27
 399 1073 399 1073 442.5 1087.5 c 128,-1,28
 486 1102 486 1102 544 1102 c 0,29,30
 618 1102 618 1102 671 1080 c 128,-1,31
 724 1058 724 1058 758.5 1012 c 128,-1,32
 793 966 793 966 809 893.5 c 128,-1,33
 825 821 825 821 825 721 c 2,34,-1
 825 -424 l 1,35,-1
 677 -424 l 1,0,-1
EndSplineSet
EndChar

StartChar: theta
Encoding: 952 952 385
Width: 934
GlyphClass: 2
Flags: W
LayerCount: 2
Fore
SplineSet
847 733 m 0,0,1
 847 352 847 352 748.5 166 c 128,-1,2
 650 -20 650 -20 463 -20 c 0,3,4
 374 -20 374 -20 304.5 26 c 128,-1,5
 235 72 235 72 186.5 165 c 128,-1,6
 138 258 138 258 112.5 399.5 c 128,-1,7
 87 541 87 541 87 733 c 0,8,9
 87 1106 87 1106 182.5 1294.5 c 128,-1,10
 278 1483 278 1483 468 1483 c 0,11,12
 567 1483 567 1483 639 1436.5 c 128,-1,13
 711 1390 711 1390 757 1296 c 128,-1,14
 803 1202 803 1202 825 1061.5 c 128,-1,15
 847 921 847 921 847 733 c 0,0,1
462 113 m 0,16,17
 513 113 513 113 554 139 c 128,-1,18
 595 165 595 165 624.5 229 c 128,-1,19
 654 293 654 293 671.5 401 c 128,-1,20
 689 509 689 509 691 673 c 1,21,-1
 243 673 l 1,22,23
 245 509 245 509 263 401.5 c 128,-1,24
 281 294 281 294 310 229.5 c 128,-1,25
 339 165 339 165 378 139 c 128,-1,26
 417 113 417 113 462 113 c 0,16,17
471 1354 m 0,27,28
 420 1354 420 1354 379.5 1328.5 c 128,-1,29
 339 1303 339 1303 309.5 1240 c 128,-1,30
 280 1177 280 1177 262.5 1071 c 128,-1,31
 245 965 245 965 243 804 c 1,32,-1
 691 804 l 1,33,34
 689 965 689 965 672.5 1071 c 128,-1,35
 656 1177 656 1177 627.5 1240 c 128,-1,36
 599 1303 599 1303 559.5 1328.5 c 128,-1,37
 520 1354 520 1354 471 1354 c 0,27,28
EndSplineSet
EndChar

StartChar: iota
Encoding: 953 953 386
Width: 467
GlyphClass: 2
Flags: W
LayerCount: 2
Fore
SplineSet
204 0 m 1,0,1
 189 16 189 16 176.5 42.5 c 128,-1,2
 164 69 164 69 156.5 101 c 128,-1,3
 149 133 149 133 145 168 c 128,-1,4
 141 203 141 203 141 236 c 2,5,-1
 141 1082 l 1,6,-1
 325 1082 l 1,7,-1
 325 227 l 2,8,9
 325 195 325 195 331 163 c 128,-1,10
 337 131 337 131 347.5 101 c 128,-1,11
 358 71 358 71 373.5 45 c 128,-1,12
 389 19 389 19 407 0 c 1,13,-1
 204 0 l 1,0,1
EndSplineSet
EndChar

StartChar: kappa
Encoding: 954 954 387
Width: 836
GlyphClass: 2
Flags: W
LayerCount: 2
Fore
SplineSet
666 0 m 1,0,-1
 367 494 l 1,1,-1
 260 385 l 1,2,-1
 260 0 l 1,3,-1
 113 0 l 1,4,-1
 113 1082 l 1,5,-1
 260 1082 l 1,6,-1
 260 557 l 1,7,-1
 647 1082 l 1,8,-1
 820 1082 l 1,9,-1
 461 617 l 1,10,-1
 838 0 l 1,11,-1
 666 0 l 1,0,-1
EndSplineSet
EndChar

StartChar: lambda
Encoding: 955 955 388
Width: 840
GlyphClass: 2
Flags: W
LayerCount: 2
Fore
SplineSet
380 965 m 1,0,-1
 350 1064 l 1,1,2
 350 1064 350 1064 311 1190 c 0,3,4
 294 1242 294 1242 275.5 1275.5 c 128,-1,5
 257 1309 257 1309 233.5 1324.5 c 128,-1,6
 210 1340 210 1340 177 1340 c 0,7,8
 168 1340 168 1340 155 1336.5 c 128,-1,9
 142 1333 142 1333 137 1330 c 1,10,-1
 108 1460 l 1,11,12
 129 1469 129 1469 158.5 1476.5 c 128,-1,13
 188 1484 188 1484 214 1484 c 0,14,15
 259 1484 259 1484 295 1466 c 128,-1,16
 331 1448 331 1448 360.5 1407.5 c 128,-1,17
 390 1367 390 1367 417.5 1301.5 c 128,-1,18
 445 1236 445 1236 475 1141 c 2,19,-1
 825 0 l 1,20,-1
 669 0 l 1,21,-1
 500 577 l 2,22,23
 493 599 493 599 486 627 c 2,24,-1
 470 684 l 1,25,-1
 456 742 l 2,26,27
 450 770 450 770 446 791 c 1,28,-1
 431 740 l 1,29,-1
 412 679 l 2,30,31
 402 648 402 648 392 620.5 c 128,-1,32
 382 593 382 593 376 575 c 2,33,-1
 165 0 l 1,34,-1
 11 0 l 1,35,-1
 380 965 l 1,0,-1
EndSplineSet
EndChar

StartChar: mu
Encoding: 956 956 389
Width: 934
GlyphClass: 2
Flags: W
LayerCount: 2
Fore
SplineSet
682 0 m 1,0,1
 681 6 681 6 680 29 c 128,-1,2
 679 52 679 52 678 81.5 c 128,-1,3
 677 111 677 111 675.5 140.5 c 128,-1,4
 674 170 674 170 674 190 c 1,5,-1
 671 190 l 1,6,7
 650 139 650 139 628 99.5 c 128,-1,8
 606 60 606 60 579 33.5 c 128,-1,9
 552 7 552 7 518 -6.5 c 128,-1,10
 484 -20 484 -20 439 -20 c 0,11,12
 374 -20 374 -20 326.5 12 c 128,-1,13
 279 44 279 44 253 102 c 1,14,-1
 250 102 l 1,15,16
 252 70 252 70 252.5 38.5 c 128,-1,17
 253 7 253 7 253 -20 c 2,18,-1
 253 -393 l 1,19,-1
 109 -393 l 1,20,-1
 109 1082 l 1,21,-1
 253 1082 l 1,22,-1
 253 438 l 2,23,24
 253 369 253 369 263 311 c 128,-1,25
 273 253 273 253 296.5 210.5 c 128,-1,26
 320 168 320 168 358.5 144.5 c 128,-1,27
 397 121 397 121 456 121 c 0,28,29
 509 121 509 121 548.5 147 c 128,-1,30
 588 173 588 173 614.5 218.5 c 128,-1,31
 641 264 641 264 654 327 c 128,-1,32
 667 390 667 390 667 465 c 2,33,-1
 667 1082 l 1,34,-1
 811 1082 l 1,35,-1
 811 233 l 1,36,37
 811 233 811 233 811 161 c 0,38,39
 811 123 811 123 812 89.5 c 128,-1,40
 813 56 813 56 813.5 31.5 c 128,-1,41
 814 7 814 7 815 0 c 1,42,-1
 682 0 l 1,0,1
EndSplineSet
EndChar

StartChar: nu
Encoding: 957 957 390
Width: 840
GlyphClass: 2
Flags: W
LayerCount: 2
Fore
SplineSet
776 846 m 0,0,1
 776 747 776 747 750 638 c 128,-1,2
 724 529 724 529 680.5 418.5 c 128,-1,3
 637 308 637 308 580 201 c 128,-1,4
 523 94 523 94 459 0 c 1,5,-1
 320 0 l 1,6,-1
 0 1082 l 1,7,-1
 155 1082 l 1,8,-1
 410 154 l 1,9,10
 526 339 526 339 577 510 c 128,-1,11
 628 681 628 681 628 837 c 0,12,13
 628 918 628 918 616.5 977.5 c 128,-1,14
 605 1037 605 1037 588 1082 c 1,15,-1
 733 1082 l 1,16,17
 753 1037 753 1037 764.5 980.5 c 128,-1,18
 776 924 776 924 776 846 c 0,0,1
EndSplineSet
EndChar

StartChar: xi
Encoding: 958 958 391
Width: 643
GlyphClass: 2
Flags: W
LayerCount: 2
Fore
SplineSet
60 354 m 0,0,1
 60 430 60 430 78 503.5 c 128,-1,2
 96 577 96 577 134.5 639 c 128,-1,3
 173 701 173 701 234.5 746 c 128,-1,4
 296 791 296 791 384 810 c 1,5,-1
 384 812 l 1,6,7
 336 817 336 817 294.5 836.5 c 128,-1,8
 253 856 253 856 222.5 890 c 128,-1,9
 192 924 192 924 174 972 c 128,-1,10
 156 1020 156 1020 156 1082 c 0,11,12
 156 1146 156 1146 173.5 1192.5 c 128,-1,13
 191 1239 191 1239 219 1271 c 128,-1,14
 247 1303 247 1303 281 1323 c 128,-1,15
 315 1343 315 1343 348 1353 c 1,16,-1
 348 1361 l 1,17,18
 340 1360 340 1360 316 1359 c 128,-1,19
 292 1358 292 1358 264 1356.5 c 128,-1,20
 236 1355 236 1355 209 1354 c 128,-1,21
 182 1353 182 1353 170 1353 c 2,22,-1
 118 1353 l 1,23,-1
 118 1484 l 1,24,-1
 562 1484 l 1,25,-1
 562 1359 l 1,26,27
 508 1350 508 1350 457.5 1333 c 128,-1,28
 407 1316 407 1316 368 1286.5 c 128,-1,29
 329 1257 329 1257 305 1212 c 128,-1,30
 281 1167 281 1167 281 1100 c 0,31,32
 281 1037 281 1037 302 996.5 c 128,-1,33
 323 956 323 956 358 931.5 c 128,-1,34
 393 907 393 907 438.5 895 c 128,-1,35
 484 883 484 883 532 877 c 1,36,-1
 532 746 l 1,37,38
 462 733 462 733 400.5 706 c 128,-1,39
 339 679 339 679 293.5 634.5 c 128,-1,40
 248 590 248 590 221 526.5 c 128,-1,41
 194 463 194 463 194 379 c 0,42,43
 194 315 194 315 209 275.5 c 128,-1,44
 224 236 224 236 250 211.5 c 128,-1,45
 276 187 276 187 311 171.5 c 128,-1,46
 346 156 346 156 386 141 c 1,47,48
 386 141 386 141 464 109 c 0,49,50
 504 92 504 92 537 63.5 c 128,-1,51
 570 35 570 35 591.5 -9 c 128,-1,52
 613 -53 613 -53 613 -121 c 0,53,54
 613 -155 613 -155 606.5 -189 c 128,-1,55
 600 -223 600 -223 591 -254 c 128,-1,56
 582 -285 582 -285 572 -310 c 2,57,-1
 555 -353 l 1,58,-1
 466 -297 l 1,59,60
 472 -285 472 -285 479 -268.5 c 128,-1,61
 486 -252 486 -252 491.5 -233 c 128,-1,62
 497 -214 497 -214 501 -194.5 c 128,-1,63
 505 -175 505 -175 505 -156 c 0,64,65
 505 -122 505 -122 491.5 -99.5 c 128,-1,66
 478 -77 478 -77 453 -60.5 c 128,-1,67
 428 -44 428 -44 394 -31.5 c 128,-1,68
 360 -19 360 -19 320 -6 c 1,69,-1
 260 16 l 2,70,71
 229 27 229 27 200 45 c 128,-1,72
 171 63 171 63 145.5 88 c 128,-1,73
 120 113 120 113 101 150 c 128,-1,74
 82 187 82 187 71 237 c 128,-1,75
 60 287 60 287 60 354 c 0,0,1
EndSplineSet
EndChar

StartChar: pi
Encoding: 960 960 393
Width: 1139
GlyphClass: 2
Flags: W
LayerCount: 2
Fore
SplineSet
908 -20 m 0,0,1
 860 -20 860 -20 827 -6 c 128,-1,2
 794 8 794 8 773 37.5 c 128,-1,3
 752 67 752 67 742.5 114 c 128,-1,4
 733 161 733 161 733 227 c 2,5,-1
 733 951 l 1,6,-1
 409 951 l 1,7,-1
 409 879 l 2,8,9
 409 748 409 748 402.5 622.5 c 128,-1,10
 396 497 396 497 385 383 c 128,-1,11
 374 269 374 269 359.5 171.5 c 128,-1,12
 345 74 345 74 330 0 c 1,13,-1
 178 0 l 1,14,15
 193 76 193 76 209 174.5 c 128,-1,16
 225 273 225 273 238 386 c 128,-1,17
 251 499 251 499 259 622.5 c 128,-1,18
 267 746 267 746 267 871 c 2,19,-1
 267 951 l 1,20,21
 236 951 236 951 204 947.5 c 128,-1,22
 172 944 172 944 144 939 c 128,-1,23
 116 934 116 934 94.5 927.5 c 128,-1,24
 73 921 73 921 64 914 c 1,25,-1
 64 1053 l 1,26,27
 74 1059 74 1059 91 1064.5 c 128,-1,28
 108 1070 108 1070 128.5 1074 c 128,-1,29
 149 1078 149 1078 171 1080 c 128,-1,30
 193 1082 193 1082 211 1082 c 2,31,-1
 1066 1082 l 1,32,-1
 1066 951 l 1,33,-1
 878 951 l 1,34,-1
 878 266 l 2,35,36
 878 222 878 222 883 194 c 128,-1,37
 888 166 888 166 898 150 c 128,-1,38
 908 134 908 134 922 127.5 c 128,-1,39
 936 121 936 121 954 121 c 0,40,41
 960 121 960 121 969 122 c 128,-1,42
 978 123 978 123 988 124 c 128,-1,43
 998 125 998 125 1007 126.5 c 128,-1,44
 1016 128 1016 128 1023 129 c 1,45,-1
 1023 0 l 1,46,47
 998 -8 998 -8 970.5 -14 c 128,-1,48
 943 -20 943 -20 908 -20 c 0,0,1
EndSplineSet
EndChar

StartChar: rho
Encoding: 961 961 394
Width: 958
GlyphClass: 2
Flags: W
LayerCount: 2
Fore
SplineSet
891 516 m 0,0,1
 891 398 891 398 865 299.5 c 128,-1,2
 839 201 839 201 791.5 130 c 128,-1,3
 744 59 744 59 678 19.5 c 128,-1,4
 612 -20 612 -20 531 -20 c 0,5,6
 480 -20 480 -20 440 -10 c 128,-1,7
 400 0 400 0 367 18.5 c 128,-1,8
 334 37 334 37 307 63.5 c 128,-1,9
 280 90 280 90 257 123 c 1,10,-1
 253 123 l 1,11,12
 255 93 255 93 256 62.5 c 128,-1,13
 257 32 257 32 257 0 c 2,14,-1
 257 -425 l 1,15,-1
 109 -425 l 1,16,-1
 109 581 l 2,17,18
 109 700 109 700 133.5 796.5 c 128,-1,19
 158 893 158 893 205.5 961 c 128,-1,20
 253 1029 253 1029 322.5 1066 c 128,-1,21
 392 1103 392 1103 483 1103 c 0,22,23
 568 1103 568 1103 642 1063.5 c 128,-1,24
 716 1024 716 1024 771 949 c 128,-1,25
 826 874 826 874 858.5 764.5 c 128,-1,26
 891 655 891 655 891 516 c 0,0,1
732 524 m 0,27,28
 732 628 732 628 714 711 c 128,-1,29
 696 794 696 794 661.5 851.5 c 128,-1,30
 627 909 627 909 579.5 939.5 c 128,-1,31
 532 970 532 970 473 970 c 0,32,33
 416 970 416 970 375 943.5 c 128,-1,34
 334 917 334 917 307.5 866.5 c 128,-1,35
 281 816 281 816 269 743 c 128,-1,36
 257 670 257 670 257 577 c 2,37,-1
 257 260 l 1,38,39
 280 225 280 225 309.5 197.5 c 128,-1,40
 339 170 339 170 372 151.5 c 128,-1,41
 405 133 405 133 440.5 123 c 128,-1,42
 476 113 476 113 512 113 c 0,43,44
 567 113 567 113 608.5 142 c 128,-1,45
 650 171 650 171 677.5 224.5 c 128,-1,46
 705 278 705 278 718.5 354 c 128,-1,47
 732 430 732 430 732 524 c 0,27,28
EndSplineSet
EndChar

StartChar: sigma1
Encoding: 962 962 395
Width: 793
GlyphClass: 2
Flags: W
LayerCount: 2
Fore
SplineSet
468 961 m 0,0,1
 425 961 425 961 389.5 936.5 c 128,-1,2
 354 912 354 912 327 872 c 128,-1,3
 300 832 300 832 280 780 c 128,-1,4
 260 728 260 728 247.5 674 c 128,-1,5
 235 620 235 620 229 567 c 128,-1,6
 223 514 223 514 223 472 c 0,7,8
 223 404 223 404 235.5 356 c 128,-1,9
 248 308 248 308 278.5 272 c 128,-1,10
 309 236 309 236 359 207.5 c 128,-1,11
 409 179 409 179 483 149 c 2,12,13
 483 149 483 149 572 114 c 1,14,15
 617 95 617 95 655 65.5 c 128,-1,16
 693 36 693 36 717.5 -8.5 c 128,-1,17
 742 -53 742 -53 742 -121 c 0,18,19
 742 -155 742 -155 735 -189 c 128,-1,20
 728 -223 728 -223 717.5 -254 c 128,-1,21
 707 -285 707 -285 696 -310 c 2,22,-1
 676 -353 l 1,23,-1
 574 -297 l 1,24,25
 581 -285 581 -285 589 -268.5 c 128,-1,26
 597 -252 597 -252 603.5 -233 c 128,-1,27
 610 -214 610 -214 614.5 -194.5 c 128,-1,28
 619 -175 619 -175 619 -156 c 0,29,30
 619 -126 619 -126 605 -104 c 128,-1,31
 591 -82 591 -82 563.5 -64 c 128,-1,32
 536 -46 536 -46 497 -30.5 c 128,-1,33
 458 -15 458 -15 407 2 c 0,34,35
 354 20 354 20 309 40 c 128,-1,36
 264 60 264 60 226 85.5 c 128,-1,37
 188 111 188 111 159 145 c 128,-1,38
 130 179 130 179 110 225.5 c 128,-1,39
 90 272 90 272 79.5 333 c 128,-1,40
 69 394 69 394 69 475 c 0,41,42
 69 522 69 522 77 587 c 128,-1,43
 85 652 85 652 103.5 722 c 128,-1,44
 122 792 122 792 152 860 c 128,-1,45
 182 928 182 928 226.5 982 c 128,-1,46
 271 1036 271 1036 330.5 1069 c 128,-1,47
 390 1102 390 1102 468 1102 c 0,48,49
 523 1102 523 1102 562.5 1091.5 c 128,-1,50
 602 1081 602 1081 631 1064 c 128,-1,51
 660 1047 660 1047 682 1025 c 128,-1,52
 704 1003 704 1003 721 980 c 1,53,-1
 628 861 l 1,54,55
 614 880 614 880 597 898 c 128,-1,56
 580 916 580 916 560.5 930 c 128,-1,57
 541 944 541 944 518 952.5 c 128,-1,58
 495 961 495 961 468 961 c 0,0,1
EndSplineSet
EndChar

StartChar: sigma
Encoding: 963 963 396
Width: 1117
GlyphClass: 2
Flags: W
LayerCount: 2
Fore
SplineSet
947 491 m 0,0,1
 947 379 947 379 920 285 c 128,-1,2
 893 191 893 191 839 123.5 c 128,-1,3
 785 56 785 56 704 18 c 128,-1,4
 623 -20 623 -20 514 -20 c 256,5,6
 405 -20 405 -20 323 17 c 128,-1,7
 241 54 241 54 186.5 123.5 c 128,-1,8
 132 193 132 193 104 294 c 128,-1,9
 76 395 76 395 76 524 c 0,10,11
 76 668 76 668 114 773 c 128,-1,12
 152 878 152 878 219.5 947 c 128,-1,13
 287 1016 287 1016 381 1049 c 128,-1,14
 475 1082 475 1082 587 1082 c 2,15,-1
 1090 1082 l 1,16,-1
 1090 951 l 1,17,-1
 944 951 l 2,18,19
 936 951 936 951 920.5 951.5 c 128,-1,20
 905 952 905 952 886 953 c 2,21,-1
 848 955 l 2,22,23
 828 956 828 956 813 957 c 1,24,-1
 813 953 l 1,25,26
 838 911 838 911 862 861.5 c 128,-1,27
 886 812 886 812 905 754.5 c 128,-1,28
 924 697 924 697 935.5 631.5 c 128,-1,29
 947 566 947 566 947 491 c 0,0,1
780 488 m 0,30,31
 780 562 780 562 771.5 628 c 128,-1,32
 763 694 763 694 748 752 c 128,-1,33
 733 810 733 810 713 859.5 c 128,-1,34
 693 909 693 909 671 951 c 1,35,-1
 592 951 l 2,36,37
 519 951 519 951 455.5 926 c 128,-1,38
 392 901 392 901 345 848.5 c 128,-1,39
 298 796 298 796 271 716 c 128,-1,40
 244 636 244 636 244 526 c 0,41,42
 244 319 244 319 310.5 216 c 128,-1,43
 377 113 377 113 507 113 c 0,44,45
 576 113 576 113 628 139 c 128,-1,46
 680 165 680 165 713.5 213.5 c 128,-1,47
 747 262 747 262 763.5 331.5 c 128,-1,48
 780 401 780 401 780 488 c 0,30,31
EndSplineSet
EndChar

StartChar: tau
Encoding: 964 964 397
Width: 641
GlyphClass: 2
Flags: W
LayerCount: 2
Fore
SplineSet
223 951 m 2,0,1
 192 951 192 951 160.5 947.5 c 128,-1,2
 129 944 129 944 101.5 939 c 128,-1,3
 74 934 74 934 53 927.5 c 128,-1,4
 32 921 32 921 23 914 c 1,5,-1
 23 1053 l 1,6,7
 33 1059 33 1059 50 1064.5 c 128,-1,8
 67 1070 67 1070 87 1074 c 128,-1,9
 107 1078 107 1078 128.5 1080 c 128,-1,10
 150 1082 150 1082 168 1082 c 2,11,-1
 628 1082 l 1,12,-1
 628 951 l 1,13,-1
 387 951 l 1,14,-1
 387 266 l 2,15,16
 387 222 387 222 392 194 c 128,-1,17
 397 166 397 166 406.5 150 c 128,-1,18
 416 134 416 134 430 127.5 c 128,-1,19
 444 121 444 121 461 121 c 0,20,21
 467 121 467 121 476 122 c 128,-1,22
 485 123 485 123 495 124 c 128,-1,23
 505 125 505 125 514 126 c 2,24,-1
 529 129 l 1,25,-1
 529 0 l 1,26,27
 504 -8 504 -8 477 -14 c 128,-1,28
 450 -20 450 -20 416 -20 c 0,29,30
 369 -20 369 -20 336.5 -6 c 128,-1,31
 304 8 304 8 283.5 37.5 c 128,-1,32
 263 67 263 67 253.5 114 c 128,-1,33
 244 161 244 161 244 227 c 2,34,-1
 244 951 l 1,35,-1
 223 951 l 2,0,1
EndSplineSet
EndChar

StartChar: upsilon
Encoding: 965 965 398
Width: 934
GlyphClass: 2
Flags: W
LayerCount: 2
Fore
SplineSet
852 571 m 0,0,1
 852 434 852 434 830 325 c 128,-1,2
 808 216 808 216 761 139 c 128,-1,3
 714 62 714 62 640 21 c 256,4,5
 566 -20 566 -20 464 -20 c 0,6,7
 373 -20 373 -20 306.5 5 c 128,-1,8
 240 30 240 30 196.5 83.5 c 128,-1,9
 153 137 153 137 132 220 c 128,-1,10
 111 303 111 303 111 419 c 2,11,-1
 111 1082 l 1,12,-1
 262 1082 l 1,13,-1
 262 413 l 2,14,15
 262 267 262 267 310.5 193 c 128,-1,16
 359 119 359 119 471 119 c 0,17,18
 532 119 532 119 575.5 144 c 128,-1,19
 619 169 619 169 646 223 c 128,-1,20
 673 277 673 277 685.5 362 c 128,-1,21
 698 447 698 447 698 567 c 0,22,23
 698 635 698 635 689.5 708.5 c 128,-1,24
 681 782 681 782 667.5 851.5 c 128,-1,25
 654 921 654 921 637 981 c 128,-1,26
 620 1041 620 1041 603 1082 c 1,27,-1
 760 1082 l 1,28,29
 775 1042 775 1042 791.5 985.5 c 128,-1,30
 808 929 808 929 821.5 862 c 128,-1,31
 835 795 835 795 843.5 720.5 c 128,-1,32
 852 646 852 646 852 571 c 0,0,1
EndSplineSet
EndChar

StartChar: phi
Encoding: 966 966 399
Width: 1090
GlyphClass: 2
Flags: W
LayerCount: 2
Fore
SplineSet
1019 565 m 0,0,1
 1019 414 1019 414 989 306.5 c 128,-1,2
 959 199 959 199 904.5 129 c 128,-1,3
 850 59 850 59 774.5 23.5 c 128,-1,4
 699 -12 699 -12 609 -18 c 1,5,-1
 609 -425 l 1,6,-1
 469 -425 l 1,7,-1
 469 -18 l 1,8,9
 375 -13 375 -13 301 23 c 128,-1,10
 227 59 227 59 176 128 c 128,-1,11
 125 197 125 197 97.5 300.5 c 128,-1,12
 70 404 70 404 70 545 c 0,13,14
 70 647 70 647 90 741 c 128,-1,15
 110 835 110 835 152.5 910 c 128,-1,16
 195 985 195 985 260 1036 c 1,17,18
 324 1088 324 1088 414 1106 c 1,19,-1
 432 970 l 1,20,21
 375 955 375 955 335.5 916.5 c 128,-1,22
 296 878 296 878 271.5 821 c 128,-1,23
 247 764 247 764 236 692.5 c 128,-1,24
 225 621 225 621 225 541 c 0,25,26
 225 328 225 328 285.5 227.5 c 128,-1,27
 346 127 346 127 469 119 c 1,28,-1
 469 699 l 2,29,30
 469 892 469 892 532.5 998 c 128,-1,31
 596 1104 596 1104 726 1104 c 0,32,33
 795 1104 795 1104 849.5 1066 c 128,-1,34
 904 1028 904 1028 941.5 957.5 c 128,-1,35
 979 887 979 887 999 787.5 c 128,-1,36
 1019 688 1019 688 1019 565 c 0,0,1
864 567 m 0,37,38
 864 760 864 760 828.5 865.5 c 128,-1,39
 793 971 793 971 727 971 c 0,40,41
 671 971 671 971 640 906.5 c 128,-1,42
 609 842 609 842 609 702 c 2,43,-1
 609 119 l 1,44,45
 742 126 742 126 803 235 c 128,-1,46
 864 344 864 344 864 567 c 0,37,38
EndSplineSet
EndChar

StartChar: chi
Encoding: 967 967 400
Width: 877
GlyphClass: 2
Flags: W
LayerCount: 2
Fore
SplineSet
442 239 m 1,0,-1
 171 -424 l 1,1,-1
 17 -424 l 1,2,-1
 376 401 l 1,3,-1
 237 744 l 1,4,5
 237 744 237 744 197 839 c 0,6,7
 179 880 179 880 163 907.5 c 128,-1,8
 147 935 147 935 130 949 c 128,-1,9
 113 963 113 963 92 963 c 0,10,11
 83 963 83 963 70 959.5 c 128,-1,12
 57 956 57 956 51 953 c 1,13,-1
 24 1084 l 1,14,15
 44 1093 44 1093 69 1098.5 c 128,-1,16
 94 1104 94 1104 120 1104 c 0,17,18
 159 1104 159 1104 187.5 1090.5 c 128,-1,19
 216 1077 216 1077 240.5 1046 c 128,-1,20
 265 1015 265 1015 289 964 c 128,-1,21
 313 913 313 913 343 838 c 2,22,-1
 458 543 l 1,23,-1
 674 1082 l 1,24,-1
 826 1082 l 1,25,-1
 526 385 l 1,26,-1
 857 -424 l 1,27,-1
 702 -424 l 1,28,-1
 442 239 l 1,0,-1
EndSplineSet
EndChar

StartChar: psi
Encoding: 968 968 401
Width: 1223
GlyphClass: 2
Flags: W
LayerCount: 2
Fore
SplineSet
682 119 m 1,0,1
 755 120 755 120 807 135.5 c 128,-1,2
 859 151 859 151 892.5 187.5 c 128,-1,3
 926 224 926 224 941.5 284.5 c 128,-1,4
 957 345 957 345 957 436 c 2,5,-1
 957 1082 l 1,6,-1
 1109 1082 l 1,7,-1
 1109 438 l 2,8,9
 1109 316 1109 316 1084.5 230 c 128,-1,10
 1060 144 1060 144 1008 89 c 128,-1,11
 956 34 956 34 875 7.5 c 128,-1,12
 794 -19 794 -19 682 -20 c 1,13,-1
 682 -425 l 1,14,-1
 539 -425 l 1,15,-1
 539 -20 l 1,16,17
 427 -19 427 -19 346.5 7.5 c 128,-1,18
 266 34 266 34 214.5 89 c 128,-1,19
 163 144 163 144 138 230 c 128,-1,20
 113 316 113 316 113 438 c 2,21,-1
 113 1082 l 1,22,-1
 265 1082 l 1,23,-1
 265 436 l 2,24,25
 265 346 265 346 281 285.5 c 128,-1,26
 297 225 297 225 330 188.5 c 128,-1,27
 363 152 363 152 415 136 c 128,-1,28
 467 120 467 120 539 119 c 1,29,-1
 539 1340 l 1,30,-1
 682 1340 l 1,31,-1
 682 119 l 1,0,1
EndSplineSet
EndChar

StartChar: omega
Encoding: 969 969 402
Width: 1286
GlyphClass: 2
Flags: W
LayerCount: 2
Fore
SplineSet
710 449 m 2,0,1
 710 292 710 292 756 205.5 c 128,-1,2
 802 119 802 119 884 119 c 0,3,4
 936 119 936 119 971 147 c 128,-1,5
 1006 175 1006 175 1027.5 226 c 128,-1,6
 1049 277 1049 277 1057.5 349.5 c 128,-1,7
 1066 422 1066 422 1066 512 c 0,8,9
 1066 594 1066 594 1054.5 669 c 128,-1,10
 1043 744 1043 744 1018.5 804.5 c 128,-1,11
 994 865 994 865 955 907 c 128,-1,12
 916 949 916 949 862 964 c 1,13,-1
 881 1103 l 1,14,15
 969 1085 969 1085 1032.5 1029 c 128,-1,16
 1096 973 1096 973 1137.5 892.5 c 128,-1,17
 1179 812 1179 812 1198.5 715 c 128,-1,18
 1218 618 1218 618 1218 517 c 0,19,20
 1218 389 1218 389 1197 289 c 128,-1,21
 1176 189 1176 189 1135.5 120.5 c 128,-1,22
 1095 52 1095 52 1035.5 16 c 128,-1,23
 976 -20 976 -20 899 -20 c 0,24,25
 844 -20 844 -20 802.5 -2 c 128,-1,26
 761 16 761 16 730 50 c 128,-1,27
 699 84 699 84 678 133.5 c 128,-1,28
 657 183 657 183 644 247 c 1,29,-1
 641 247 l 1,30,31
 628 183 628 183 607 133.5 c 128,-1,32
 586 84 586 84 555 50 c 128,-1,33
 524 16 524 16 482 -2 c 128,-1,34
 440 -20 440 -20 386 -20 c 0,35,36
 310 -20 310 -20 250.5 16 c 128,-1,37
 191 52 191 52 150 120.5 c 128,-1,38
 109 189 109 189 88 289 c 128,-1,39
 67 389 67 389 67 517 c 0,40,41
 67 618 67 618 86.5 715 c 128,-1,42
 106 812 106 812 147.5 892.5 c 128,-1,43
 189 973 189 973 253 1029 c 128,-1,44
 317 1085 317 1085 405 1103 c 1,45,-1
 423 964 l 1,46,47
 368 949 368 949 329.5 907 c 128,-1,48
 291 865 291 865 266 804.5 c 128,-1,49
 241 744 241 744 230 669 c 128,-1,50
 219 594 219 594 219 512 c 0,51,52
 219 422 219 422 227.5 349.5 c 128,-1,53
 236 277 236 277 257 226 c 128,-1,54
 278 175 278 175 312.5 147 c 128,-1,55
 347 119 347 119 400 119 c 0,56,57
 441 119 441 119 474 141.5 c 128,-1,58
 507 164 507 164 530 206 c 128,-1,59
 553 248 553 248 565 309.5 c 128,-1,60
 577 371 577 371 577 449 c 2,61,-1
 577 701 l 1,62,-1
 710 701 l 1,63,-1
 710 449 l 2,0,1
EndSplineSet
EndChar

StartChar: afii10051
Encoding: 1026 1026 409
Width: 1453
GlyphClass: 2
Flags: W
LayerCount: 2
Fore
SplineSet
591 1253 m 1,0,-1
 591 901 l 1,1,2
 618 908 618 908 662.5 918 c 128,-1,3
 707 928 707 928 759 937.5 c 128,-1,4
 811 947 811 947 864.5 953.5 c 128,-1,5
 918 960 918 960 962 960 c 0,6,7
 1147 960 1147 960 1236 866.5 c 128,-1,8
 1325 773 1325 773 1325 585 c 2,9,-1
 1325 371 l 2,10,11
 1325 278 1325 278 1308 205.5 c 128,-1,12
 1291 133 1291 133 1256 83 c 128,-1,13
 1221 33 1221 33 1166.5 6.5 c 128,-1,14
 1112 -20 1112 -20 1036 -20 c 0,15,16
 993 -20 993 -20 957 -11.5 c 128,-1,17
 921 -3 921 -3 890 13 c 128,-1,18
 859 29 859 29 832.5 52 c 128,-1,19
 806 75 806 75 783 103 c 1,20,-1
 874 226 l 1,21,22
 874 226 874 226 906 194 c 0,23,24
 922 177 922 177 942 164 c 128,-1,25
 962 151 962 151 985 142.5 c 128,-1,26
 1008 134 1008 134 1035 134 c 0,27,28
 1104 134 1104 134 1136.5 184.5 c 128,-1,29
 1169 235 1169 235 1169 346 c 2,30,-1
 1169 565 l 2,31,32
 1169 684 1169 684 1116 745 c 128,-1,33
 1063 806 1063 806 945 806 c 0,34,35
 903 806 903 806 852.5 801 c 128,-1,36
 802 796 802 796 753 788.5 c 128,-1,37
 704 781 704 781 661 772.5 c 128,-1,38
 618 764 618 764 591 756 c 1,39,-1
 591 0 l 1,40,-1
 435 0 l 1,41,-1
 435 1253 l 1,42,-1
 38 1253 l 1,43,-1
 38 1409 l 1,44,-1
 988 1409 l 1,45,-1
 988 1253 l 1,46,-1
 591 1253 l 1,0,-1
EndSplineSet
EndChar

